<?xml version="1.0" encoding="UTF-8" standalone="no"?>
<!-- Created with Inkscape (http://www.inkscape.org/) -->

<svg
   width="21.905794mm"
   height="25.13542mm"
   viewBox="0 0 21.905794 25.13542"
   version="1.1"
   id="svg3435"
   inkscape:version="1.1 (c68e22c387, 2021-05-23)"
   sodipodi:docname="armor-class-border.svg"
   xmlns:inkscape="http://www.inkscape.org/namespaces/inkscape"
   xmlns:sodipodi="http://sodipodi.sourceforge.net/DTD/sodipodi-0.dtd"
   xmlns="http://www.w3.org/2000/svg"
   xmlns:svg="http://www.w3.org/2000/svg">
  <sodipodi:namedview
     id="namedview3437"
     pagecolor="#ffffff"
     bordercolor="#666666"
     borderopacity="1.0"
     inkscape:pageshadow="2"
     inkscape:pageopacity="0.0"
     inkscape:pagecheckerboard="0"
     inkscape:document-units="mm"
     showgrid="false"
     inkscape:zoom="3.4066516"
     inkscape:cx="126.95751"
     inkscape:cy="89.383957"
     inkscape:window-width="2560"
     inkscape:window-height="1377"
     inkscape:window-x="-8"
     inkscape:window-y="-8"
     inkscape:window-maximized="1"
     inkscape:current-layer="layer1" />
  <defs
     id="defs3432" />
  <g
     inkscape:label="Layer 1"
     inkscape:groupmode="layer"
     id="layer1">
    <path
       d="M 21.636116,6.8553213 C 19.225666,6.3670247 18.906675,2.6965844 18.903937,2.6596199 L 18.884767,2.4255114 10.953367,0 3.0210548,2.4255114 3.0018838,2.6596199 C 2.9991671,2.6965779 2.6796992,6.3670247 0.26970449,6.8553213 L 0,6.9096263 V 12.59851 l 0.01009004,0.0858 C 0.03610429,12.786528 2.6747306,22.926215 10.868987,25.112599 l 0.08442,0.02282 0.08352,-0.02282 C 19.231182,22.926215 21.86981,12.786529 21.895365,12.684305 l 0.01043,-5.7746813 z M 21.237266,12.55242 C 21.051531,13.23923 18.442108,22.364446 10.953372,24.42579 3.4637211,22.364446 0.85430009,13.23923 0.66856557,12.55242 V 7.4622688 C 2.980445,6.7873247 3.5298922,3.8228621 3.6430676,2.9512289 L 10.953372,0.71601727 18.262307,2.9512289 c 0.112732,0.8716332 0.662623,3.8360958 2.974959,4.5110399 z M 17.572302,3.6955399 17.550397,3.5860104 11.45125,1.720444 C 11.42936,1.4548466 11.21851,1.2440125 10.953827,1.2440125 c -0.265596,0 -0.476432,0.2103775 -0.498337,0.4764315 L 4.3554318,3.5864671 4.3335312,3.6959963 C 4.1564715,4.5872519 3.580556,6.6663926 1.9582242,7.7456648 1.8715147,7.6749325 1.7670128,7.6260974 1.6474481,7.6260974 c -0.2797441,0 -0.5060951,0.2327398 -0.5060951,0.519785 0,0.2208738 0.1346246,0.407065 0.3235543,0.4819076 v 3.783615 l 0.00724,0.05293 c 0.2605766,0.903121 2.6815243,8.709935 8.9796387,10.945604 0.01507,0.274266 0.230915,0.492404 0.501989,0.492404 0.273355,0 0.493772,-0.224527 0.502444,-0.503356 2.57702,-0.912248 4.799454,-2.817062 6.604783,-5.693905 1.478581,-2.357514 2.190033,-4.606874 2.372118,-5.239834 l 0.007,-3.837008 c 0.189386,-0.074849 0.324922,-0.2610321 0.324922,-0.4823639 0,-0.2870458 -0.226805,-0.519785 -0.50655,-0.519785 -0.119571,0 -0.224984,0.048832 -0.311232,0.1195674 C 18.325286,6.6663909 17.748913,4.5872502 17.572305,3.6955396 M 11.338039,23.054449 c -0.09355,-0.11409 -0.227719,-0.191667 -0.384249,-0.191667 -0.15744,0 -0.292066,0.07758 -0.384705,0.192124 C 4.5005165,20.899097 2.1201838,13.380241 1.8294869,12.384025 V 8.6282467 C 2.01933,8.5529474 2.1539533,8.3672146 2.1539533,8.1458828 c 0,-0.02603 -0.010995,-0.048835 -0.015052,-0.073928 C 3.8251154,6.9616483 4.456251,4.8770319 4.6679983,3.8808151 L 10.560417,2.0795946 c 0.09355,0.1213905 0.230912,0.2039885 0.393374,0.2039885 0.161551,0 0.299369,-0.082597 0.392008,-0.2039885 l 5.891505,1.8012205 c 0.211746,0.9957615 0.843338,3.0808332 2.529101,4.1915939 -0.0036,0.025567 -0.01457,0.047464 -0.01457,0.073478 0,0.2213309 0.134622,0.407065 0.324465,0.4819073 v 3.7566887 c -0.290723,0.996216 -2.671512,8.514617 -8.738257,10.669968"
       id="path147"
       style="stroke-width:0.456352" />
  </g>
</svg>
