<?xml version="1.0" encoding="UTF-8" standalone="no"?>
<!-- Created with Inkscape (http://www.inkscape.org/) -->

<svg
   width="13.22914mm"
   height="15.179541mm"
   viewBox="0 0 13.22914 15.179541"
   version="1.1"
   id="svg3435"
   inkscape:version="1.1 (c68e22c387, 2021-05-23)"
   sodipodi:docname="armor-class-border.svg"
   xmlns:inkscape="http://www.inkscape.org/namespaces/inkscape"
   xmlns:sodipodi="http://sodipodi.sourceforge.net/DTD/sodipodi-0.dtd"
   xmlns="http://www.w3.org/2000/svg"
   xmlns:svg="http://www.w3.org/2000/svg">
  <sodipodi:namedview
     id="namedview3437"
     pagecolor="#ffffff"
     bordercolor="#666666"
     borderopacity="1.0"
     inkscape:pageshadow="2"
     inkscape:pageopacity="0.0"
     inkscape:pagecheckerboard="0"
     inkscape:document-units="mm"
     showgrid="false"
     inkscape:zoom="3.4066516"
     inkscape:cx="127.10428"
     inkscape:cy="89.383957"
     inkscape:window-width="2560"
     inkscape:window-height="1377"
     inkscape:window-x="-8"
     inkscape:window-y="-8"
     inkscape:window-maximized="1"
     inkscape:current-layer="layer1" />
  <defs
     id="defs3432" />
  <g
     inkscape:label="Layer 1"
     inkscape:groupmode="layer"
     id="layer1">
    <path
       d="M 13.066277,4.1400002 C 11.610581,3.8451128 11.417939,1.6284955 11.416285,1.6061723 L 11.404708,1.4647917 6.6148526,0 1.8244466,1.4647917 1.812869,1.6061723 C 1.8112284,1.6284916 1.6182984,3.8451128 0.16287736,4.1400002 L 0,4.1727956 v 3.4355766 l 0.00609348,0.051812 C 0.02180376,7.7219182 1.6152978,13.845381 6.5638952,15.165761 l 0.050982,0.01378 0.050436,-0.01378 C 11.613912,13.845381 13.207407,7.7219188 13.22284,7.6601842 L 13.22914,4.172794 Z M 12.825407,7.580538 C 12.71324,7.9953094 11.137382,13.506123 6.6148558,14.75099 2.0917774,13.506123 0.51592076,7.9953094 0.40375374,7.580538 V 4.5065422 C 1.7999219,4.0989364 2.1317388,2.3086664 2.2000866,1.782278 L 6.6148558,0.43241032 11.028798,1.782278 c 0.06808,0.5263884 0.400165,2.3166584 1.796609,2.7242642 z M 10.612097,2.2317752 10.598868,2.1656292 6.9155296,1.0389941 C 6.9023096,0.87859708 6.7749756,0.75127214 6.6151304,0.75127214 c -0.160396,0 -0.287722,0.1270492 -0.3009504,0.28772196 L 2.6302908,2.165905 2.6170648,2.2320508 C 2.5101366,2.7702894 2.1623352,4.0259042 1.1825921,4.677688 1.1302273,4.634972 1.0671175,4.60548 0.99491113,4.60548 c -0.16894041,0 -0.30563609,0.140554 -0.30563609,0.3139036 0,0.133388 0.0813012,0.2458308 0.1953978,0.291029 V 7.495377 l 0.004372,0.031968 C 1.0464098,8.0727492 2.5084454,12.787366 6.311943,14.13751 c 0.0091,0.165632 0.139452,0.297368 0.3031558,0.297368 0.165082,0 0.2981948,-0.135594 0.3034308,-0.303982 1.5562896,-0.550916 2.8984414,-1.701253 3.9886984,-3.438609 0.89293,-1.4237272 1.322584,-2.782139 1.432547,-3.1643904 l 0.0042,-2.3172092 c 0.114372,-0.045202 0.196224,-0.15764 0.196224,-0.2913046 0,-0.17335 -0.13697,-0.3139036 -0.305911,-0.3139036 -0.07221,0 -0.13587,0.02949 -0.187956,0.072208 -0.9795,-0.651784 -1.327578,-1.9073988 -1.434233,-2.4459122 M 6.8471606,13.922823 c -0.056494,-0.0689 -0.137522,-0.11575 -0.232052,-0.11575 -0.09508,0 -0.176382,0.04685 -0.2323274,0.116026 C 2.717909,12.621183 1.2804012,8.0804676 1.1048463,7.4788422 V 5.2106884 c 0.1146482,-0.045474 0.1959486,-0.15764 0.1959486,-0.2913046 0,-0.01572 -0.00664,-0.029492 -0.00909,-0.044646 C 2.3100272,4.2042122 2.6911766,2.9452906 2.819053,2.3436648 L 6.3775462,1.2558889 c 0.056498,0.073309 0.13945,0.1231908 0.237563,0.1231908 0.097562,0 0.180792,-0.049881 0.2367372,-0.1231908 l 3.5579416,1.0877759 c 0.127876,0.6013508 0.509301,1.8605474 1.527351,2.5313474 -0.0022,0.01544 -0.0088,0.028664 -0.0088,0.044374 0,0.133664 0.0813,0.2458308 0.195948,0.2910288 V 7.4791186 C 11.948716,8.080744 10.510933,12.621185 6.847162,13.922824"
       id="path147"
       style="stroke-width:0.275596" />
  </g>
</svg>
