<?xml version="1.0" encoding="UTF-8" standalone="no"?>
<!-- Created with Inkscape (http://www.inkscape.org/) -->

<svg
   width="13.229145mm"
   height="15.510201mm"
   viewBox="0 0 13.229145 15.510201"
   version="1.1"
   id="svg3956"
   inkscape:version="1.1 (c68e22c387, 2021-05-23)"
   sodipodi:docname="attribute-border.svg"
   xmlns:inkscape="http://www.inkscape.org/namespaces/inkscape"
   xmlns:sodipodi="http://sodipodi.sourceforge.net/DTD/sodipodi-0.dtd"
   xmlns="http://www.w3.org/2000/svg"
   xmlns:svg="http://www.w3.org/2000/svg">
  <sodipodi:namedview
     id="namedview3958"
     pagecolor="#ffffff"
     bordercolor="#666666"
     borderopacity="1.0"
     inkscape:pageshadow="2"
     inkscape:pageopacity="0.0"
     inkscape:pagecheckerboard="0"
     inkscape:document-units="mm"
     showgrid="false"
     inkscape:zoom="6.8133032"
     inkscape:cx="78.229309"
     inkscape:cy="62.304581"
     inkscape:window-width="2560"
     inkscape:window-height="1377"
     inkscape:window-x="-8"
     inkscape:window-y="-8"
     inkscape:window-maximized="1"
     inkscape:current-layer="layer1" />
  <defs
     id="defs3953" />
  <g
     inkscape:label="Layer 1"
     inkscape:groupmode="layer"
     id="layer1">
    <path
       d="M 0.73809246,2.2241249 C 0.57884943,1.8388111 0.50332746,1.0219803 0.50332746,1.0219803 L 0.50903146,0.9526864 0.6116323,0.9209267 C 0.85211131,0.84639336 1.5370288,0.54654205 1.5370288,0.15998877 V 0 H 11.692301 v 0.15998877 c 0,0.38655328 0.684669,0.68640459 0.925148,0.76093786 l 0.102352,0.0317597 0.006,0.0692939 c 0,0 -0.07552,0.8168308 -0.234765,1.2021446 L 12.419475,1.1919055 C 12.154399,1.0947672 11.510224,0.81130977 11.390978,0.32041416 H 1.8383825 C 1.7188884,0.81130977 1.0747132,1.0947672 0.80988847,1.1919055 Z m -0.35873077,10.7492541 -2.4859e-4,5e-4 c 0.0136616,0 0.0300626,7.04e-4 0.0449636,0.0021 0.0129151,-0.182101 0.0263303,-0.3878 0.039006,-0.613618 C 0.27676155,12.072459 0.13292095,11.74627 0.10261259,11.401448 0.06509948,10.973157 0.20844362,10.576421 0.5246931,10.220423 c 0,-0.0626 -7.7463e-4,-0.126701 -0.001268,-0.190544 0,0 -0.22532439,-4.205651 -0.43226546,-4.8776475 L 0.06457626,5.066276 0.14158974,5.0188124 c 0.003451,-0.00211 0.1828431,-0.1162645 0.35897864,-0.304823 0,0 0.18532825,-0.1656999 0.25389408,-0.3654411 C 0.83048181,4.1853342 0.86898827,3.9997546 0.8225318,3.7995204 0.8148306,3.7816335 0.72837793,3.578174 0.64043374,3.3155823 L 0.59844892,3.7816335 C 0.64217313,3.9100738 0.67943624,4.0474576 0.71446491,4.1880666 0.66552253,4.2881837 0.57335732,4.446433 0.45908073,4.5187269 0.41063833,4.2829655 0.35498909,4.0561475 0.2844353,3.8531809 L 0.27275955,3.8208578 0.47448385,1.5715857 C 0.47201912,1.9077107 0.70105046,2.6383395 0.70105046,2.6383395 0.77682103,3.0979331 1.0344414,3.7038468 1.0428879,3.7269518 1.1330676,4.1090334 1.0016489,4.4372079 0.8225318,4.6878774 1.09158,6.2010562 0.82948937,11.598908 0.79570152,12.226687 0.6707421,12.068192 0.55745914,11.811811 0.49609666,11.65928 c 0.0126687,-0.326935 0.0216121,-0.680447 0.0260838,-1.046635 -0.14682151,0.240733 -0.2111642,0.497607 -0.18731482,0.767649 0.0270768,0.31252 0.16445978,0.613864 0.34208612,0.88366 0.008943,0.01317 0.0168939,0.02507 0.0250909,0.03704 0.024098,0.03528 0.0489424,0.06979 0.0740319,0.104343 0.005704,0.0075 0.008697,0.01141 0.008697,0.01141 v 4.93e-4 c 0.39202034,0.525676 0.90005674,0.897075 0.93856314,0.924652 0.1927806,0.10161 0.3840706,0.220107 0.5691499,0.344322 h 0.00298 l 0.04099,0.02958 c 0.1291829,0.0877 0.2543909,0.178622 0.3748787,0.270043 l 0.029315,0.02113 h -0.00174 c 0.2315354,0.176629 0.4431965,0.353265 0.6173449,0.506789 0.2268153,0.0028 0.4499042,0.01817 0.6464112,0.03676 C 3.7977103,14.386793 3.6220713,14.204453 3.4819576,14.006951 H 3.0752801 2.9247323 L 2.5188001,13.686227 H 2.8969083 C 2.811449,13.433078 2.7669802,13.20676 2.7530682,13.006526 c -0.1343998,0.182847 -0.4210864,0.458601 -0.8506193,0.29364 0.097384,0.02782 0.4973539,0.08621 0.8565816,-0.667524 l 9.93e-4,0.0042 c 0.071796,-0.597717 0.411646,-0.868999 0.411646,-0.868999 -0.3527685,0.693363 -0.2710355,1.30872 -0.15651,1.680372 0.00199,0.0021 0.073783,0.101856 0.2181203,0.104089 -0.087447,-0.220354 -0.1368841,-0.451643 -0.1368841,-0.691877 0,-1.396414 1.578515,-2.531729 3.5179968,-2.531729 1.9399782,0 3.5182455,1.135315 3.5182455,2.531729 0,0.240234 -0.04944,0.471523 -0.136636,0.691877 0.144337,-0.0021 0.215885,-0.101857 0.217872,-0.104089 0.114525,-0.371652 0.196507,-0.987009 -0.156262,-1.680372 0,0 0.339851,0.271282 0.411398,0.868999 l 9.86e-4,-0.0042 c 0.359227,0.753733 0.759198,0.695355 0.85683,0.667524 -0.429533,0.164961 -0.716468,-0.110793 -0.850868,-0.29364 -0.01366,0.200234 -0.05813,0.426552 -0.14384,0.679701 h 0.378108 l -0.405932,0.320724 H 10.149553 9.7473466 c -0.1403619,0.197502 -0.3160009,0.379842 -0.5207062,0.543556 0.196259,-0.01866 0.4193475,-0.0343 0.6464113,-0.03676 0.1741483,-0.153524 0.3855613,-0.33016 0.6173453,-0.506789 h -0.0018 l 0.02907,-0.02113 c 0.120736,-0.09142 0.245447,-0.182348 0.375127,-0.270043 l 0.04099,-0.02958 h 0.003 c 0.18508,-0.124215 0.376122,-0.242712 0.56915,-0.344322 0.03826,-0.02761 0.546294,-0.398976 0.938315,-0.924652 v -4.93e-4 c 0,0 0.0032,-0.0042 0.0087,-0.01141 0.02534,-0.03451 0.04993,-0.06908 0.07403,-0.104343 0.0082,-0.0119 0.01639,-0.02387 0.02509,-0.03704 0.177875,-0.269796 0.31476,-0.57114 0.342086,-0.88366 0.02385,-0.270042 -0.04025,-0.526916 -0.187066,-0.767649 0.0042,0.366188 0.01291,0.7197 0.02584,1.046635 -0.06136,0.152531 -0.174645,0.408912 -0.299604,0.567407 -0.03403,-0.627779 -0.295879,-6.0256308 -0.02658,-7.5388096 -0.179117,-0.2506695 -0.310536,-0.578844 -0.220356,-0.9609256 0.0079,-0.023098 0.265818,-0.6290187 0.341837,-1.0886123 0,0 0.229051,-0.7306288 0.22607,-1.0667538 l 0.201972,2.2492721 -0.01143,0.032323 c -0.07055,0.2029666 -0.126201,0.4297846 -0.174645,0.665546 -0.114277,-0.072294 -0.206444,-0.2305432 -0.255633,-0.3306603 0.03503,-0.140609 0.07229,-0.2779928 0.116016,-0.4064331 l -0.04198,-0.4660512 c -0.0877,0.2625917 -0.174148,0.4660512 -0.181849,0.4839381 -0.0467,0.2002342 -0.0082,0.3858138 0.06782,0.5490279 0.06881,0.1997412 0.253894,0.3654411 0.253894,0.3654411 0.176384,0.1885585 0.355501,0.3025837 0.359227,0.304823 l 0.07701,0.047464 -0.02683,0.085955 c -0.206693,0.6719965 -0.432017,4.8776477 -0.432017,4.8776477 -4.97e-4,0.06387 -0.0013,0.12794 -0.0013,0.190544 0.316001,0.355998 0.459593,0.752734 0.421832,1.181025 -0.03055,0.344822 -0.174149,0.671011 -0.360221,0.960926 0.01242,0.225818 0.02584,0.431517 0.03851,0.613618 0.0154,-7.04e-4 0.03155,-0.0021 0.04546,-0.0021 l -2.48e-4,-5e-4 c 0.242963,-0.02014 0.455866,0.114772 0.35252,0.284697 -0.103098,0.170425 -0.279731,0.188812 -0.279731,0.188812 0,0 0.06683,-0.04246 0.12173,-0.13987 0.02733,-0.04894 0.006,-0.07155 -0.02236,-0.08272 -0.02037,-0.0035 -0.04025,-0.007 -0.06236,-0.0089 h -4.96e-4 c -0.04472,-0.0035 -0.09167,-0.0049 -0.136885,-0.0042 0.02907,0.37761 0.05242,0.605668 0.05391,0.61809 l 0.01888,0.177629 H 11.18501 10.883666 c -0.238988,0.170672 -0.464064,0.349787 -0.658833,0.513501 0.706035,-0.0063 1.149231,0.345561 1.149231,0.345561 l -0.449655,0.178376 2.48e-4,-2.54e-4 c -0.217126,0.09192 -0.561201,0.222846 -0.873227,0.28445 0.0023,5e-4 0.005,0.0014 0.005,0.0014 -0.01913,0.0035 -0.03553,0.0056 -0.05416,0.0092 -0.013661,0.0028 -0.02683,0.0049 -0.039998,0.007 -1.5770243,0.273021 -1.7417319,0.122722 -1.7417319,0.122722 0.6784583,0 1.106252,-0.442453 1.106252,-0.442453 l 0.039006,-0.03951 c 0.016147,-0.01563 0.10111,-0.10111 0.2370008,-0.22855 -0.100365,0.0056 -0.1987427,0.01239 -0.2941395,0.02035 h -0.00127 c -0.024344,0.0021 -0.047203,0.0049 -0.07105,0.007 -0.047203,0.0056 -0.1155195,0.01662 -0.1925323,0.03655 -0.044717,0.0112 -0.093161,0.02605 -0.1428463,0.04394 -0.0077,0.0028 -0.015155,0.0056 -0.022858,0.0087 -0.051428,0.01965 -0.1043402,0.04324 -0.1555164,0.07179 -0.0062,0.0035 -0.011676,0.0077 -0.01764,0.01141 -0.043224,0.02486 -0.084466,0.05514 -0.1249594,0.08794 -0.012422,0.01042 -0.024591,0.02085 -0.036767,0.03183 -0.044471,0.04127 -0.08695,0.0862 -0.1222264,0.139863 l -1.2885994,0.147074 0.010183,-0.0042 c -0.1726574,0.01915 -0.3482964,0.03204 -0.5281587,0.03204 -0.1793654,0 -0.3550044,-0.01289 -0.5279107,-0.03204 l 0.010186,0.0042 -1.288599,-0.147074 c -0.036022,-0.05415 -0.078752,-0.09962 -0.1239658,-0.140855 -0.011677,-0.01092 -0.023849,-0.02113 -0.036022,-0.03183 -0.041488,-0.03352 -0.084714,-0.06457 -0.1289344,-0.09067 -0.00522,-0.0028 -0.00969,-0.0063 -0.014657,-0.0089 -0.051922,-0.02859 -0.1043401,-0.0519 -0.1555163,-0.07155 -0.00994,-0.0035 -0.019378,-0.0072 -0.02857,-0.01042 -0.04894,-0.01711 -0.097384,-0.03254 -0.1411074,-0.04324 -0.075025,-0.01817 -0.1403621,-0.02908 -0.1863214,-0.03451 -0.023849,-0.0021 -0.046953,-0.0049 -0.071051,-0.007 H 3.92071 c -0.095397,-0.008 -0.1940226,-0.01493 -0.2941394,-0.02035 0.1358905,0.127441 0.220853,0.212903 0.2367524,0.228551 l 0.039003,0.03951 c 0,0 0.427794,0.442453 1.1060039,0.442453 0,0 -0.1644597,0.150299 -1.7412357,-0.122722 -0.013415,-0.0014 -0.026582,-0.0042 -0.039997,-0.007 -0.018881,-0.0035 -0.035277,-0.0056 -0.054158,-0.0092 0,0 0.00273,-7.04e-4 0.00472,-0.0014 -0.3122747,-0.06162 -0.6560998,-0.19253 -0.872978,-0.28445 l 2.485e-4,2.54e-4 -0.4496557,-0.178376 c 0,0 0.4429481,-0.351773 1.1492305,-0.345561 C 2.8097437,14.356603 2.584419,14.177488 2.3456792,14.006817 H 2.0401121 0.33390513 l 0.0188798,-0.177629 c 0.001479,-0.01239 0.0250909,-0.24048 0.0541605,-0.61809 -0.0457101,-5e-4 -0.0921666,5e-4 -0.13713233,0.0042 h -4.9717e-4 c -0.0221121,0.0021 -0.0419848,0.0056 -0.0623575,0.0089 -0.0280697,0.0112 -0.0499353,0.0338 -0.022605,0.08272 0.0549,0.09738 0.12172991,0.13987 0.12172991,0.13987 0,0 -0.17613553,-0.01838 -0.27923354,-0.188812 -0.10359448,-0.169925 0.10930841,-0.304816 0.35252036,-0.284697 M 12.5397,8.0176988 C 12.627394,7.0930469 12.744653,5.6978721 12.891226,5.1667311 12.838558,5.1291969 12.76403,5.0713392 12.682546,4.996806 12.554356,5.8625791 12.531501,7.2860771 12.5397,8.0176988 m -0.350782,5.0445932 c 0.100117,-0.02711 0.197998,-0.045 0.294139,-0.05641 -0.0055,-0.07577 -0.01143,-0.158003 -0.01689,-0.242219 -0.09291,0.108807 -0.186818,0.209671 -0.277246,0.298612 M 11.3696,13.686079 h 1.170347 c -0.01044,-0.107814 -0.02435,-0.262092 -0.03925,-0.451143 -0.350284,0.04197 -0.745285,0.219607 -1.131095,0.451143 m -1.7844623,1.411822 c 0.00373,0.0028 0.0077,0.0056 0.012176,0.0082 0.1724096,0.09713 0.7403173,-0.07304 1.1934513,-0.258867 -0.214146,-0.07229 -0.514993,-0.09838 -0.8292551,-0.09887 -0.175887,0.156756 -0.3078026,0.282211 -0.3763691,0.34954 m -2.9707086,-0.05542 c 1.1360636,0 2.1315172,-0.415377 2.6909779,-1.035699 0.04521,-0.05021 0.087696,-0.10161 0.1274439,-0.153777 0.00423,-0.0056 0.0077,-0.01169 0.011922,-0.01711 0.035774,-0.04866 0.070054,-0.09813 0.1006136,-0.149306 0.1522868,-0.255142 0.2377466,-0.534127 0.2377466,-0.826528 0,-1.203138 -1.4215087,-2.182443 -3.1687065,-2.182443 -1.7469496,0 -3.1684578,0.979305 -3.1684578,2.182443 0,0.292401 0.085459,0.571386 0.2377461,0.826528 0.030557,0.05119 0.064591,0.10061 0.1011105,0.149799 0.00373,0.0056 0.00745,0.01092 0.011676,0.01662 0.039749,0.05218 0.08223,0.103596 0.1269471,0.153777 0.559461,0.620322 1.5551627,1.035699 2.6909781,1.035699 m -3.3465811,-0.29414 c -0.3142621,4.93e-4 -0.6151091,0.02662 -0.8292546,0.09887 0.4531338,0.185826 1.0205446,0.355998 1.1932024,0.258867 0.00447,-0.0028 0.00869,-0.0049 0.012173,-0.0082 -0.068567,-0.06732 -0.2002335,-0.192784 -0.3761209,-0.34954 m -2.52204979,-1.74248 c 0.0966385,0.01141 0.19402239,0.02929 0.29463599,0.05641 -0.090428,-0.08894 -0.18458239,-0.189805 -0.27749418,-0.298612 -0.005493,0.08422 -0.0111828,0.166447 -0.0171404,0.242219 m -0.0563929,0.680194 H 1.8597562 C 1.4739467,13.454536 1.0786968,13.276913 0.72866102,13.234929 c -0.015401,0.189051 -0.0288162,0.343329 -0.0392525,0.451143 M 0.68965641,8.0176777 C 0.69785337,7.286056 0.67450187,5.862558 0.54656156,4.9967848 0.46507707,5.0713181 0.39054873,5.1291969 0.33813039,5.16671 0.48445473,5.697851 0.60171293,7.0930258 0.68965641,8.0176777"
       id="path191"
       style="stroke-width:0.248429" />
  </g>
</svg>
