<?xml version="1.0" encoding="UTF-8" standalone="no"?>
<!-- Created with Inkscape (http://www.inkscape.org/) -->

<svg
   width="20.702217mm"
   height="8.2729921mm"
   viewBox="0 0 20.702217 8.2729921"
   version="1.1"
   id="svg1626"
   inkscape:version="1.1 (c68e22c387, 2021-05-23)"
   sodipodi:docname="gold-border.svg"
   xmlns:inkscape="http://www.inkscape.org/namespaces/inkscape"
   xmlns:sodipodi="http://sodipodi.sourceforge.net/DTD/sodipodi-0.dtd"
   xmlns="http://www.w3.org/2000/svg"
   xmlns:svg="http://www.w3.org/2000/svg">
  <sodipodi:namedview
     id="namedview1628"
     pagecolor="#ffffff"
     bordercolor="#666666"
     borderopacity="1.0"
     inkscape:pageshadow="2"
     inkscape:pageopacity="0.0"
     inkscape:pagecheckerboard="0"
     inkscape:document-units="mm"
     showgrid="false"
     inkscape:snap-text-baseline="true"
     inkscape:snap-page="true"
     inkscape:zoom="8.3856039"
     inkscape:cx="41.738198"
     inkscape:cy="10.673054"
     inkscape:window-width="1920"
     inkscape:window-height="1017"
     inkscape:window-x="-8"
     inkscape:window-y="-8"
     inkscape:window-maximized="1"
     inkscape:current-layer="layer2" />
  <defs
     id="defs1623" />
  <g
     inkscape:groupmode="layer"
     id="layer2"
     inkscape:label="Layer 2"
     style="display:inline"
     transform="translate(-48.33464,-69.768284)">
    <g
       id="g8354"
       transform="translate(-1.4782088,0.28047356)"
       style="display:inline">
      <path
         d="m 59.452501,76.441554 h -7.171619 l 0.05574,-0.219781 c 0.04127,-0.162983 -0.0039,-0.329847 -0.120298,-0.445558 -0.178505,-0.179211 -0.486833,-0.178153 -0.663927,-0.0011 l -0.114653,0.115005 -1.624895,-1.371952 v -1.36525 l 1.624895,-1.371953 0.114653,0.114653 c 0.177094,0.177094 0.486833,0.176741 0.663222,-3.53e-4 0.117122,-0.11677 0.162278,-0.283281 0.121003,-0.446264 l -0.05574,-0.219781 h 7.171619 l -0.05539,0.219428 c -0.04092,0.163336 0.0039,0.3302 0.120297,0.445911 0.178153,0.179211 0.486481,0.177448 0.663575,0.0011 l 0.115006,-0.114653 1.625247,1.371953 v 1.36525 l -1.6256,1.371952 -0.114653,-0.115005 c -0.177447,-0.1778 -0.48648,-0.177447 -0.662869,3.53e-4 -0.117123,0.116416 -0.161925,0.282927 -0.121003,0.446616 z m -6.748992,-0.352778 h 6.326011 c 0.0032,-0.210255 0.08608,-0.410633 0.239184,-0.56268 0.270228,-0.270934 0.722489,-0.312209 1.03505,-0.104775 l 1.264708,-1.067153 v -1.037167 l -1.265061,-1.067858 c -0.311856,0.208139 -0.764117,0.167922 -1.035403,-0.105128 -0.1524,-0.151341 -0.235303,-0.352072 -0.238478,-0.561975 h -6.324952 c -0.0032,0.20955 -0.08643,0.410634 -0.239536,0.562681 -0.26917,0.271286 -0.721784,0.312561 -1.034697,0.104422 l -1.264709,1.067858 v 1.037167 l 1.264709,1.067505 c 0.312208,-0.208491 0.764822,-0.166863 1.035402,0.105128 0.149931,0.148872 0.233539,0.352072 0.237772,0.561975"
         id="path249"
         style="stroke-width:0.352778" />
    </g>
  </g>
  <g
     inkscape:label="Layer 1"
     inkscape:groupmode="layer"
     id="layer1"
     style="display:inline;mix-blend-mode:screen"
     transform="translate(-48.33464,-69.768284)">
    <g
       id="g8833"
       transform="translate(-9.4971792,3.502282)">
      <path
         d="M 75.947457,74.362605 H 65.341546 l -2.410178,-3.033536 3.53e-4,-1.854553 2.40912,-3.032125 h 10.608027 l 2.408414,3.032125 3.53e-4,1.854553 z M 65.533104,73.96573 H 75.755899 L 77.96076,71.19078 77.960407,69.612805 75.75731,66.839266 H 65.532399 l -2.203803,2.773539 -3.53e-4,1.577975 z"
         id="path255"
         style="fill:#000000;fill-opacity:1;stroke:#000000;stroke-width:0.352778;stroke-opacity:1" />
    </g>
    <path
       style="fill:#a0a0a0;stroke:none;stroke-width:0.0315521"
       d="m 55.082177,75.953768 -1.047745,-1.3173 -7.93e-4,-0.729599 -7.94e-4,-0.729602 1.049785,-1.321284 1.049784,-1.321287 h 5.015164 5.015164 l 1.050049,1.321898 1.050047,1.321898 -7.94e-4,0.728988 -0.0011,0.728988 -1.048181,1.317294 -1.048181,1.317292 -5.017408,8e-6 -5.017407,8e-6 z"
       id="path8713" />
    <path
       style="fill:#a0a0a0;stroke:none;stroke-width:0.119252"
       d="m 208.30166,287.10575 -3.92795,-4.94239 -0.0859,-2.69866 c -0.0685,-2.15224 -0.054,-2.74564 0.0717,-2.93067 0.0867,-0.12761 1.87491,-2.40068 3.97375,-5.05127 l 3.81606,-4.81926 18.96107,-2e-5 18.96106,-2e-5 3.93532,4.97728 3.93532,4.97728 -0.004,0.67919 c -0.002,0.37356 -0.0158,1.6115 -0.0298,2.75098 l -0.0256,2.07178 -3.94755,4.96409 -3.94755,4.96408 h -18.87887 -18.87886 z"
       id="path8970"
       transform="scale(0.26458333)" />
    <path
       style="fill:#ffffff;stroke:none;stroke-width:0.119252"
       d="m 208.61118,287.50969 c -1.98935,-2.49614 -3.76073,-4.73659 -3.93641,-4.97877 -0.31698,-0.43698 -0.32003,-0.4608 -0.40107,-3.13288 l -0.0817,-2.69256 1.47434,-1.85051 c 0.81089,-1.01777 2.60128,-3.27821 3.97864,-5.02318 l 2.50429,-3.17268 18.96107,-6.6e-4 18.96106,-6.5e-4 3.9784,5.03005 3.97839,5.03005 -0.0694,1.37458 c -0.0382,0.75601 -0.071,1.97227 -0.0729,2.7028 l -0.003,1.32823 -3.94325,4.96231 -3.94325,4.96232 h -18.88388 -18.88388 z"
       id="path9009"
       transform="scale(0.26458333)" />
  </g>
</svg>
