<?xml version="1.0" encoding="UTF-8" standalone="no"?>
<!-- Created with Inkscape (http://www.inkscape.org/) -->

<svg
   width="39.885052mm"
   height="9.9268103mm"
   viewBox="0 0 39.885052 9.9268103"
   version="1.1"
   id="svg4348"
   inkscape:version="1.1 (c68e22c387, 2021-05-23)"
   sodipodi:docname="inspiration-bar.svg"
   xmlns:inkscape="http://www.inkscape.org/namespaces/inkscape"
   xmlns:sodipodi="http://sodipodi.sourceforge.net/DTD/sodipodi-0.dtd"
   xmlns="http://www.w3.org/2000/svg"
   xmlns:svg="http://www.w3.org/2000/svg">
  <sodipodi:namedview
     id="namedview4350"
     pagecolor="#ffffff"
     bordercolor="#666666"
     borderopacity="1.0"
     inkscape:pageshadow="2"
     inkscape:pageopacity="0.0"
     inkscape:pagecheckerboard="0"
     inkscape:document-units="mm"
     showgrid="false"
     inkscape:zoom="4.8177329"
     inkscape:cx="107.72702"
     inkscape:cy="55.939174"
     inkscape:window-width="2560"
     inkscape:window-height="1377"
     inkscape:window-x="-8"
     inkscape:window-y="-8"
     inkscape:window-maximized="1"
     inkscape:current-layer="layer1" />
  <defs
     id="defs4345" />
  <g
     inkscape:label="Layer 1"
     inkscape:groupmode="layer"
     id="layer1"
     transform="translate(-2.4642779,-102.67713)">
    <path
       d="m 42.151079,105.36743 -0.138656,-0.0653 c -0.513207,-0.24115 -1.149275,-1.17279 -1.350766,-1.51117 L 40.591447,103.673 H 12.341924 v -0.99587 H 9.9289406 l -0.092321,0.11584 c -0.1551555,0.19482 -0.345765,0.34822 -0.5570854,0.4574 -0.5223333,-0.22501 -1.0734511,-0.35174 -1.6301854,-0.38088 -0.043879,-0.093 -0.1365508,-0.15866 -0.2464234,-0.15866 -0.1095215,0 -0.2025445,0.0657 -0.2460724,0.15866 -0.5567342,0.0292 -1.1075011,0.15587 -1.6298344,0.38088 -0.2116714,-0.10918 -0.4022809,-0.26258 -0.5570853,-0.4574 l -0.09232,-0.11586 H 2.4642779 v 9.87764 h 2.4133343 l 0.092322,-0.11583 c 0.1548044,-0.19447 0.3450629,-0.34823 0.5563833,-0.45705 0.5212802,0.22572 1.0678346,0.35419 1.6319405,0.38298 0.04423,0.0916 0.1361999,0.15621 0.2446683,0.15621 0.1084684,0 0.2007894,-0.0646 0.2446682,-0.15621 0.564457,-0.0288 1.1113625,-0.15726 1.6326426,-0.38298 0.2109694,0.10882 0.4015789,0.26258 0.5563833,0.45705 l 0.092321,0.11583 h 2.4129836 v -0.99587 h 28.112976 0.137253 l 0.0702,-0.11794 c 0.201492,-0.33875 0.837207,-1.27003 1.350415,-1.51154 l 0.139008,-0.065 z m -2.403155,4.94917 H 13.045389 v -5.4013 h 26.703238 c 0.813689,0.4588 1.631238,1.08187 1.920136,1.83273 v 1.73479 c -0.288547,0.75121 -1.106447,1.37464 -1.920839,1.83378 m -27.406,-5.4013 h 0.440544 v 5.4013 h -0.440544 z m 29.326489,0.74875 v 0.52058 c -0.636068,-0.94568 -1.947518,-1.63791 -2.856686,-2.02896 h 1.508026 c 0.198684,0.31207 0.766651,1.15138 1.34866,1.50838 m -3.571384,-1.50838 c 0.274506,0.10215 0.693285,0.26959 1.152784,0.49636 H 12.341924 v -0.49636 z M 7.1772128,103.12891 c 0.048092,0.0758 0.1291792,0.12847 0.2257126,0.12847 0.096885,0 0.1776214,-0.0526 0.2264146,-0.12847 0.437735,0.0221 0.8712576,0.10776 1.2882818,0.25766 -0.1281261,0.0316 -0.2601135,0.0488 -0.3938562,0.0488 H 6.2827872 c -0.1344446,0 -0.2660811,-0.0172 -0.3935051,-0.0488 0.4163221,-0.1499 0.8501957,-0.23555 1.2879307,-0.25766 m 0.4517762,8.97374 c -0.048793,-0.0751 -0.1295302,-0.12848 -0.2260636,-0.12848 -0.096533,0 -0.1772703,0.0533 -0.2253616,0.12848 -0.438086,-0.0218 -0.8719596,-0.10741 -1.2882817,-0.25765 0.127424,-0.0316 0.2590605,-0.0488 0.3935051,-0.0488 h 2.2409784 c 0.1337427,0 0.2657301,0.0172 0.3938562,0.0488 -0.4170242,0.15024 -0.8508978,0.23588 -1.2886328,0.25765 m 2.589903,-0.16218 C 9.7811567,111.45676 9.1710659,111.1819 8.5237656,111.1819 H 6.2827872 c -0.6476512,0 -1.2573911,0.27486 -1.6951261,0.75857 H 4.1790617 c 0,0 -1.1004805,-0.0115 -1.1004805,-1.49222 v -5.66459 c 0,-1.48099 1.1004805,-1.49223 1.1004805,-1.49223 h 0.4085994 c 0.437735,0.48372 1.0474749,0.75823 1.6951261,0.75823 h 2.2409784 c 0.6473003,0 1.2573911,-0.27451 1.6951264,-0.75823 h 0.408248 c 0,0 1.10048,0.0112 1.10048,1.49223 v 5.66459 c 0,1.48064 -1.10048,1.49222 -1.10048,1.49222 z m 2.123032,-1.36059 H 39.24911 c -0.459147,0.22642 -0.877927,0.39421 -1.152081,0.49635 H 12.341924 Z m 27.978532,0.49635 h -1.508729 c 0.909519,-0.39139 2.221321,-1.08362 2.857387,-2.03 v 0.52163 c -0.582359,0.35664 -1.149975,1.19596 -1.348658,1.50837"
       fill="#242122"
       id="path1708"
       style="stroke-width:0.351031" />
  </g>
</svg>
