<?xml version="1.0" encoding="UTF-8" standalone="no"?>
<!-- Created with Inkscape (http://www.inkscape.org/) -->

<svg
   width="63.784378mm"
   height="15.875mm"
   viewBox="0 0 63.784378 15.875"
   version="1.1"
   id="svg4348"
   inkscape:version="1.1 (c68e22c387, 2021-05-23)"
   sodipodi:docname="inspiration-bar.svg"
   xmlns:inkscape="http://www.inkscape.org/namespaces/inkscape"
   xmlns:sodipodi="http://sodipodi.sourceforge.net/DTD/sodipodi-0.dtd"
   xmlns="http://www.w3.org/2000/svg"
   xmlns:svg="http://www.w3.org/2000/svg">
  <sodipodi:namedview
     id="namedview4350"
     pagecolor="#ffffff"
     bordercolor="#666666"
     borderopacity="1.0"
     inkscape:pageshadow="2"
     inkscape:pageopacity="0.0"
     inkscape:pagecheckerboard="0"
     inkscape:document-units="mm"
     showgrid="false"
     inkscape:zoom="4.8177329"
     inkscape:cx="107.8308"
     inkscape:cy="55.939174"
     inkscape:window-width="2560"
     inkscape:window-height="1377"
     inkscape:window-x="-8"
     inkscape:window-y="-8"
     inkscape:window-maximized="1"
     inkscape:current-layer="layer1" />
  <defs
     id="defs4345" />
  <g
     inkscape:label="Layer 1"
     inkscape:groupmode="layer"
     id="layer1"
     transform="translate(-2.4642779,-102.67711)">
    <path
       d="m 66.247538,107.0009 -0.222844,-0.10494 c -0.824806,-0.38757 -1.847074,-1.88489 -2.170903,-2.42872 l -0.112835,-0.18955 H 18.33929 v -1.60054 h -3.878063 l -0.148375,0.18616 c -0.249361,0.31311 -0.555702,0.55966 -0.895329,0.73513 -0.839476,-0.36163 -1.725213,-0.56531 -2.619978,-0.61214 -0.07052,-0.14946 -0.219459,-0.255 -0.396043,-0.255 -0.176019,0 -0.325522,0.10559 -0.395479,0.255 -0.894764,0.047 -1.7799374,0.25051 -2.6194137,0.61214 -0.3401909,-0.17547 -0.6465318,-0.42202 -0.8953283,-0.73513 l -0.1483736,-0.1862 H 2.4642779 v 15.875 h 3.8786279 l 0.1483768,-0.18615 c 0.2487965,-0.31254 0.5545733,-0.55966 0.8942001,-0.73455 0.8377837,0.36277 1.7161869,0.56924 2.6227983,0.61551 0.07109,0.14721 0.218896,0.25105 0.393223,0.25105 0.174326,0 0.322702,-0.10383 0.393222,-0.25105 0.907176,-0.0463 1.786143,-0.25274 2.623927,-0.61551 0.339063,0.17489 0.645404,0.42201 0.894201,0.73455 l 0.148375,0.18615 h 3.878063 v -1.60053 h 45.182209 0.220588 l 0.112819,-0.18954 c 0.323832,-0.54443 1.345531,-2.04115 2.170339,-2.4293 l 0.22341,-0.10446 z m -3.862267,7.95413 H 19.469876 v -8.68078 h 42.916525 c 1.307733,0.73738 2.621668,1.73874 3.085976,2.94551 v 2.78808 c -0.463744,1.20733 -1.778243,2.20928 -3.087106,2.94719 M 18.33929,106.27425 h 0.708027 v 8.68078 H 18.33929 Z m 47.132525,1.20337 v 0.83665 c -1.022266,-1.51986 -3.129984,-2.63239 -4.591168,-3.26088 h 2.423648 c 0.319317,0.50156 1.232136,1.85048 2.16752,2.42423 m -5.739805,-2.42423 c 0.441176,0.16418 1.114222,0.43328 1.852714,0.79774 H 18.33929 v -0.79774 z m -49.693266,-1.65015 c 0.0773,0.12182 0.207613,0.20646 0.362758,0.20646 0.15571,0 0.285467,-0.0846 0.363886,-0.20646 0.703512,0.0355 1.400255,0.17318 2.070482,0.4141 -0.20592,0.0508 -0.418045,0.0784 -0.632992,0.0784 H 8.6012547 c -0.2160748,0 -0.4276364,-0.0277 -0.632428,-0.0784 0.6690986,-0.24092 1.366405,-0.37857 2.0699173,-0.4141 m 0.72608,14.42227 c -0.07842,-0.12069 -0.208177,-0.20648 -0.363322,-0.20648 -0.155146,0 -0.284903,0.0856 -0.362193,0.20648 -0.7040773,-0.035 -1.4013837,-0.17262 -2.0704823,-0.41409 0.2047916,-0.0508 0.4163532,-0.0784 0.632428,-0.0784 h 3.6016233 c 0.214947,0 0.427072,0.0277 0.632992,0.0784 -0.670227,0.24147 -1.367533,0.37911 -2.071046,0.41409 m 4.162403,-0.26064 c -0.703513,-0.77741 -1.68403,-1.21916 -2.724349,-1.21916 H 8.6012547 c -1.0408827,0 -2.0208359,0.44175 -2.7243485,1.21916 H 5.2202193 c 0,0 -1.7686543,-0.0185 -1.7686543,-2.39826 v -9.10392 c 0,-2.3802 1.7686543,-2.39826 1.7686543,-2.39826 h 0.6566869 c 0.7035126,0.7774 1.6834658,1.21859 2.7243485,1.21859 h 3.6016233 c 1.040319,0 2.020836,-0.44119 2.724349,-1.21859 h 0.656123 c 0,0 1.768653,0.018 1.768653,2.39826 v 9.10392 c 0,2.37966 -1.768653,2.39826 -1.768653,2.39826 z m 3.412063,-2.18671 h 43.244304 c -0.737925,0.36391 -1.410974,0.63357 -1.851584,0.79773 H 18.33929 Z m 44.966135,0.79773 h -2.424778 c 1.461748,-0.62904 3.570031,-1.74155 4.592295,-3.26256 v 0.83836 c -0.935947,0.57317 -1.848201,1.92209 -2.167517,2.4242"
       fill="#242122"
       id="path1708"
       style="stroke-width:0.564165" />
  </g>
</svg>
