<?xml version="1.0" encoding="UTF-8" standalone="no"?>
<!-- Created with Inkscape (http://www.inkscape.org/) -->

<svg
   width="63.220604mm"
   height="9.2604218mm"
   viewBox="0 0 63.220604 9.2604217"
   version="1.1"
   id="svg5475"
   inkscape:version="1.1 (c68e22c387, 2021-05-23)"
   sodipodi:docname="passive-border.svg"
   xmlns:inkscape="http://www.inkscape.org/namespaces/inkscape"
   xmlns:sodipodi="http://sodipodi.sourceforge.net/DTD/sodipodi-0.dtd"
   xmlns="http://www.w3.org/2000/svg"
   xmlns:svg="http://www.w3.org/2000/svg">
  <sodipodi:namedview
     id="namedview5477"
     pagecolor="#ffffff"
     bordercolor="#666666"
     borderopacity="1.0"
     inkscape:pageshadow="2"
     inkscape:pageopacity="0.0"
     inkscape:pagecheckerboard="0"
     inkscape:document-units="mm"
     showgrid="false"
     inkscape:zoom="0.74118967"
     inkscape:cx="943.75303"
     inkscape:cy="232.73395"
     inkscape:window-width="2560"
     inkscape:window-height="1377"
     inkscape:window-x="-8"
     inkscape:window-y="-8"
     inkscape:window-maximized="1"
     inkscape:current-layer="layer1" />
  <defs
     id="defs5472" />
  <g
     inkscape:label="Layer 1"
     inkscape:groupmode="layer"
     id="layer1"
     transform="translate(144.41318,-86.962491)">
    <path
       d="m -141.89364,87.020606 c -1.57762,1.025365 -2.51954,2.734649 -2.51954,4.572103 0,1.837456 0.94192,3.546739 2.52025,4.572104 l 0.0889,0.0581 h 6.1408 l 0.0889,-0.0581 c 0.33161,-0.215327 0.63323,-0.462782 0.90523,-0.733136 h 51.909128 l 0.07056,-0.114841 c 0.202494,-0.329484 0.841375,-1.23659 1.357489,-1.471399 l 0.139347,-0.06358 -7.06e-4,-4.37831 -0.138994,-0.06358 c -0.516114,-0.234808 -1.154995,-1.142256 -1.357842,-1.471741 l -0.07055,-0.114499 H -134.6684 c -0.2727,-0.270355 -0.57397,-0.517809 -0.90558,-0.733136 l -0.0889,-0.0581 h -6.14151 z m -1.81398,4.572103 c 0,-1.574961 0.79057,-3.0426 2.11984,-3.946631 h 2.84903 c 1.31092,0.561217 3.08575,0.876346 3.9564,1.033227 0.65088,0.827128 1.02271,1.842581 1.02271,2.912379 v 0.002 c 0,1.069797 -0.37218,2.084909 -1.02306,2.912379 -0.87065,0.15688 -2.64548,0.472009 -3.95605,1.033226 h -2.84868 c -1.32927,-0.90403 -2.12019,-2.37167 -2.12019,-3.946631 m 58.440457,-3.369008 c 0.847019,0.304875 3.069872,1.2154 3.588808,2.523765 l 7.05e-4,1.68946 c -0.518936,1.308367 -2.742847,2.219916 -3.589513,2.524792 h -46.152157 c -0.22013,-0.190718 -0.69673,-0.487732 -1.58361,-0.566002 0.25576,-0.419033 0.82126,-1.493957 0.82126,-2.803007 0,-1.30905 -0.5655,-2.383975 -0.82126,-2.803007 0.88688,-0.07827 1.36348,-0.375283 1.58361,-0.566001 z m -48.035987,0.582749 c 0.17427,0.26762 0.8569,1.407485 0.8569,2.786259 0,1.378775 -0.68263,2.518639 -0.8569,2.78626 -0.16757,-0.0045 -0.34784,-0.0014 -0.54151,0.01094 0.50941,-0.83533 0.79057,-1.796439 0.79057,-2.797196 v -0.0011 c 0,-1.000073 -0.28116,-1.961182 -0.79022,-2.796171 0.19332,0.0123 0.37359,0.01538 0.54116,0.01094 m -2.57669,6.73289 h -1.4732 c 0.8883,-0.349991 1.65136,-0.577622 2.30329,-0.715705 -0.24695,0.264203 -0.52247,0.50653 -0.83009,0.715705 m 1.85456,-0.872586 c 1.09078,-0.0957 1.75506,0.100828 2.12971,0.294964 h -2.34985 c 0.0765,-0.09604 0.14958,-0.194478 0.22014,-0.294964 m 50.992611,0.294964 h -1.516239 c 0.914047,-0.380753 2.232378,-1.055101 2.871258,-1.976221 v 0.507556 c -0.585258,0.347599 -1.1557,1.164815 -1.355019,1.468665 m 1.354314,-5.269694 v 0.507214 c -0.638881,-0.92112 -1.956506,-1.594785 -2.870553,-1.975537 h 1.515533 c 0.19932,0.303849 0.770114,1.121066 1.35502,1.468323 m -50.217215,-1.468323 c -0.37465,0.194136 -1.03893,0.390664 -2.12971,0.294963 -0.0702,-0.100486 -0.14323,-0.198921 -0.21979,-0.294963 z m -3.15383,0.138082 c -0.65228,-0.138082 -1.41499,-0.365713 -2.30364,-0.715705 h 1.47356 c 0.30797,0.209174 0.58314,0.451503 0.83008,0.715705"
       id="path183"
       style="stroke-width:0.34724" />
  </g>
</svg>
