<?xml version="1.0" encoding="UTF-8" standalone="no"?>
<!-- Created with Inkscape (http://www.inkscape.org/) -->

<svg
   width="53.577869mm"
   height="15.875048mm"
   viewBox="0 0 53.577869 15.875049"
   version="1.1"
   id="svg5004"
   inkscape:version="1.1 (c68e22c387, 2021-05-23)"
   sodipodi:docname="proficency-bar.svg"
   xmlns:inkscape="http://www.inkscape.org/namespaces/inkscape"
   xmlns:sodipodi="http://sodipodi.sourceforge.net/DTD/sodipodi-0.dtd"
   xmlns="http://www.w3.org/2000/svg"
   xmlns:svg="http://www.w3.org/2000/svg">
  <sodipodi:namedview
     id="namedview5006"
     pagecolor="#ffffff"
     bordercolor="#666666"
     borderopacity="1.0"
     inkscape:pageshadow="2"
     inkscape:pageopacity="0.0"
     inkscape:pagecheckerboard="0"
     inkscape:document-units="mm"
     showgrid="false"
     inkscape:zoom="2"
     inkscape:cx="266.25"
     inkscape:cy="53.75"
     inkscape:window-width="2560"
     inkscape:window-height="1377"
     inkscape:window-x="-8"
     inkscape:window-y="-8"
     inkscape:window-maximized="1"
     inkscape:current-layer="layer1" />
  <defs
     id="defs5001" />
  <g
     inkscape:label="Layer 1"
     inkscape:groupmode="layer"
     id="layer1"
     transform="translate(-29.600055,-285.62805)">
    <path
       d="m 36.869521,285.64073 c -0.09051,0.0356 -0.132934,0.13724 -0.0971,0.224 0.0089,0.0206 0.06223,0.14281 0.159345,0.325 -1.077697,0.0367 -2.09882,0.28874 -3.018586,0.71978 0.880636,-0.10152 2.258634,-0.0266 3.574875,0.22813 0.02263,0 0.03959,-4.6e-4 0.05753,-7.6e-4 0.06931,0.0908 0.14426,0.18316 0.223933,0.2768 -6.00417,-1.36563 -7.565558,1.58551 -7.565558,1.58551 0.527064,-0.52698 1.141812,-0.90246 1.792389,-1.16503 0.198473,-0.0523 0.396004,-0.0955 0.593063,-0.1341 -1.814075,1.35141 -2.989357,3.47537 -2.989357,5.86555 0,2.39019 1.175282,4.51416 2.989357,5.86509 -0.197059,-0.0385 -0.39459,-0.0817 -0.593063,-0.1341 -0.650577,-0.26212 -1.265325,-0.63807 -1.792389,-1.16503 0,0 1.561388,2.95159 7.565558,1.58551 -0.07968,0.0937 -0.154631,0.1859 -0.223933,0.27726 -0.0179,-4.6e-4 -0.03488,-7.6e-4 -0.05753,-7.6e-4 -1.316241,0.25433 -2.694239,0.32913 -3.574875,0.22815 0.919766,0.43057 1.940889,0.68259 3.018586,0.71931 -0.0971,0.18269 -0.150387,0.30435 -0.159345,0.325 -0.03583,0.0871 0.0065,0.1882 0.0971,0.22401 0.09005,0.0364 0.193288,-0.006 0.230059,-0.0941 0.0029,-0.006 1.420428,-2.62754 3.266559,-3.12146 0.548276,-0.14639 1.095139,-0.29469 1.683487,-0.3103 -0.958894,1.00115 -2.235534,1.71082 -3.676235,1.96467 -0.389403,0.37275 -0.558647,0.717 -0.617576,1.0039 1.065911,-0.0772 2.070532,-0.36951 2.970028,-0.83314 l 1.011223,-0.63119 c 0.125873,-0.0918 0.247975,-0.1882 0.367246,-0.28781 h 38.978553 l 0.0943,-0.15422 c 0.271073,-0.44297 1.124367,-1.66081 1.814071,-1.97661 l 0.186689,-0.085 v -3.39914 -3.39963 l -0.186689,-0.0848 c -0.689704,-0.31582 -1.542998,-1.53363 -1.814071,-1.97661 l -0.0943,-0.15424 H 42.104312 c -0.119267,-0.0995 -0.241374,-0.19599 -0.367246,-0.28781 l -1.011223,-0.63117 c -0.899496,-0.46318 -1.904117,-0.75557 -2.970028,-0.83315 0.05893,0.28736 0.228173,0.63118 0.617576,1.00391 1.440701,0.25385 2.717341,0.96352 3.676235,1.96512 -0.588348,-0.0161 -1.135211,-0.16432 -1.683487,-0.31076 -1.846131,-0.49346 -3.263731,-3.11501 -3.266559,-3.12143 -0.03677,-0.0876 -0.140015,-0.13036 -0.230059,-0.0941 m 5.906112,12.90852 c 0.152744,-0.16111 0.297945,-0.32911 0.435606,-0.50308 0.577504,0.0929 1.175281,0.25568 1.796159,0.50308 z m 39.754059,-1.97241 c -0.782578,0.46684 -1.544885,1.56393 -1.811245,1.97246 h -2.02669 c 1.221484,-0.51135 2.9837,-1.41704 3.837935,-2.65415 z m -1.811245,-7.99549 c 0.26636,0.40855 1.028667,1.5061 1.811245,1.97248 v 0.68168 c -0.854235,-1.23711 -2.616451,-2.14234 -3.837935,-2.65416 z m -37.942814,0 h 2.231765 c -0.620878,0.24743 -1.218655,0.41084 -1.796159,0.50311 -0.137661,-0.17399 -0.282862,-0.34152 -0.435606,-0.50311 m 3.090243,7.4e-4 9.75e-4,-7.4e-4 h 31.865102 c 1.131908,0.41039 4.103822,1.63463 4.797298,3.39089 v 1.59332 1.59285 c -0.693476,1.75672 -3.66539,2.98098 -4.797298,3.39089 H 45.86682 l -9.75e-4,-7.6e-4 c -0.840565,-0.40349 -1.648129,-0.67066 -2.422223,-0.81388 0.841038,-1.1866 1.336042,-2.62108 1.336042,-4.16895 0,-1.54786 -0.495004,-2.98235 -1.336042,-4.16894 0.774094,-0.14371 1.581658,-0.41085 2.422223,-0.81435 m -7.328425,-0.40628 c 0.463417,0.39111 1.024423,0.751 1.699986,1.00071 0.667078,0.2465 1.376583,0.35347 2.121449,0.33508 0.921651,1.10949 1.477943,2.51781 1.477943,4.05375 0,1.53548 -0.556292,2.94425 -1.477943,4.05376 -0.744866,-0.0185 -1.454371,0.0881 -2.121449,0.33461 -0.675563,0.24972 -1.236569,0.6096 -1.699986,1.00072 -0.657178,0.22399 -2.027633,0.61327 -3.683307,0.65686 -2.513681,-0.92312 -4.311256,-3.27933 -4.311256,-6.04595 0,-2.76708 1.797575,-5.12282 4.311256,-6.04595 1.655674,0.0432 3.026129,0.43241 3.683307,0.65641"
       id="path181"
       style="stroke-width:0.465192" />
  </g>
</svg>
