<?xml version="1.0" encoding="UTF-8" standalone="no"?>
<!-- Created with Inkscape (http://www.inkscape.org/) -->

<svg
   width="39.687492mm"
   height="12.076908mm"
   viewBox="0 0 39.687492 12.076909"
   version="1.1"
   id="svg5004"
   inkscape:version="1.1 (c68e22c387, 2021-05-23)"
   sodipodi:docname="Proficency.svg"
   xmlns:inkscape="http://www.inkscape.org/namespaces/inkscape"
   xmlns:sodipodi="http://sodipodi.sourceforge.net/DTD/sodipodi-0.dtd"
   xmlns="http://www.w3.org/2000/svg"
   xmlns:svg="http://www.w3.org/2000/svg">
  <sodipodi:namedview
     id="namedview5006"
     pagecolor="#ffffff"
     bordercolor="#666666"
     borderopacity="1.0"
     inkscape:pageshadow="2"
     inkscape:pageopacity="0.0"
     inkscape:pagecheckerboard="0"
     inkscape:document-units="mm"
     showgrid="false"
     inkscape:zoom="2.4088664"
     inkscape:cx="148.61762"
     inkscape:cy="84.47957"
     inkscape:window-width="2560"
     inkscape:window-height="1377"
     inkscape:window-x="-8"
     inkscape:window-y="-8"
     inkscape:window-maximized="1"
     inkscape:current-layer="layer1" />
  <defs
     id="defs5001" />
  <g
     inkscape:label="Layer 1"
     inkscape:groupmode="layer"
     id="layer1"
     transform="translate(-29.600042,-285.62764)">
    <path
       d="m 34.984865,285.63751 c -0.06705,0.0272 -0.09847,0.10441 -0.07193,0.17042 0.0066,0.0157 0.0461,0.1086 0.118033,0.24723 -0.798297,0.0279 -1.554688,0.21966 -2.235999,0.54757 0.652326,-0.0772 1.67307,-0.0203 2.648067,0.17356 0.01676,0 0.02933,-3.5e-4 0.04261,-7e-4 0.05134,0.0692 0.106859,0.13933 0.165876,0.21057 -4.447553,-1.0389 -5.604141,1.20618 -5.604141,1.20618 0.390419,-0.4009 0.84579,-0.68655 1.327701,-0.8863 0.147018,-0.0398 0.293338,-0.0727 0.439308,-0.10197 -1.343765,1.02808 -2.214348,2.64388 -2.214348,4.46222 0,1.81834 0.870583,3.43414 2.214348,4.46187 -0.14597,-0.0293 -0.29229,-0.0622 -0.439308,-0.10196 -0.481911,-0.19941 -0.937282,-0.48542 -1.327701,-0.8863 0,0 1.156588,2.24542 5.604141,1.20617 -0.05902,0.0713 -0.114541,0.14143 -0.165876,0.21092 -0.01326,-3.4e-4 -0.02584,-7e-4 -0.04261,-7e-4 -0.974997,0.19347 -1.995741,0.25038 -2.648067,0.17356 0.681311,0.32756 1.437702,0.51928 2.235999,0.54722 -0.07193,0.13898 -0.111398,0.23153 -0.118033,0.24724 -0.02654,0.0663 0.0048,0.14317 0.07193,0.17041 0.0667,0.0276 0.143177,-0.005 0.170415,-0.0716 0.0021,-0.005 1.052173,-1.99889 2.419684,-2.37464 0.406132,-0.1114 0.811217,-0.22419 1.247033,-0.23607 -0.710296,0.76163 -1.655959,1.30151 -2.723149,1.49462 -0.288448,0.28357 -0.413815,0.54547 -0.457466,0.76373 0.789567,-0.0587 1.533735,-0.28111 2.20003,-0.63382 l 0.749058,-0.48017 c 0.09324,-0.0698 0.183686,-0.14317 0.272035,-0.21895 h 28.873128 l 0.06985,-0.11733 c 0.200796,-0.33699 0.832868,-1.26345 1.343764,-1.50371 l 0.138288,-0.0646 v -2.58589 -2.58627 l -0.138288,-0.0646 c -0.510896,-0.24026 -1.142968,-1.16671 -1.343764,-1.5037 l -0.06985,-0.11734 H 38.862505 c -0.08835,-0.0757 -0.178796,-0.14911 -0.272035,-0.21896 l -0.749058,-0.48016 c -0.666295,-0.35236 -1.410463,-0.5748 -2.20003,-0.63382 0.04365,0.21861 0.169018,0.48017 0.457466,0.76373 1.06719,0.19311 2.012853,0.73299 2.723149,1.49497 -0.435816,-0.0122 -0.840901,-0.12502 -1.247033,-0.23641 -1.367511,-0.37541 -2.417589,-2.36975 -2.419684,-2.37464 -0.02724,-0.0667 -0.103715,-0.0992 -0.170415,-0.0716 m 4.374917,9.82016 c 0.113145,-0.12257 0.220701,-0.25038 0.322672,-0.38273 0.427783,0.0706 0.870583,0.19451 1.330494,0.38273 z m 29.44758,-1.50052 c -0.57969,0.35514 -1.144365,1.18976 -1.341669,1.50055 h -1.501259 c 0.904807,-0.38901 2.210158,-1.07801 2.842928,-2.01914 z m -1.341669,-6.08257 c 0.197304,0.31081 0.761979,1.14577 1.341669,1.50057 v 0.51858 c -0.63277,-0.94113 -1.938121,-1.62978 -2.842928,-2.01915 z m -28.105911,0 h 1.653166 c -0.459911,0.18823 -0.902711,0.31255 -1.330494,0.38274 -0.101971,-0.13235 -0.209527,-0.25981 -0.322672,-0.38274 m 2.289079,7e-4 6.99e-4,-7e-4 h 23.603881 c 0.838455,0.3122 3.039882,1.24355 3.553572,2.57962 v 1.21212 1.21176 c -0.51369,1.33643 -2.715117,2.26778 -3.553572,2.57962 H 41.64956 l -6.99e-4,-6.9e-4 c -0.622644,-0.30696 -1.220842,-0.5102 -1.794247,-0.61916 0.622994,-0.90271 0.989665,-1.99399 0.989665,-3.17153 0,-1.17754 -0.366671,-2.26882 -0.989665,-3.17153 0.573405,-0.10931 1.171603,-0.31255 1.794247,-0.61951 m -5.428487,-0.30905 c 0.343274,0.29753 0.758836,0.57132 1.259255,0.76129 0.494134,0.18752 1.019696,0.26889 1.57145,0.25491 0.682708,0.84405 1.094778,1.91543 1.094778,3.08389 0,1.16811 -0.41207,2.23984 -1.094778,3.08389 -0.551754,-0.014 -1.077316,0.067 -1.57145,0.25457 -0.500419,0.18997 -0.915981,0.46375 -1.259255,0.76128 -0.4868,0.17041 -1.501957,0.46655 -2.728387,0.49972 -1.861994,-0.70226 -3.193536,-2.49476 -3.193536,-4.59946 0,-2.10505 1.331542,-3.89719 3.193536,-4.59946 1.22643,0.0329 2.241587,0.32896 2.728387,0.49937"
       id="path181"
       style="stroke-width:0.349211" />
  </g>
</svg>
