<?xml version="1.0" encoding="UTF-8" standalone="no"?>
<!-- Created with Inkscape (http://www.inkscape.org/) -->

<svg
   width="79.375mm"
   height="26.458651mm"
   viewBox="0 0 79.375 26.458651"
   version="1.1"
   id="svg2016"
   inkscape:version="1.1 (c68e22c387, 2021-05-23)"
   sodipodi:docname="right-info-bar-2.svg"
   xmlns:inkscape="http://www.inkscape.org/namespaces/inkscape"
   xmlns:sodipodi="http://sodipodi.sourceforge.net/DTD/sodipodi-0.dtd"
   xmlns="http://www.w3.org/2000/svg"
   xmlns:svg="http://www.w3.org/2000/svg">
  <sodipodi:namedview
     id="namedview2018"
     pagecolor="#ffffff"
     bordercolor="#666666"
     borderopacity="1.0"
     inkscape:pageshadow="2"
     inkscape:pageopacity="0.0"
     inkscape:pagecheckerboard="0"
     inkscape:document-units="mm"
     showgrid="false"
     inkscape:zoom="0.74118967"
     inkscape:cx="109.95836"
     inkscape:cy="33.054967"
     inkscape:window-width="2560"
     inkscape:window-height="1377"
     inkscape:window-x="-8"
     inkscape:window-y="-8"
     inkscape:window-maximized="1"
     inkscape:current-layer="layer1" />
  <defs
     id="defs2013" />
  <g
     inkscape:label="Layer 1"
     inkscape:groupmode="layer"
     id="layer1"
     transform="translate(-76.03442,-139.9118)">
    <path
       d="m 153.78522,139.9139 -0.0688,0.13687 c -0.0144,0.0293 -0.3383,0.64146 -1.19586,0.76868 -0.0814,-0.1188 -0.20405,-0.20122 -0.3489,-0.20122 -0.141,0 -0.26035,0.0766 -0.34215,0.18898 -0.61021,-0.0862 -1.30079,-0.36623 -2.06692,-0.85973 l -0.0558,-0.0356 H 81.737059 l -0.05582,0.0356 c -0.766609,0.4935 -1.456699,0.7735 -2.066907,0.85973 -0.08132,-0.1123 -0.201636,-0.18898 -0.341677,-0.18898 -0.145333,0 -0.268048,0.0826 -0.349376,0.20122 -0.857562,-0.12717 -1.180952,-0.7394 -1.194909,-0.76656 l -0.06785,-0.14109 h -1.6261 v 26.45756 l 1.62417,-0.001 0.06882,-0.13687 c 0.01444,-0.0292 0.338308,-0.64147 1.195871,-0.76869 0.08132,0.11921 0.204042,0.20123 0.348893,0.20123 0.140523,0 0.26035,-0.0766 0.342159,-0.18899 0.610207,0.0863 1.300299,0.36626 2.066907,0.85973 l 0.05582,0.0356 h 67.96969 l 0.0558,-0.0356 c 0.76613,-0.49347 1.4567,-0.7735 2.06691,-0.85973 0.0809,0.1123 0.20116,0.18899 0.34168,0.18899 0.14485,0 0.26804,-0.0819 0.34938,-0.20123 0.85755,0.12717 1.18095,0.73942 1.19442,0.76656 l 0.0684,0.14109 h 1.62608 v -26.45756 z m -77.269566,7.07418 c 0.309435,2.45407 0.466318,4.67124 0.466318,6.61426 v -0.92359 c 0,1.94303 -0.156883,4.1602 -0.466318,6.61425 z m 78.412506,18.84891 h -0.87104 c -0.17325,-0.26031 -0.63282,-0.79425 -1.50771,-0.90976 -0.0775,-0.14531 -0.21464,-0.24861 -0.37826,-0.24861 -0.17035,0 -0.31376,0.10977 -0.38835,0.26511 -0.66363,0.0916 -1.40039,0.38329 -2.20551,0.89326 H 81.866511 c -0.805107,-0.50997 -1.541879,-0.8017 -2.205501,-0.89326 -0.07459,-0.15543 -0.218,-0.26511 -0.388839,-0.26511 -0.16362,0 -0.300773,0.10327 -0.377769,0.24861 -0.874886,0.11548 -1.334467,0.64945 -1.507712,0.90976 h -0.871036 v -4.78888 c 0.467281,-3.15568 0.706935,-5.97067 0.706935,-8.36936 v 0.92359 c 0,-2.39869 -0.239654,-5.21368 -0.706935,-8.36934 v -4.78889 h 0.871036 c 0.173245,0.26029 0.632826,0.79423 1.507712,0.90974 0.07748,0.14593 0.214149,0.24862 0.37825,0.24862 0.170358,0 0.313765,-0.10978 0.388358,-0.2651 0.663622,-0.0916 1.400394,-0.38329 2.205501,-0.89326 h 67.710779 c 0.80512,0.50997 1.54188,0.80169 2.20551,0.89326 0.0746,0.15544 0.218,0.2651 0.38884,0.2651 0.16313,0 0.30076,-0.10275 0.37777,-0.24862 0.87489,-0.11548 1.33446,-0.64945 1.50771,-0.90974 h 0.87104 v 4.78889 c -0.46777,3.15566 -0.70694,5.97065 -0.70694,8.36934 v -0.92359 c 0,2.39869 0.23917,5.21368 0.70694,8.36936 z m 0,-6.54399 c -0.30944,-2.45405 -0.46632,-4.67122 -0.46632,-6.61425 v 0.92359 c 0,-1.94302 0.15688,-4.16019 0.46632,-6.61426 z"
       id="path149"
       style="stroke-width:0.50614" />
  </g>
</svg>
