<?xml version="1.0" encoding="UTF-8" standalone="no"?>
<!-- Created with Inkscape (http://www.inkscape.org/) -->

<svg
   width="79.374977mm"
   height="26.45837mm"
   viewBox="0 0 79.374977 26.458371"
   version="1.1"
   id="svg1750"
   inkscape:version="1.1 (c68e22c387, 2021-05-23)"
   sodipodi:docname="right-info-bar-1.svg"
   xmlns:inkscape="http://www.inkscape.org/namespaces/inkscape"
   xmlns:sodipodi="http://sodipodi.sourceforge.net/DTD/sodipodi-0.dtd"
   xmlns="http://www.w3.org/2000/svg"
   xmlns:svg="http://www.w3.org/2000/svg">
  <sodipodi:namedview
     id="namedview1752"
     pagecolor="#ffffff"
     bordercolor="#666666"
     borderopacity="1.0"
     inkscape:pageshadow="2"
     inkscape:pageopacity="0.0"
     inkscape:pagecheckerboard="0"
     inkscape:document-units="mm"
     showgrid="false"
     inkscape:zoom="0.74118967"
     inkscape:cx="109.95836"
     inkscape:cy="42.499243"
     inkscape:window-width="2560"
     inkscape:window-height="1377"
     inkscape:window-x="-8"
     inkscape:window-y="-8"
     inkscape:window-maximized="1"
     inkscape:current-layer="layer1" />
  <defs
     id="defs1747" />
  <g
     inkscape:label="Layer 1"
     inkscape:groupmode="layer"
     id="layer1"
     transform="translate(-76.03425,-137.40812)">
    <path
       d="m 155.23979,139.04041 c -0.54909,-0.14657 -1.97306,-0.6882 -1.97306,-1.42525 v -0.20704 H 78.177177 v 0.20704 c 0,0.73499 -1.424929,1.27826 -1.973534,1.42525 l -0.169393,0.0452 v 24.7802 l 1.624158,-9.8e-4 0.0693,-0.10646 c 0.01396,-0.0231 0.337825,-0.49896 1.195381,-0.59792 0.08133,0.0924 0.204042,0.1561 0.349373,0.1561 0.140521,0 0.260348,-0.0592 0.342157,-0.14658 0.609723,0.0671 1.30029,0.28446 2.066893,0.66832 l 0.05582,0.0282 H 149.7061 l 0.0558,-0.0282 c 0.76662,-0.38386 1.45718,-0.60124 2.0669,-0.66832 0.0814,0.0872 0.20164,0.14658 0.34167,0.14658 0.14533,0 0.26853,-0.0637 0.34985,-0.1561 0.85756,0.099 1.18095,0.57475 1.19443,0.59628 l 0.0684,0.10973 h 1.62608 v -24.78019 z m -0.77816,2.12383 c 0.25651,0.3855 0.41434,0.67453 0.46631,0.77184 v 16.4253 c -0.30991,-1.90932 -0.46631,-3.63396 -0.46631,-5.14493 z m -1.65303,-3.34203 c 0.19731,0.88571 1.61983,1.40661 2.11934,1.56356 v 1.63603 c -0.60972,-0.93996 -1.80413,-2.46957 -3.48796,-3.19959 z m -74.172809,0 h 1.367181 c -1.5658,0.76261 -2.634462,1.89354 -3.487492,3.19959 v -1.63603 c 0.49904,-0.15695 1.922524,-0.67785 2.120311,-1.56356 m -2.120311,4.11387 c 0.05198,-0.0977 0.209818,-0.38675 0.466316,-0.77268 v 12.05305 c 0,1.51097 -0.156401,3.23561 -0.466316,5.14493 z m 77.54096,21.51558 c -0.17278,-0.20289 -0.63234,-0.61822 -1.50771,-0.70766 -0.0775,-0.1135 -0.21414,-0.19338 -0.37825,-0.19338 -0.17035,0 -0.31327,0.0853 -0.38835,0.20622 -0.66314,0.0712 -1.40039,0.29814 -2.20549,0.69482 H 81.866303 c -0.805102,-0.39668 -1.541869,-0.6236 -2.205487,-0.69482 -0.07459,-0.12091 -0.217999,-0.20622 -0.388355,-0.20622 -0.163618,0 -0.30077,0.0799 -0.377767,0.19338 -0.875362,0.0894 -1.334938,0.50477 -1.507701,0.70766 H 76.51548 v -3.72506 c 0.467759,-2.45466 0.706932,-4.64431 0.706932,-6.51015 v -12.40086 c 0.885467,-1.22858 2.537538,-2.99338 4.722332,-2.99338 h 67.553466 c 2.18334,0 3.83687,1.76603 4.72282,2.99462 v 12.39962 c 0,1.86584 0.23916,4.05549 0.70691,6.51015 v 3.72506 z"
       id="path155"
       sodipodi:nodetypes="csccsccccccsccccccscccccccccscccccccccccccsccccsccccsccccscsscsccc"
       style="stroke-width:0.446396" />
  </g>
</svg>
