<?xml version="1.0" encoding="UTF-8" standalone="no"?>
<!-- Created with Inkscape (http://www.inkscape.org/) -->

<svg
   width="66.145889mm"
   height="19.932171mm"
   viewBox="0 0 66.145889 19.932171"
   version="1.1"
   id="svg2016"
   inkscape:version="1.1 (c68e22c387, 2021-05-23)"
   sodipodi:docname="right-info-bar-2.svg"
   xmlns:inkscape="http://www.inkscape.org/namespaces/inkscape"
   xmlns:sodipodi="http://sodipodi.sourceforge.net/DTD/sodipodi-0.dtd"
   xmlns="http://www.w3.org/2000/svg"
   xmlns:svg="http://www.w3.org/2000/svg">
  <sodipodi:namedview
     id="namedview2018"
     pagecolor="#ffffff"
     bordercolor="#666666"
     borderopacity="1.0"
     inkscape:pageshadow="2"
     inkscape:pageopacity="0.0"
     inkscape:pagecheckerboard="0"
     inkscape:document-units="mm"
     showgrid="false"
     inkscape:zoom="0.74118967"
     inkscape:cx="109.95836"
     inkscape:cy="33.054967"
     inkscape:window-width="1920"
     inkscape:window-height="1017"
     inkscape:window-x="-8"
     inkscape:window-y="-8"
     inkscape:window-maximized="1"
     inkscape:current-layer="layer1" />
  <defs
     id="defs2013" />
  <g
     inkscape:label="Layer 1"
     inkscape:groupmode="layer"
     id="layer1"
     transform="translate(-76.03442,-139.9118)">
    <path
       d="m 140.82681,139.91338 -0.0573,0.10311 c -0.012,0.0221 -0.28192,0.48324 -0.99655,0.57908 -0.0678,-0.0895 -0.17004,-0.15159 -0.29075,-0.15159 -0.1175,0 -0.21696,0.0577 -0.28513,0.14237 -0.50851,-0.0649 -1.08399,-0.2759 -1.72243,-0.64767 l -0.0465,-0.0268 H 80.786623 l -0.04652,0.0268 c -0.638841,0.37177 -1.213917,0.58271 -1.722424,0.64767 -0.06777,-0.0846 -0.16803,-0.14237 -0.284731,-0.14237 -0.121111,0 -0.223373,0.0622 -0.291147,0.15159 -0.714635,-0.0958 -0.984127,-0.55702 -0.995758,-0.57748 l -0.05654,-0.10629 H 76.03442 v 19.93159 l 1.353476,-0.001 0.05735,-0.10311 c 0.01203,-0.022 0.281924,-0.48324 0.99656,-0.57908 0.06777,0.0898 0.170035,0.15159 0.290745,0.15159 0.117102,0 0.216958,-0.0577 0.285132,-0.14237 0.508507,0.065 1.083584,0.27592 1.722424,0.64767 l 0.04652,0.0268 h 56.641453 l 0.0465,-0.0268 c 0.63844,-0.37175 1.21392,-0.58271 1.72243,-0.64767 0.0674,0.0846 0.16763,0.14237 0.28473,0.14237 0.12071,0 0.22337,-0.0617 0.29115,-0.15159 0.71463,0.0958 0.98413,0.55703 0.99535,0.57748 l 0.057,0.10629 h 1.35507 v -19.93159 z m -64.391361,5.32928 c 0.257862,1.84875 0.388598,3.51904 0.388598,4.9828 v -0.69578 c 0,1.46376 -0.130736,3.13405 -0.388598,4.98279 z m 65.343811,14.19967 h -0.72587 c -0.14437,-0.1961 -0.52735,-0.59834 -1.25642,-0.68536 -0.0646,-0.10947 -0.17887,-0.18729 -0.31522,-0.18729 -0.14196,0 -0.26147,0.0827 -0.32363,0.19972 -0.55302,0.069 -1.16699,0.28875 -1.83792,0.67293 H 80.8945 c -0.670923,-0.38418 -1.2849,-0.60395 -1.837919,-0.67293 -0.06216,-0.11709 -0.181667,-0.19972 -0.324033,-0.19972 -0.13635,0 -0.250644,0.0778 -0.314808,0.18729 -0.729072,0.087 -1.112056,0.48926 -1.256427,0.68536 h -0.725864 v -3.60766 c 0.389401,-2.37731 0.589113,-4.49796 0.589113,-6.30499 v 0.69578 c 0,-1.80704 -0.199712,-3.92769 -0.589113,-6.30498 v -3.60767 h 0.725864 c 0.144371,0.19609 0.527355,0.59833 1.256427,0.68535 0.06457,0.10993 0.178458,0.18729 0.315209,0.18729 0.141965,0 0.261471,-0.0827 0.323632,-0.19971 0.553019,-0.069 1.166996,-0.28875 1.837919,-0.67293 h 56.4257 c 0.67093,0.38418 1.2849,0.60395 1.83792,0.67293 0.0622,0.1171 0.18167,0.19971 0.32404,0.19971 0.13594,0 0.25063,-0.0774 0.31481,-0.18729 0.72907,-0.087 1.11205,-0.48926 1.25642,-0.68535 h 0.72587 v 3.60767 c -0.38981,2.37729 -0.58912,4.49794 -0.58912,6.30498 v -0.69578 c 0,1.80703 0.19931,3.92768 0.58912,6.30499 z m 0,-4.92986 c -0.25787,-1.84874 -0.3886,-3.51903 -0.3886,-4.98279 v 0.69578 c 0,-1.46376 0.13073,-3.13405 0.3886,-4.9828 z"
       id="path149"
       style="stroke-width:0.40103" />
  </g>
</svg>
