<?xml version="1.0" encoding="UTF-8" standalone="no"?>
<!-- Created with Inkscape (http://www.inkscape.org/) -->

<svg
   width="66.145889mm"
   height="22.54118mm"
   viewBox="0 0 66.145889 22.54118"
   version="1.1"
   id="svg1750"
   inkscape:version="1.1 (c68e22c387, 2021-05-23)"
   sodipodi:docname="right-info-bar-1.svg"
   xmlns:inkscape="http://www.inkscape.org/namespaces/inkscape"
   xmlns:sodipodi="http://sodipodi.sourceforge.net/DTD/sodipodi-0.dtd"
   xmlns="http://www.w3.org/2000/svg"
   xmlns:svg="http://www.w3.org/2000/svg">
  <sodipodi:namedview
     id="namedview1752"
     pagecolor="#ffffff"
     bordercolor="#666666"
     borderopacity="1.0"
     inkscape:pageshadow="2"
     inkscape:pageopacity="0.0"
     inkscape:pagecheckerboard="0"
     inkscape:document-units="mm"
     showgrid="false"
     inkscape:zoom="0.74118967"
     inkscape:cx="109.95836"
     inkscape:cy="42.499243"
     inkscape:window-width="1920"
     inkscape:window-height="1017"
     inkscape:window-x="-8"
     inkscape:window-y="-8"
     inkscape:window-maximized="1"
     inkscape:current-layer="layer1" />
  <defs
     id="defs1747" />
  <g
     inkscape:label="Layer 1"
     inkscape:groupmode="layer"
     id="layer1"
     transform="translate(-76.03425,-137.40812)">
    <path
       d="m 142.03893,138.79877 c -0.45757,-0.12488 -1.64421,-0.58632 -1.64421,-1.21426 v -0.17639 H 77.820024 v 0.17639 c 0,0.62618 -1.187442,1.08902 -1.644613,1.21426 l -0.141161,0.0385 v 21.11164 l 1.353467,-0.001 0.05775,-0.0907 c 0.01163,-0.0197 0.281521,-0.4251 0.996152,-0.50941 0.06777,0.0787 0.170035,0.133 0.291145,0.133 0.1171,0 0.216956,-0.0504 0.28513,-0.12489 0.508103,0.0572 1.083577,0.24236 1.722413,0.56939 l 0.04652,0.024 h 56.640693 l 0.0465,-0.024 c 0.63885,-0.32703 1.21432,-0.51224 1.72242,-0.56939 0.0678,0.0744 0.16803,0.12489 0.28472,0.12489 0.12111,0 0.22378,-0.0543 0.29155,-0.133 0.71463,0.0843 0.98412,0.48966 0.99536,0.508 l 0.057,0.0935 h 1.35507 v -21.11164 z m -0.64846,1.8094 c 0.21375,0.32843 0.34528,0.57467 0.38859,0.65757 v 13.99364 c -0.25826,-1.62666 -0.38859,-3.09598 -0.38859,-4.38326 z m -1.37753,-2.84727 c 0.16443,0.75459 1.34986,1.19838 1.76612,1.33209 v 1.39382 c -0.5081,-0.8008 -1.50344,-2.10396 -2.90664,-2.72591 z m -61.810737,0 h 1.139319 c -1.304835,0.64972 -2.195388,1.61322 -2.906246,2.72591 v -1.39382 c 0.415866,-0.13371 1.602105,-0.5775 1.766927,-1.33209 m -1.766927,3.50484 c 0.04331,-0.0832 0.174848,-0.32949 0.388596,-0.65828 v 10.26866 c 0,1.28728 -0.130334,2.7566 -0.388596,4.38326 z m 64.617534,18.33034 c -0.14398,-0.17286 -0.52695,-0.5267 -1.25642,-0.6029 -0.0646,-0.0967 -0.17846,-0.16475 -0.31522,-0.16475 -0.14196,0 -0.26105,0.0727 -0.32362,0.17569 -0.55262,0.0607 -1.16699,0.254 -1.83791,0.59196 H 80.894299 c -0.670919,-0.33796 -1.284892,-0.53129 -1.837908,-0.59196 -0.06216,-0.10301 -0.181665,-0.17569 -0.323629,-0.17569 -0.136349,0 -0.250642,0.0681 -0.314806,0.16475 -0.729469,0.0762 -1.11245,0.43004 -1.256419,0.6029 h -0.726261 v -3.17359 c 0.389799,-2.09127 0.58911,-3.95676 0.58911,-5.54637 v -10.56499 c 0.73789,-1.04669 2.114617,-2.55023 3.935281,-2.55023 h 56.294613 c 1.81945,0 3.19739,1.50459 3.93568,2.55129 v 10.56393 c 0,1.58961 0.19931,3.4551 0.5891,5.54637 v 3.17359 z"
       id="path155"
       sodipodi:nodetypes="csccsccccccsccccccscccccccccscccccccccccccsccccsccccsccccscsscsccc"
       style="stroke-width:0.37613" />
  </g>
</svg>
