<?xml version="1.0" encoding="UTF-8" standalone="no"?>
<!-- Created with Inkscape (http://www.inkscape.org/) -->

<svg
   width="79.374977mm"
   height="26.45858mm"
   viewBox="0 0 79.374977 26.45858"
   version="1.1"
   id="svg2457"
   inkscape:version="1.1 (c68e22c387, 2021-05-23)"
   sodipodi:docname="right-info-bar-4.svg"
   xmlns:inkscape="http://www.inkscape.org/namespaces/inkscape"
   xmlns:sodipodi="http://sodipodi.sourceforge.net/DTD/sodipodi-0.dtd"
   xmlns="http://www.w3.org/2000/svg"
   xmlns:svg="http://www.w3.org/2000/svg">
  <sodipodi:namedview
     id="namedview2459"
     pagecolor="#ffffff"
     bordercolor="#666666"
     borderopacity="1.0"
     inkscape:pageshadow="2"
     inkscape:pageopacity="0.0"
     inkscape:pagecheckerboard="0"
     inkscape:document-units="mm"
     showgrid="false"
     inkscape:zoom="0.74118967"
     inkscape:cx="31.705785"
     inkscape:cy="-139.64037"
     inkscape:window-width="2560"
     inkscape:window-height="1377"
     inkscape:window-x="-8"
     inkscape:window-y="-8"
     inkscape:window-maximized="1"
     inkscape:current-layer="layer1" />
  <defs
     id="defs2454" />
  <g
     inkscape:label="Layer 1"
     inkscape:groupmode="layer"
     id="layer1"
     transform="translate(-96.917102,-185.78168)">
    <path
       d="m 97.086442,210.14181 c 0.549086,0.18844 1.973053,0.88474 1.973053,1.83229 v 0.26616 h 75.089655 v -0.26616 c 0,-0.94489 1.42493,-1.6433 1.97353,-1.83229 l 0.1694,-0.0581 v -24.30094 l -1.62417,0.001 -0.0693,0.13687 c -0.0139,0.0297 -0.33783,0.64145 -1.19538,0.76922 -0.0814,-0.11921 -0.20406,-0.20123 -0.34939,-0.20123 -0.14051,0 -0.26033,0.0762 -0.34213,0.18844 -0.60972,-0.0863 -1.30031,-0.3657 -2.06689,-0.85918 l -0.0558,-0.0362 h -67.96885 l -0.0558,0.0362 c -0.76661,0.49348 -1.45718,0.77294 -2.0669,0.85918 -0.0813,-0.1123 -0.20164,-0.18844 -0.34168,-0.18844 -0.14533,0 -0.268523,0.0819 -0.349852,0.20123 -0.857556,-0.12783 -1.180945,-0.73942 -1.19442,-0.76709 l -0.06833,-0.14109 h -1.626086 v 24.30093 z m 0.778153,-2.73032 c -0.256497,-0.4956 -0.414343,-0.86717 -0.466315,-0.99226 v -13.56009 c 0.309912,2.45458 0.466315,4.67173 0.466315,6.61422 z m 1.653033,4.29644 c -0.197305,-1.13865 -1.619829,-1.80832 -2.119348,-2.01008 v -2.10323 c 0.60972,1.20837 1.804142,3.17481 3.48799,4.11331 z m 74.172902,0 h -1.36717 c 1.68334,-0.9385 2.87777,-2.90494 3.48749,-4.11331 v 2.10323 c -0.49904,0.20176 -1.92254,0.87143 -2.12032,2.01008 m 2.12032,-5.2887 c -0.052,0.12557 -0.20982,0.4972 -0.46632,0.99332 v -7.93919 c 0,-1.94249 0.1564,-4.15964 0.46632,-6.61422 z M 98.269792,186.31519 c 0.172764,0.26084 0.63234,0.79478 1.507702,0.90976 0.07748,0.14593 0.214148,0.24859 0.378246,0.24859 0.17036,0 0.31329,-0.10965 0.38836,-0.2651 0.66314,-0.0916 1.40039,-0.38328 2.20548,-0.89325 h 67.71044 c 0.8051,0.50997 1.54187,0.80169 2.20549,0.89325 0.0747,0.15544 0.21799,0.2651 0.38834,0.2651 0.16364,0 0.30078,-0.10274 0.37779,-0.24859 0.87536,-0.11495 1.33493,-0.64892 1.5077,-0.90976 h 0.87151 v 4.78938 c -0.46776,3.15514 -0.70693,5.9701 -0.70693,8.36879 v 8.38634 c -0.88548,1.57943 -2.53754,3.84823 -4.72235,3.84823 h -67.55353 c -2.18337,0 -3.83688,-2.27038 -4.722828,-3.84982 v -8.38475 c 0,-2.39869 -0.239174,-5.21365 -0.706932,-8.36879 v -4.78938 z"
       id="path153"
       style="stroke-width:0.506138" />
  </g>
</svg>
