<?xml version="1.0" encoding="UTF-8" standalone="no"?>
<!-- Created with Inkscape (http://www.inkscape.org/) -->

<svg
   width="66.145874mm"
   height="157.86877mm"
   viewBox="0 0 66.145873 157.86877"
   version="1.1"
   id="svg6987"
   sodipodi:docname="skill-border.svg"
   inkscape:version="1.1 (c68e22c387, 2021-05-23)"
   xmlns:inkscape="http://www.inkscape.org/namespaces/inkscape"
   xmlns:sodipodi="http://sodipodi.sourceforge.net/DTD/sodipodi-0.dtd"
   xmlns="http://www.w3.org/2000/svg"
   xmlns:svg="http://www.w3.org/2000/svg">
  <sodipodi:namedview
     id="namedview6989"
     pagecolor="#ffffff"
     bordercolor="#666666"
     borderopacity="1.0"
     inkscape:pageshadow="2"
     inkscape:pageopacity="0.0"
     inkscape:pagecheckerboard="0"
     inkscape:document-units="mm"
     showgrid="false"
     inkscape:zoom="2"
     inkscape:cx="81.5"
     inkscape:cy="152.75"
     inkscape:window-width="2560"
     inkscape:window-height="1377"
     inkscape:window-x="-8"
     inkscape:window-y="-8"
     inkscape:window-maximized="1"
     inkscape:current-layer="layer1" />
  <defs
     id="defs6984" />
  <g
     inkscape:label="Layer 1"
     inkscape:groupmode="layer"
     id="layer1"
     transform="translate(-27.166613,-41.387961)">
    <path
       d="M 91.96522,175.50459 91.96412,65.152253 c 0.181916,-3.016834 0.620617,-9.130469 1.299367,-11.380021 l 0.049,-0.162825 -0.141828,-0.08933 c -0.01001,-0.0067 -0.435217,-0.281049 -0.866416,-0.742583 0.13966,-0.813168 0.320067,-1.58105 0.550367,-2.259567 l 0.02817,-0.08167 -0.583785,-6.645154 -0.252733,-0.08 C 91.45267,43.522945 89.761237,42.767428 89.761237,41.791994 v -0.404033 h -59.04369 v 0.403933 c 0,0.976601 -1.649395,1.716268 -2.2844,1.919101 l -0.253311,0.0805 -0.583768,6.644553 0.02822,0.08167 c 0.230282,0.677333 0.409327,1.442867 0.549223,2.25425 -0.429476,0.465667 -0.855499,0.742018 -0.865287,0.747901 l -0.141611,0.08999 0.04893,0.162325 c 0.677608,2.246601 1.116294,8.346121 1.298217,11.367072 l 0.0012,110.353534 c -0.181923,3.01682 -0.620614,9.13047 -1.299371,11.37943 l -0.04893,0.16278 0.141611,0.0901 c 0.0098,0.005 0.435235,0.27987 0.86644,0.74201 -0.139877,0.81316 -0.319518,1.58102 -0.550376,2.25954 l -0.02822,0.0824 0.583768,6.64456 0.253311,0.0801 c 0.635005,0.20283 2.2844,0.94308 2.2844,1.91911 v 0.40392 H 89.76142 v -0.40392 c 0,-0.97603 1.6494,-1.71628 2.284968,-1.91911 l 0.252733,-0.0801 0.583783,-6.64456 -0.02817,-0.0824 c -0.229716,-0.67675 -0.409318,-1.44288 -0.549218,-2.25425 0.429468,-0.46566 0.855501,-0.74201 0.865267,-0.7473 l 0.141661,-0.0906 -0.049,-0.16228 c -0.6776,-2.24603 -1.116299,-8.34615 -1.298217,-11.36768 m -0.902117,14.96011 c 0.0033,0.008 0.104836,0.25342 0.238901,0.61855 0.05934,0.5468 0.105504,1.68334 -0.313184,2.93394 -0.693718,2.07196 -2.390317,3.58774 -4.915952,4.43087 H 34.388253 c -5.424881,-1.80268 -5.365583,-6.07422 -5.216475,-7.3501 0.139309,-0.38396 0.249281,-0.6497 0.25619,-0.66911 0.20898,-0.90958 -0.08175,-1.69629 -0.492807,-2.30716 0.795054,-4.45088 0.390332,-10.11943 0.370182,-10.37519 l -0.0012,-114.817911 c 0.0213,-0.281652 0.426599,-5.960787 -0.370756,-10.413422 0.409328,-0.616182 0.697182,-1.411101 0.483019,-2.335367 -0.003,-0.0083 -0.105353,-0.254 -0.239495,-0.618551 -0.05931,-0.546233 -0.105353,-1.682751 0.313184,-2.933934 0.694302,-2.071985 2.390333,-3.587751 4.916532,-4.430885 h 3.845505 6.920345 40.918194 c 5.424885,1.802684 5.365568,6.074236 5.216486,7.350102 -0.139343,0.383968 -0.249302,0.649702 -0.256201,0.669702 -0.208983,0.909583 0.08184,1.695683 0.493384,2.306567 -0.795651,4.451485 -0.390918,10.11942 -0.370784,10.375187 l 0.0012,114.818512 c -0.02133,0.28107 -0.426584,5.96019 0.370766,10.41343 -0.408766,0.61618 -0.696633,1.41107 -0.482433,2.33477 M 92.805172,53.801009 c -0.402418,1.452851 -0.715601,4.152768 -0.940119,6.723936 -0.04216,-1.923818 -0.01334,-4.724269 0.353484,-7.210785 0.2372,0.2252 0.453068,0.390999 0.586635,0.486849 m -1.345417,-3.447817 c 0.02,-0.04817 0.267133,-0.640884 0.499716,-1.374652 l 0.118996,1.357585 c -0.159506,0.482133 -0.293599,1.003666 -0.409333,1.548116 -0.221667,-0.448032 -0.3385,-0.9672 -0.209549,-1.531049 m 0.09783,-5.959003 0.291866,3.326684 c -0.05884,0.286351 -0.137325,0.585033 -0.223934,0.871951 -0.0185,-0.579716 -0.10884,-1.296468 -0.365001,-2.0602 -0.473799,-1.415818 -1.621182,-3.209719 -4.337367,-4.336236 h 2.093851 c 0.294767,1.237668 1.886016,1.952601 2.540585,2.197801 M 31.461736,42.196395 h 2.090967 c -3.915955,1.623368 -4.63098,4.668419 -4.689703,6.427602 -0.08979,-0.296316 -0.172712,-0.606199 -0.233739,-0.903118 l 0.291884,-3.326683 c 0.65458,-0.2452 2.246409,-0.960134 2.540591,-2.197801 m -3.061605,8.139737 0.11918,-1.357585 c 0.230282,0.726718 0.473229,1.3082 0.488197,1.338784 0.131254,0.572083 0.01784,1.097717 -0.201496,1.550451 -0.11456,-0.538551 -0.248129,-1.0548 -0.405871,-1.53165 m -0.140477,2.976283 c 0.367302,2.482968 0.396086,5.281669 0.35406,7.211336 -0.225102,-2.570551 -0.537709,-5.269884 -0.940129,-6.722735 0.134156,-0.09583 0.35003,-0.26225 0.586069,-0.488601 M 27.673595,186.84342 c 0.40242,-1.45287 0.715604,-4.15222 0.940129,-6.72336 0.04201,1.92322 0.01384,4.72427 -0.353481,7.2102 -0.236618,-0.22519 -0.452505,-0.39161 -0.586648,-0.48684 m 1.345427,3.44781 c -0.02015,0.0489 -0.267128,0.64088 -0.499713,1.37463 l -0.119179,-1.357 c 0.159473,-0.48212 0.294184,-1.00307 0.409328,-1.54753 0.222221,0.44803 0.338515,0.96664 0.209556,1.5299 m -0.09786,5.95899 -0.291885,-3.3261 c 0.05872,-0.28576 0.138142,-0.58444 0.223953,-0.87195 0.01841,0.58032 0.108822,1.29587 0.364998,2.05963 0.473803,1.41699 1.621185,3.20969 4.337371,4.33622 H 31.46174 c -0.294183,-1.23764 -1.886011,-1.95262 -2.540591,-2.1978 m 60.095697,2.1978 h -2.090952 c 3.915935,-1.62276 4.630969,-4.66841 4.690268,-6.427 0.08933,0.29633 0.172134,0.60559 0.233134,0.9025 l -0.291866,3.3267 c -0.654568,0.24518 -2.245818,0.96016 -2.540584,2.1978 m 3.0616,-8.13916 -0.118996,1.357 c -0.230284,-0.7273 -0.473234,-1.30702 -0.487634,-1.33817 -0.131838,-0.5727 -0.0185,-1.09775 0.200916,-1.55105 0.114509,0.53856 0.24815,1.0548 0.405884,1.53222 m 0.140494,-2.97684 c -0.3673,-2.48238 -0.396101,-5.28108 -0.354052,-7.21079 0.225101,2.57058 0.537701,5.26932 0.940119,6.72219 -0.133506,0.0959 -0.349435,0.26224 -0.586067,0.4886"
       id="path776"
       sodipodi:nodetypes="ccccccccccsccscccccccsccccccccccsccscccccccscccccccccccccccccccccccccccccccccccccccccccccccccccccccccccccccccccccccccccccccccccccccc"
       style="stroke-width:0.581803" />
  </g>
</svg>
