<?xml version="1.0" encoding="UTF-8" standalone="no"?>
<!-- Created with Inkscape (http://www.inkscape.org/) -->

<svg
   width="201.08708mm"
   height="34.910275mm"
   viewBox="0 0 201.08708 34.910275"
   version="1.1"
   id="svg7404"
   inkscape:version="1.1 (c68e22c387, 2021-05-23)"
   sodipodi:docname="title-background.svg"
   xmlns:inkscape="http://www.inkscape.org/namespaces/inkscape"
   xmlns:sodipodi="http://sodipodi.sourceforge.net/DTD/sodipodi-0.dtd"
   xmlns="http://www.w3.org/2000/svg"
   xmlns:svg="http://www.w3.org/2000/svg">
  <sodipodi:namedview
     id="namedview7406"
     pagecolor="#ffffff"
     bordercolor="#666666"
     borderopacity="1.0"
     inkscape:pageshadow="2"
     inkscape:pageopacity="0.0"
     inkscape:pagecheckerboard="0"
     inkscape:document-units="mm"
     showgrid="false"
     inkscape:zoom="1.0482005"
     inkscape:cx="695.00063"
     inkscape:cy="200.82036"
     inkscape:window-width="1920"
     inkscape:window-height="1017"
     inkscape:window-x="-8"
     inkscape:window-y="-8"
     inkscape:window-maximized="1"
     inkscape:current-layer="layer1" />
  <defs
     id="defs7401" />
  <g
     inkscape:label="Layer 1"
     inkscape:groupmode="layer"
     id="layer1"
     transform="translate(2.4876171,-72.858565)">
    <path
       d="m 27.24661,87.670953 8.203847,0.613833 -8.203847,0.613481 -8.202789,-0.613481 z m 49.106313,2.299758 8.203494,0.613481 8.2042,-0.613481 -8.2042,-0.613833 z m 40.320027,-5.994047 7.86201,-0.587728 -9.69434,-0.724958 14.8336,-1.10878 -13.21046,-0.988131 18.30105,-1.367719 -31.16369,-2.331156 8.37354,-0.625475 -15.288332,-1.143705 -13.583708,1.016 -6.109406,-0.795514 14.988822,-1.119717 -12.01173,-0.898525 -8.371416,0.625475 -9.718675,-0.726722 -9.084381,0.679803 9.230078,0.690739 -10.169878,0.760588 -10.168113,-0.760588 5.893858,-0.440973 -7.041444,-0.526697 -22.513572,1.683103 7.977716,0.596547 -25.29769341,1.890889 14.89815841,1.114072 -7.8620058,0.587728 9.6936278,0.724958 -14.8328943,1.108428 13.2097633,0.988483 -18.3010521,1.36772 25.1509381,1.881363 -11.516077,0.861484 12.156722,0.908403 3.143955,-0.23495 9.142589,0.684036 13.584061,-1.016 6.102702,0.794455 -15.829844,1.183922 21.730405,1.624189 4.751564,-0.354894 -8.553803,-0.639939 12.214931,-0.913694 8.561211,0.640291 5.60458,-0.4191 7.980539,0.596547 22.513574,-1.68275 -7.97701,-0.596547 25.29734,-1.890536 z"
       fill="#dedfdf"
       id="path47"
       sodipodi:nodetypes="ccccccccccccccccccccccccccccccccccccccccccccccccccccccccccc"
       style="stroke-width:0.352778" />
    <path
       d="m 62.073961,105.40241 6.664325,0.49847 -6.664325,0.49848 -6.663267,-0.49848 z m 39.889289,1.86796 6.66397,0.49847 6.66433,-0.49847 -6.66433,-0.49848 z m 32.75224,-4.86869 6.38634,-0.47766 -7.87471,-0.58878 12.04948,-0.90065 -10.73115,-0.802566 14.86606,-1.11125 -25.31428,-1.893358 6.80191,-0.508353 -12.41884,-0.928864 -11.03418,0.825147 -4.96252,-0.645936 12.17542,-0.909814 -9.75748,-0.729897 -6.799796,0.508353 -7.894814,-0.59055 -7.379053,0.552097 7.497233,0.56127 -8.260644,0.617713 -8.259586,-0.617713 4.787547,-0.35807 -5.719938,-0.427919 -18.287647,1.367014 6.480175,0.484716 -20.549658,1.535995 12.102041,0.904875 -6.386336,0.477308 7.874353,0.589139 -12.049125,0.900293 10.730441,0.80292 -14.866055,1.11125 20.430066,1.52788 -9.354255,0.69991 9.874955,0.73801 2.553759,-0.19085 7.426677,0.55562 11.034183,-0.8255 4.957234,0.64559 -12.858397,0.96167 17.651588,1.31939 3.859742,-0.28858 -6.948311,-0.51964 9.922227,-0.74224 6.954304,0.51999 4.5526,-0.34007 6.48265,0.48436 18.288,-1.36701 -6.47983,-0.48437 20.54931,-1.53599 z"
       fill="#dedfdf"
       id="path49"
       sodipodi:nodetypes="ccccccccccccccccccccccccccccccccccccccccccccccccccccccccccc"
       style="stroke-width:0.352778" />
    <path
       stroke-width="0.264583"
       stroke-linecap="butt"
       stroke-miterlimit="10"
       stroke-linejoin="miter"
       fill="none"
       stroke="#000000"
       d="M 5.49458,101.23815 17.744435,99.500719 M 5.49458,89.876236 17.744435,88.317664"
       id="path72" />
    <path
       d="m 25.206602,74.611931 c -0.152047,0.987778 0.07761,2.236611 0.07761,2.236611 0,0 -0.723194,-0.529167 -1.513417,-0.977194 -0.469194,-0.264584 -0.867833,-0.853723 -1.11513,-1.287639 -0.168981,-0.299861 -0.267758,-0.522111 -0.267758,-0.522111 -1.097492,1.178277 -0.388409,2.564694 -0.388409,2.564694 -1.710619,-0.373944 -2.779889,0.06703 -2.779889,0.06703 3.238853,2.120194 1.517298,2.293055 -0.352777,3.178528 -1.866195,0.885472 -2.003425,1.986138 -2.003425,1.986138 2.233083,-0.733777 3.12173,0.204612 3.12173,0.204612 -1.202619,1.150055 -0.130175,2.945694 -0.130175,2.945694 1.167695,2.236611 4.060472,3.189111 6.649861,3.580694 2.564342,0.391584 4.833056,0.236361 4.833056,0.236361 l -5.898797,1.834445 -5.29837,1.337028 c 0,0 -5.260269,-0.564445 -7.193139,-5.0165 -1.930047,-4.455584 1.442862,-7.962195 1.104195,-8.1915 -0.321028,-0.218722 -0.73025,0.268111 -0.772936,0.321028 1.467908,-4.201584 5.888214,-4.155723 6.064602,-4.600223 0.179917,-0.448027 -0.871713,-0.47625 -0.871713,-0.47625 4.470047,-1.471083 6.73488,0.578556 6.73488,0.578556"
       id="path56"
       style="stroke-width:0.352778" />
    <path
       d="m 86.4726,99.319918 c -21.785086,3.968752 -55.487004,-3.96875 -77.27209,0 V 86.090752 c 21.785086,-3.96875 55.487004,3.96875 77.27209,0 z"
       fill="#ffffff"
       id="path81"
       sodipodi:nodetypes="ccccc"
       style="stroke-width:0.352778" />
    <path
       stroke-width="0.485069"
       stroke-linecap="butt"
       stroke-miterlimit="10"
       stroke-linejoin="miter"
       fill="none"
       stroke="#000000"
       d="m 86.4726,99.319918 c -21.785086,3.968752 -55.487004,-3.96875 -77.27209,0 V 86.090752 c 21.785086,-3.96875 55.487004,3.96875 77.27209,0 z"
       id="path83" />
    <path
       stroke-width="0.264583"
       stroke-linecap="butt"
       stroke-miterlimit="10"
       stroke-linejoin="miter"
       fill="none"
       stroke="#000000"
       d="m 86.782304,98.041811 c 0,0 -7.231944,3.057169 -40.451616,0.117475 -23.463249,-2.07645 -35.178293,-0.256469 -36.9908656,0.06103 M 86.472565,87.121575 c 0,0 -7.0104,2.835628 -40.230071,-0.104069 -23.46325,-2.07645 -35.178294,-0.256117 -36.9908661,0.06103"
       id="path85"
       sodipodi:nodetypes="cccccc" />
    <path
       stroke-width="0.440972"
       stroke-linecap="butt"
       stroke-miterlimit="10"
       stroke-linejoin="miter"
       fill="none"
       stroke="#000000"
       d="m 197.17419,84.80472 c 0,0 -0.37641,-3.645253 -2.96369,-3.645253 h -7.76111 c 0,0 -2.528,0.862542 -7.23194,0.862542 m 17.95709,18.610441 c 0,0 -0.37641,3.64525 -2.96368,3.64525 h -7.76111 c 0,0 -2.52801,-0.86254 -7.23195,-0.86254"
       id="path106"
       sodipodi:nodetypes="cscccscc" />
    <path
       stroke-width="0.264583"
       stroke-linecap="butt"
       stroke-miterlimit="10"
       stroke-linejoin="miter"
       fill="none"
       stroke="#000000"
       d="m 189.44893,82.022461 c -1.83515,0.319969 -4.0446,0.678392 -6.06989,0.678392 h -83.14443 c -2.0253,0 -4.234747,-0.358423 -6.069897,-0.678392 m 0,21.392799 c 1.83515,-0.32032 4.044597,-0.67839 6.069897,-0.67839 h 83.14443 c 2.02529,0 4.23474,0.35807 6.06989,0.67839"
       id="path108"
       sodipodi:nodetypes="cssccssc" />
    <path
       d="m 84.813769,101.09485 c -0.225778,-1.223433 -1.089025,-3.218744 -2.761192,-4.270728 -1.38183,-0.86748 -2.589036,-0.679802 -2.59468,-1.110897 -0.01023,-0.548217 1.538817,-0.37853 1.538817,-0.37853 -1.670403,-0.956734 -4.06647,0.214136 -4.409017,-0.333728 -0.202142,-0.328436 1.11513,-0.789517 1.11513,-0.789517 -2.037644,-0.07479 -4.442177,0.975431 -5.406672,1.928283 2.430639,-0.815975 5.853642,-0.34678 7.425972,0.996598 -0.665691,-0.373945 -1.387475,-0.623711 -2.128308,-0.771878 -2.758369,-0.554567 -5.828947,0.266347 -7.677502,1.035403 -2.086328,0.706614 -3.677709,1.75013 -3.677709,1.75013 -1.377244,0.800453 -3.920772,1.546574 -5.645502,0.816681 l -3.53e-4,0.0035 c 0,0 2.700161,4.497563 6.018036,2.932993 0.243769,-0.13547 0.476955,-0.27517 0.69603,-0.41205 1.811161,-0.98248 3.635023,-2.621484 3.635023,-2.621484 0.634294,-0.443442 2.587272,-1.715206 4.938536,-2.4257 0.523875,-0.156281 1.055511,-0.188736 1.560688,-0.116064 1.311275,0.178153 2.454275,1.018822 2.829278,2.023886 1.012472,-0.176389 3.578931,0.671682 4.543425,1.743072"
       id="path112"
       sodipodi:nodetypes="cccccccccccccccccccc"
       style="stroke-width:0.352778" />
    <path
       d="m 31.185868,81.847343 c 0,0 -0.317147,-1.160639 -1.513417,-1.643944 0.21202,0.839611 0.508,1.615722 1.513417,1.643944 m -3.852333,3.104444 c -0.278695,-1.502833 -2.353028,-1.760361 -3.421592,-1.068916 0.370417,-0.994834 1.411111,-1.897945 2.215092,-2.183695 -0.458611,-0.176389 -0.998361,-0.328083 -1.580092,-0.455083 0.684036,-0.522111 2.367139,-0.917222 3.220861,-0.843139 -0.155575,-0.04586 -0.324555,-0.08114 -0.508353,-0.105833 l 0.162278,-0.977195 c -0.0949,-0.818444 -0.836083,-1.756833 -1.718028,-2.321277 -0.437091,-1.252361 -0.01023,-3.531306 0.59302,-4.138084 -0.303742,3.277306 4.324703,5.30225 5.224286,7.718778 -0.507647,-2.06375 -2.649361,-3.425472 -3.650897,-4.681361 -0.317853,-0.8255 -0.01094,-2.19075 0.373591,-2.652889 -0.176388,2.197806 2.144889,3.989917 3.376084,5.259917 1.453797,1.49225 1.837972,2.786944 1.601964,3.827639 0.324202,0.09878 0.765174,0.430388 0.673805,0.966611 0.479425,-0.09525 0.98425,-0.627945 1.110897,-0.963084 0.186972,1.643945 -0.829028,3.340806 -1.918758,3.824111 0,0 0.313619,-0.769055 -0.162278,-1.382889 -0.466019,-0.603249 -1.837972,-0.652638 -2.303991,-0.634999 0,0 0.596547,-0.8255 0.381,-1.259417 -0.261056,-0.53975 -2.955925,-0.388056 -4.173361,0.01058 0.41275,-0.03175 1.379713,0.105834 1.710972,0.257528 -0.197556,0.275167 -0.726722,1.442861 -0.380647,1.80975 0.292452,0.313972 0.705555,-0.151695 0.758119,-0.211667 -0.03881,0.112889 -0.444147,1.291167 -0.165453,1.5875 0.289278,0.310445 0.941917,0.116417 0.941917,0.116417 -0.43427,1.001889 -2.017889,1.654528 -3.111853,1.61925 0.395111,-0.109361 1.061861,-0.783167 1.171575,-1.199445 -0.293158,0.134056 -1.041047,0.194028 -1.326444,0.130528 0.356305,-0.134055 1.093258,-1.019528 0.906286,-2.049639"
       id="path114"
       sodipodi:nodetypes="ccccccccccccccccccccccccccccccccc"
       style="stroke-width:0.352778" />
    <path
       d="m 21.562337,78.792383 c 0.179917,-0.635 -1.054806,-1.767417 -1.520825,-1.986139 1.743075,-0.01764 2.600325,0.335139 2.600325,0.335139 -0.433917,-0.680861 -0.550333,-1.710972 -0.264583,-2.515305 0.878416,2.303638 4.261555,2.776361 5.044369,4.691944 l -0.162278,0.977194 c -1.337028,-0.172861 -3.308702,0.225778 -4.303536,1.329972 0.345722,0.01058 1.23825,0.204612 1.58362,0.328084 -1.506009,0.225778 -3.580342,1.552222 -4.201584,2.19075 0.183798,-0.860778 0.448381,-1.583972 0.261409,-2.109611 -0.264584,-0.740834 -1.146528,-1.0795 -2.928056,-0.765528 1.231195,-1.160639 3.704167,-1.827389 3.891139,-2.4765"
       id="path116"
       style="stroke-width:0.352778" />
    <path
       d="m 58.99042,81.615617 c -0.01164,-0.09102 -0.0053,-0.184503 0.02152,-0.268464 l 0.118534,-0.369358 0.148872,0.357716 c 0.04339,0.10407 0.134761,0.179917 0.243064,0.249062 -0.0095,-0.171803 0.02117,-0.362656 0.08255,-0.493889 -0.0127,-0.276931 0.178858,-0.484011 0.407458,-0.484011 0.391231,0 0.496006,0.473427 0.314325,0.812447 0.08431,0.127 0.212725,0.244828 0.32632,0.347133 0.04057,0.03669 0.07902,0.07126 0.112889,0.103717 0.01058,0.01094 0.01623,0.02046 0.02681,0.03104 0.170039,-0.230364 0.294569,-0.551391 0.294569,-0.794103 0,-0.503061 -0.327025,-0.969786 -1.00718,-1.006475 -0.431448,-0.02293 -0.722842,0.110067 -0.9398,0.331259 -0.09807,0.100541 -0.316442,0.353836 -0.274814,0.812447 0.01587,0.172861 0.07373,0.293511 0.124883,0.371475 m 1.823508,2.326922 c -0.155575,0.263525 -0.481541,0.603956 -0.813152,0.603956 -0.611364,0 -0.917928,-0.8636 -0.236362,-1.571978 -0.03845,-0.01235 -0.07585,-0.01411 -0.0889,-0.01411 -0.0575,0 -0.113947,0.01517 -0.150988,0.04057 l -0.301625,0.258939 0.08502,-0.421569 c 0.0053,-0.01446 0.01058,-0.02858 0.01658,-0.04269 -0.151342,0.0769 -0.298098,0.183091 -0.354542,0.244475 l -0.27305,0.297391 0.02752,-0.419452 0.0187,-0.09243 c 0.01411,-0.06526 0.03104,-0.146756 0.02081,-0.173214 -0.0035,-0.0081 -0.0099,-0.01446 -0.01764,-0.02011 -0.126647,0.09772 -0.470959,0.401813 -0.511528,0.853722 0,0 0.06703,-0.0949 0.125589,-0.117122 0.03845,-0.01482 0.07197,0.0042 0.03528,0.117122 -0.01411,0.0441 -0.34925,0.950383 0.309386,1.577622 0,0 -0.07232,-0.183797 -0.02857,-0.240242 0.02117,-0.02681 0.04868,-0.02928 0.08749,0.0194 0.02787,0.03775 0.05715,0.07373 0.08925,0.109008 v 7.06e-4 l 3.53e-4,-3.53e-4 c 0.05433,0.06209 0.1143,0.12065 0.179564,0.171097 0.19685,0.137584 0.464608,0.248709 0.769056,0.248709 0.811036,0 1.241072,-0.555625 1.480961,-1.025878 -0.01094,-0.01341 -0.01905,-0.02716 -0.03387,-0.04022 -0.122767,-0.10795 -0.300567,-0.255411 -0.435328,-0.363361 m 1.842206,-1.606903 c -0.606072,0.02928 -1.125361,0.542925 -1.394178,0.906287 0.04798,0.01623 0.09631,0.03845 0.144286,0.07655 0.05609,0.04516 0.138289,0.112184 0.226836,0.185561 0.07197,-0.15875 0.233892,-0.479777 0.482247,-0.764469 0.226837,-0.259644 0.621948,-0.284692 0.829028,-0.126294 0.13335,-0.121003 0.593372,-0.234245 0.835731,-0.165453 -0.147109,-0.160514 -0.461081,-0.375709 -0.807509,-0.375709 -0.28575,0 -0.447322,0.140406 -0.488597,0.07726 -0.05256,-0.08043 0.193322,-0.200025 0.193322,-0.200025 -0.337608,0.01411 -0.582788,0.410633 -0.685094,0.36195 -0.06103,-0.02963 0.09102,-0.221545 0.09102,-0.221545 -0.308681,0.179211 -0.567267,0.559153 -0.620889,0.790223 0.283986,-0.347487 0.835378,-0.5969 1.1938,-0.544337 m 12.471047,1.658762 c -0.02117,-0.03316 -0.03422,-0.06209 -0.03422,-0.177448 v -0.758825 c 0,-0.114652 0.01023,-0.136172 0.0321,-0.170391 0.02364,-0.03775 0.06491,-0.09349 0.06526,-0.09384 l 0.01411,-0.0187 -0.02081,-0.01094 c -0.0025,-0.0014 -0.05503,-0.02893 -0.113594,-0.03493 v 0.0011 c -0.01552,-0.0011 -1.197681,-0.0011 -1.197681,-0.0011 l 0.06033,0.03704 c 0,0 0.176389,0.107245 0.255411,0.156986 0.07691,0.04833 0.116417,0.103364 0.116417,0.270934 V 83.6074 c -0.08925,0.02822 -0.180622,0.04127 -0.289631,0.04127 -0.4826,0 -0.727075,-0.261055 -0.727075,-0.774347 0,-0.489655 0.267759,-0.770114 0.734837,-0.770114 0.292805,0 0.60078,0.06668 0.97543,0.34925 l -0.0018,-0.02011 -0.08608,-0.813858 -0.0067,-0.05997 -0.05821,-0.01376 -0.05715,-0.01341 c -0.250472,-0.05785 -0.348191,-0.07303 -0.496711,-0.09207 -0.08784,-0.01058 -0.135819,-0.01587 -0.246239,-0.01587 0,0 -0.03104,-3.52e-4 -0.04727,-3.52e-4 -0.88018,0 -1.519767,0.61595 -1.519767,1.464733 0,0.835378 0.642762,1.442155 1.527881,1.442155 0.154869,0 0.452967,-0.02857 0.640644,-0.06773 0.03563,-0.0074 0.05609,-0.01305 0.08396,-0.01976 0.006,-0.0014 0.01199,-0.0025 0.01834,-0.0039 0.105833,-0.0254 0.213431,-0.05256 0.322439,-0.08572 l 0.137583,-0.04269 -0.01623,-0.02258 c -7.05e-4,-7.05e-4 -0.04163,-0.05609 -0.06562,-0.09419 m 6.467475,-2.528712 h -1.594203 l 0.05997,0.03634 c 0.0014,0.0011 0.153811,0.0949 0.24765,0.15628 0.08502,0.0568 0.117122,0.09525 0.117122,0.277636 v 0.681214 L 79.24829,81.465316 v 3.52e-4 h -0.93592 l 0.05574,0.03598 c 0.0014,0.0011 0.144639,0.09454 0.227189,0.154516 0.08149,0.05962 0.120297,0.119945 0.120297,0.302684 v 1.853847 c 0,0.181681 -0.03281,0.220133 -0.1143,0.270581 -0.08961,0.05503 -0.264583,0.15628 -0.2667,0.156986 l -0.0635,0.03704 h 1.598084 l -0.06385,-0.03704 c -0.0018,-0.0011 -0.179211,-0.103012 -0.264936,-0.156986 -0.08008,-0.05045 -0.115006,-0.09172 -0.115006,-0.270581 v -1.118306 l 1.709208,1.673578 v -2.43205 c 0,-0.181328 0.03034,-0.218369 0.117123,-0.277636 0.09454,-0.06421 0.268464,-0.154517 0.27058,-0.155575 z m -10.250272,1.65208 -0.253647,-0.691445 -0.27552,0.691445 z M 68.729203,82.26755 c 0,-0.143933 -0.09384,-0.240241 -0.364772,-0.2413 l -0.09419,7.06e-4 v 0.655461 c 0.03951,7.06e-4 0.07902,7.06e-4 0.09313,7.06e-4 0.178505,0 0.36583,-0.03951 0.36583,-0.415573 m 3.912658,1.823156 0.237773,0.186619 h -1.470731 c 0,0 0.124883,-0.119591 0.180975,-0.178505 0.04868,-0.05115 0.07373,-0.101953 0.03739,-0.188736 -0.0081,-0.02117 -0.02505,-0.06703 -0.04551,-0.125236 h -1.019175 c -0.02046,0.05609 -0.03704,0.101247 -0.04762,0.125236 -0.04128,0.100894 -0.0321,0.129469 0.0254,0.183797 0.06244,0.06033 0.2159,0.183091 0.2159,0.183091 l -1.542697,3.53e-4 -0.707672,-0.853722 -0.0021,-0.0021 -0.0011,-0.0018 c -0.07691,-0.105481 -0.135114,-0.165453 -0.188736,-0.193675 -0.0071,-0.0039 -0.02011,-0.0085 -0.04375,-0.01376 v 0.600075 c 0,0.176389 0.03351,0.208492 0.11677,0.271992 0.08537,0.06526 0.334433,0.192969 0.334433,0.192969 h -1.64465 c 0,0 0.251531,-0.140758 0.329494,-0.193675 0.07267,-0.04904 0.116064,-0.09208 0.116064,-0.271286 v -1.872897 c 0,-0.173567 -0.03775,-0.227542 -0.117122,-0.276931 -0.0822,-0.05115 -0.248355,-0.155927 -0.248355,-0.155927 l -0.05821,-0.03704 c 0,0 1.264356,-3.53e-4 1.338792,-3.53e-4 0.257175,0.0039 0.359833,0.01164 0.502708,0.05503 0.344311,0.09913 0.557742,0.385586 0.557742,0.747183 0,0.168275 -0.04762,0.324555 -0.136878,0.451555 -0.06668,0.09913 -0.15628,0.181328 -0.258586,0.238831 0.294217,0.393347 0.526697,0.686153 0.669925,0.843492 0.0095,-0.01658 0.851606,-2.050345 0.851606,-2.050345 0.0028,-0.01446 0.0046,-0.02752 0.0046,-0.03845 0,-0.01446 0,-0.0314 -0.04233,-0.06985 l -0.198966,-0.181327 h 1.108427 c 0,0 0.922867,2.34068 0.92957,2.354791 h -7.06e-4 c 0.02575,0.05821 0.03316,0.06985 0.05962,0.110067 0.03951,0.05856 0.05327,0.07867 0.157691,0.160514 m 4.962525,-1.222022 c 0,-0.460375 -0.291747,-0.757767 -0.743655,-0.757767 -0.433564,0 -0.703086,0.297392 -0.703086,0.776464 0,0.462844 0.285397,0.762 0.725663,0.762 0.424039,0 0.721078,-0.321381 0.721078,-0.780697 m 0.809272,0 c 0,0.830086 -0.661105,1.456266 -1.537758,1.456266 -0.88265,0 -1.522941,-0.604661 -1.522941,-1.437569 0,-0.845961 0.636763,-1.4605 1.51518,-1.4605 0.881239,0 1.545519,0.61983 1.545519,1.441803 m 4.343048,-0.393348 c -0.0381,-0.0095 -0.07655,-0.0187 -0.113948,-0.02787 l -0.01023,-0.0021 c -0.267759,-0.06315 -0.442736,-0.113241 -0.442736,-0.227894 0,-0.03881 0.01129,-0.06914 0.03422,-0.09172 0.04727,-0.04727 0.144992,-0.07373 0.276225,-0.07373 0.02187,0 0.0448,0.0011 0.06703,0.0028 h 0.0088 c 0.0046,7.06e-4 0.0088,0.0014 0.01341,0.0018 0.242005,0.02117 0.53093,0.126295 0.826911,0.323145 l -0.04657,-0.830086 -0.05433,-0.01835 -0.0099,-0.0035 c -0.0042,-0.0014 -0.03563,-0.01199 -0.127353,-0.0321 -0.05574,-0.01235 -0.341842,-0.07408 -0.512939,-0.08643 -0.05574,-0.0042 -0.110772,-0.006 -0.16263,-0.006 -0.626534,0 -0.992717,0.297039 -1.032228,0.836789 -0.01976,0.269875 0.113242,0.5334 0.337255,0.670277 0.200378,0.121709 0.499886,0.213431 0.718256,0.280812 l 0.05009,0.01517 c 0.136878,0.04198 0.294217,0.126647 0.272698,0.290336 -0.01164,0.08537 -0.0448,0.177095 -0.301978,0.177095 -0.03704,0 -0.07761,-0.0018 -0.122767,-0.006 -0.177094,-0.01552 -0.384175,-0.116769 -0.613833,-0.299861 -0.0092,-0.0078 -0.01658,-0.01376 -0.02187,-0.01693 l -0.141817,-0.107597 -0.146403,-0.110773 0.05821,1.052689 0.05433,0.01799 0.01058,0.0039 c 0.0021,3.53e-4 0.03245,0.01023 0.127705,0.0314 0.09455,0.02117 0.405342,0.07514 0.563739,0.08643 0.0508,0.0039 0.103011,0.006 0.155222,0.006 0.684036,0 1.135239,-0.34043 1.148645,-0.86748 0.01305,-0.507294 -0.277284,-0.839964 -0.861836,-0.988131 M 66.43262,82.872211 c 0,-0.460727 -0.237772,-0.725311 -0.651933,-0.725311 h -0.316089 v 1.447095 h 0.316089 c 0.414161,0 0.651933,-0.263525 0.651933,-0.721784 m 0.817739,-0.0074 c 0,0.327025 -0.106892,0.648758 -0.293511,0.881239 -0.0822,0.103364 -0.183445,0.196144 -0.301978,0.275872 -0.279047,0.186267 -0.536222,0.255411 -0.948267,0.255411 h -1.470025 l 0.06244,-0.03634 c 3.53e-4,-7.05e-4 0.182033,-0.106891 0.266347,-0.158044 0.08149,-0.04904 0.115358,-0.09701 0.115358,-0.270934 v -1.622777 c 0,-0.178153 -0.04939,-0.227895 -0.119238,-0.277989 -0.362656,-0.264584 -0.392995,-0.568325 -0.394053,-0.581025 l -0.0035,-0.04057 0.03387,0.02258 c 0.0011,7.06e-4 0.122061,0.07832 0.255411,0.109008 0.154869,0.03563 0.367594,0.04163 0.814564,0.04163 h 0.565502 v 0.0025 c 0.28187,0.01129 0.488598,0.06279 0.691445,0.16898 0.454378,0.238125 0.725664,0.697795 0.725664,1.230489 m -20.937714,1.248833 c -3.52e-4,-7.05e-4 -0.04163,-0.0568 -0.06562,-0.09454 -0.02117,-0.03316 -0.03387,-0.06138 -0.03387,-0.177094 l -3.53e-4,-0.758825 c 0,-0.114653 0.01058,-0.136173 0.0321,-0.170392 0.02399,-0.03775 0.06491,-0.09384 0.06526,-0.09419 l 0.01376,-0.01834 -0.02046,-0.01094 c -0.0021,-0.0014 -0.05468,-0.02893 -0.113242,-0.03493 v 7.05e-4 c -0.01552,-7.05e-4 -1.19768,-7.05e-4 -1.19768,-7.05e-4 l 0.06032,0.03669 c 0,0 0.176036,0.10795 0.255058,0.156633 0.07726,0.04868 0.11677,0.104422 0.11677,0.271286 v 0.413103 c -0.08925,0.02822 -0.180975,0.04092 -0.290336,0.04092 -0.481895,0 -0.726723,-0.259997 -0.726723,-0.773994 0,-0.489303 0.268111,-0.770467 0.735189,-0.770467 0.292453,0 0.600075,0.06773 0.975078,0.349955 l -0.0018,-0.02011 -0.08608,-0.813858 -0.006,-0.06032 -0.05891,-0.01376 -0.0568,-0.01305 c -0.250472,-0.05786 -0.348192,-0.07338 -0.497417,-0.09208 -0.08749,-0.01058 -0.135114,-0.01623 -0.245533,-0.01623 0,0 -0.0314,-3.53e-4 -0.04727,-3.53e-4 -0.880534,0 -1.519767,0.616303 -1.519767,1.464733 0,0.835378 0.642408,1.442156 1.527881,1.442156 0.154516,0 0.452966,-0.02858 0.640644,-0.06738 0.03563,-0.0078 0.05574,-0.01305 0.08396,-0.01905 0.0056,-0.0018 0.01199,-0.0032 0.01835,-0.0046 0.106186,-0.02505 0.21343,-0.05221 0.322439,-0.08572 l 0.137583,-0.04269 z m 8.884708,-2.64795 h -1.59385 l 0.05962,0.03634 c 0.0018,0.0014 0.154164,0.0949 0.247297,0.156633 0.08537,0.05644 0.117475,0.0949 0.117475,0.277283 v 0.681567 l -1.176514,-1.15182 h -0.936272 l 0.05609,0.03634 c 0.0014,7.05e-4 0.144639,0.09419 0.227189,0.154163 0.08184,0.05962 0.120297,0.119945 0.120297,0.302684 v 1.853847 c 0,0.181681 -0.03281,0.220133 -0.114653,0.270581 -0.08996,0.05503 -0.264231,0.15628 -0.265994,0.156986 l -0.06456,0.03704 h 1.599142 l -0.06456,-0.03704 c -0.0018,-7.06e-4 -0.178859,-0.103012 -0.264584,-0.156986 -0.08043,-0.05045 -0.115358,-0.09172 -0.115358,-0.270581 v -1.118306 l 1.709208,1.673931 v -2.432403 c 0,-0.180975 0.02999,-0.218369 0.117122,-0.277636 0.09455,-0.06421 0.268464,-0.154517 0.270581,-0.155575 z m -2.345972,-3.52e-4 v 3.52e-4 z m -9.054041,3.52e-4 h -1.59385 l 0.05997,0.03634 c 0.0014,0.0014 0.154164,0.0949 0.247297,0.156633 0.08537,0.05644 0.117475,0.0949 0.117475,0.277283 v 0.681567 l -1.176866,-1.152172 3.52e-4,3.52e-4 -1.850319,-3.52e-4 c -0.05503,0 -0.113242,0.03387 -0.116064,0.03528 l -0.0187,0.01094 0.01305,0.01799 c 3.52e-4,3.53e-4 0.04128,0.05609 0.06491,0.09384 0.01834,0.02858 0.02822,0.04833 0.0314,0.123472 0,0 -3.53e-4,1.430514 -3.53e-4,1.433336 v 0.0018 0.0014 l 7.06e-4,0.01094 c -0.0046,0.30233 -0.138995,0.455788 -0.423334,0.455788 -0.288925,0 -0.43568,-0.15875 -0.43568,-0.4699 l -7.06e-4,-1.433336 c 0.0025,-0.07514 0.01305,-0.0949 0.03104,-0.123472 0.02399,-0.03775 0.06491,-0.09349 0.06562,-0.09384 l 0.01305,-0.01799 -0.01905,-0.01094 c -0.0028,-0.0014 -0.06138,-0.03528 -0.116416,-0.03528 l -1.183217,3.52e-4 0.06032,0.03634 c 0.0014,0.0011 0.153811,0.09419 0.248355,0.156633 0.08502,0.05609 0.117123,0.09454 0.117123,0.277283 v 1.160286 c 0,0.255411 0.03069,0.461081 0.08819,0.594078 0.04163,0.0949 0.106539,0.185914 0.19932,0.278695 0.241652,0.238124 0.5461,0.353483 0.93098,0.353483 0.534458,0 0.953206,-0.241653 1.120422,-0.644878 0.06491,-0.156633 0.08643,-0.297392 0.08643,-0.5588 v -1.182864 c 0,-0.182739 0.03245,-0.221191 0.117475,-0.277283 0.0508,-0.03351 0.117828,-0.07549 0.169333,-0.107597 0.04762,0.03175 0.109009,0.07303 0.152753,0.105127 0.08184,0.05962 0.12065,0.119945 0.12065,0.302684 v 1.853847 c 0,0.181681 -0.03281,0.220133 -0.115006,0.270581 -0.0896,0.05503 -0.264583,0.15628 -0.265641,0.156986 l -0.06421,0.03704 h 1.598789 l -0.06456,-0.03704 c -0.0018,-7.06e-4 -0.179211,-0.103012 -0.264936,-0.156986 -0.07973,-0.05045 -0.115006,-0.09172 -0.115006,-0.270581 v -1.118306 l 1.708856,1.673931 v -2.432403 c 0,-0.181328 0.03069,-0.218369 0.117475,-0.277636 0.09454,-0.06421 0.268463,-0.154517 0.27058,-0.155575 z m 4.377972,2.128662 H 47.53749 v -0.411692 c 0,0 0.581025,-3.53e-4 0.597252,-3.53e-4 0.07796,-0.0011 0.162631,-0.0028 0.210962,0.02117 0.05609,0.02681 0.09525,0.08467 0.09596,0.08502 l 0.02822,0.04269 -0.0011,-0.900994 -0.02364,0.01411 c -7.06e-4,3.53e-4 -0.03845,0.02364 -0.07091,0.03775 -0.02858,0.01164 -0.04798,0.01729 -0.176037,0.01729 H 47.53749 v -0.351014 h 0.661811 c 0.170039,0 0.20708,0.01517 0.304094,0.08361 l 0.163689,0.125236 -0.08643,-0.89147 h -2.251075 l 0.05997,0.03634 c 0.0014,0.0014 0.154164,0.0949 0.246944,0.156633 0.08502,0.0568 0.117475,0.0956 0.117475,0.277283 v 1.876425 c 0,0.184503 -0.02822,0.217311 -0.114653,0.270934 -0.08608,0.05327 -0.263524,0.15628 -0.264936,0.156986 l -0.06421,0.03704 h 2.333978 l 0.208844,-0.938741 c 0,0 -0.188031,0.135819 -0.241653,0.16898 -0.104069,0.06385 -0.185208,0.08678 -0.436033,0.08678 m 8.184091,-1.119012 c -0.03775,-0.0095 -0.0762,-0.0187 -0.113947,-0.02787 l -0.01058,-0.0021 c -0.267053,-0.06315 -0.442031,-0.113241 -0.442031,-0.227894 0,-0.03881 0.01058,-0.06914 0.03422,-0.09137 0.04692,-0.04762 0.145344,-0.07408 0.276225,-0.07408 0.02187,0 0.04445,0.0011 0.06703,0.0028 0.0028,0 0.0056,0 0.0081,3.53e-4 0.0049,3.53e-4 0.0095,0.0011 0.01376,0.0014 0.242005,0.02117 0.530577,0.126295 0.826558,0.323145 l -0.04586,-0.830086 -0.05433,-0.01835 -0.01023,-0.0032 c -0.0042,-0.0018 -0.03563,-0.01235 -0.128059,-0.03245 -0.05539,-0.01235 -0.341136,-0.07408 -0.512586,-0.08608 -0.05539,-0.0042 -0.110419,-0.0063 -0.162278,-0.0063 -0.62618,0 -0.993069,0.297039 -1.032227,0.836789 -0.01976,0.269875 0.112889,0.5334 0.337961,0.670277 0.200378,0.121709 0.49918,0.213784 0.717903,0.280812 l 0.05009,0.01517 c 0.136172,0.04198 0.293864,0.126647 0.272344,0.290336 -0.01094,0.08537 -0.0448,0.177095 -0.301625,0.177095 -0.03704,0 -0.07796,-0.0018 -0.122766,-0.006 -0.1778,-0.01552 -0.384881,-0.116769 -0.614186,-0.299861 -0.0092,-0.0074 -0.01658,-0.01376 -0.02187,-0.01693 l -0.142169,-0.107597 -0.14605,-0.110773 0.05821,1.052689 0.05539,0.01799 0.0095,0.0039 c 0.0021,3.53e-4 0.0321,0.01023 0.127706,0.03175 0.09454,0.02081 0.405342,0.07479 0.563386,0.08608 0.05115,0.0039 0.103717,0.006 0.155222,0.006 0.684742,0 1.135592,-0.34043 1.148997,-0.86748 0.0127,-0.507294 -0.277283,-0.839964 -0.861836,-0.988131 m -19.515666,0.396875 c 0,-0.460727 -0.237419,-0.725311 -0.65158,-0.725311 h -0.316089 v 1.447095 h 0.316089 c 0.414161,0 0.65158,-0.263525 0.65158,-0.721784 m 0.817386,-0.0074 c 0,0.327025 -0.106891,0.648758 -0.293158,0.881239 -0.0822,0.103364 -0.183445,0.196144 -0.301978,0.275872 -0.279047,0.186267 -0.535869,0.255411 -0.948266,0.255411 h -1.470378 l 0.06279,-0.03634 c 0,-7.05e-4 0.182034,-0.106891 0.2667,-0.158044 0.08149,-0.04904 0.115006,-0.09701 0.115006,-0.270934 v -1.622777 c 0,-0.178153 -0.04904,-0.227895 -0.118886,-0.277989 -0.362656,-0.264584 -0.3937,-0.568325 -0.394406,-0.581025 l -0.0035,-0.04057 0.03387,0.02258 c 0.0014,7.06e-4 0.122061,0.07832 0.255411,0.109008 0.155222,0.03563 0.367595,0.04163 0.814917,0.04163 h 0.56515 v 0.0025 c 0.281869,0.01129 0.488597,0.06279 0.691444,0.16898 0.454025,0.238125 0.725311,0.697795 0.725311,1.230489 m 13.545961,0.0014 c 0,-0.460375 -0.291747,-0.758119 -0.743303,-0.758119 -0.433211,0 -0.70238,0.297744 -0.70238,0.777169 0,0.462492 0.284339,0.761647 0.724605,0.761647 0.424392,0 0.721078,-0.321027 0.721078,-0.780697 m 0.809625,0 c 0,0.830439 -0.661458,1.45662 -1.538111,1.45662 -0.88265,0 -1.522942,-0.604661 -1.522942,-1.43757 0,-0.846314 0.637117,-1.460147 1.515181,-1.460147 0.881239,0 1.545872,0.619478 1.545872,1.441097 m 8.686094,-0.282222 -0.02646,-0.08608 c -0.0028,-0.0092 -0.0695,-0.219428 -0.294217,-0.301978 l -0.122766,-0.04551 0.03563,0.125942 c 0.03069,0.10795 0.08749,0.307622 0.317853,0.307622 z M 59.036273,82.07046 c 0.02646,-0.10407 -0.179564,-0.281517 -0.256117,-0.314678 0.282575,-0.01129 0.423334,0.04163 0.423334,0.04163 -0.07373,-0.108656 -0.09772,-0.275167 -0.05574,-0.406753 0.154164,0.369358 0.70485,0.428625 0.841375,0.735541 -0.0194,-0.132644 -0.144286,-0.280811 -0.289278,-0.367594 -0.07796,-0.201436 -0.01975,-0.572558 0.07514,-0.674511 -0.03316,0.5334 0.72778,0.838553 0.886178,1.225903 -0.09278,-0.331964 -0.447675,-0.541867 -0.616303,-0.741186 -0.05539,-0.131587 -0.01235,-0.355248 0.04762,-0.431448 -0.01799,0.357011 0.367594,0.635706 0.573969,0.835378 0.242359,0.235303 0.311503,0.443089 0.278695,0.613128 0.05292,0.01411 0.126294,0.06562 0.113947,0.153105 0.07761,-0.01799 0.156633,-0.107244 0.17533,-0.161572 0.0381,0.264936 -0.117827,0.545747 -0.2921,0.629356 0,0 0.04727,-0.126647 -0.03281,-0.223309 -0.07867,-0.0956 -0.301272,-0.09701 -0.377119,-0.09102 0,0 0.09278,-0.137231 0.05574,-0.206728 -0.04516,-0.08572 -0.481542,-0.04833 -0.676628,0.02258 0.06632,-0.0071 0.224014,0.01058 0.278694,0.03351 -0.03069,0.04551 -0.110772,0.237772 -0.05292,0.295275 0.05292,0.05256 0.122413,-0.03916 0.122413,-0.03916 0,0 -0.06809,0.210609 -0.01976,0.259292 0.04904,0.04833 0.153458,0.01411 0.153458,0.01411 -0.06491,0.164395 -0.318911,0.278342 -0.495653,0.278342 0.06315,-0.02011 0.16757,-0.13335 0.183445,-0.200378 -0.04657,0.02293 -0.16757,0.03634 -0.214489,0.02787 0.0575,-0.02328 0.172508,-0.171802 0.136172,-0.337255 -0.05186,-0.242358 -0.390172,-0.27305 -0.559505,-0.155928 0.05468,-0.162983 0.219075,-0.315383 0.348191,-0.365125 -0.07514,-0.02646 -0.163689,-0.04868 -0.258586,-0.06562 0.10795,-0.08855 0.379589,-0.160866 0.517878,-0.153105 -0.210961,-0.05468 -0.597253,0.01305 -0.773994,0.22225 0.05609,0 0.202141,0.02752 0.258586,0.04516 -0.243064,0.0441 -0.572911,0.269875 -0.670631,0.376414 0.02575,-0.140405 0.06526,-0.258939 0.03175,-0.343605 -0.04657,-0.118181 -0.190853,-0.168628 -0.478719,-0.109361 0.19438,-0.194028 0.591608,-0.314678 0.618419,-0.420511 m 4.557183,2.333624 c 0,0.401462 -0.399344,0.714728 -0.851605,0.650875 0.115358,0.107598 0.394758,0.180623 0.54363,0.113242 -0.08502,0.153811 -0.494241,0.371828 -0.88018,0.269522 -0.361245,-0.09631 -0.519995,-0.441677 -0.529167,-0.661105 -0.170744,0.170744 -0.12453,0.449086 -0.0028,0.559153 -0.141111,-0.03669 -0.353483,-0.183092 -0.389467,-0.445912 -0.03034,-0.225777 0.09525,-0.483658 -0.140405,-0.691091 -0.140759,-0.123825 -0.354895,-0.30092 -0.493536,-0.409928 -0.290689,-0.227542 -0.180623,-0.394758 -0.245886,-0.515055 -0.05009,-0.09278 -0.172156,-0.144992 -0.245181,-0.229659 -0.07373,-0.08537 -0.07091,-0.212019 -0.02963,-0.284691 -0.01235,0.1016 0.06032,0.177447 0.156986,0.20955 0.107244,0.03528 0.197555,0.006 0.288925,0.05927 0.110066,0.0635 0.05891,0.235303 0.138641,0.296334 0.07161,0.05398 0.25012,-0.01764 0.40252,0.105127 0.153105,0.122767 0.496005,0.408164 0.643819,0.529873 0.265642,0.218722 0.53975,-0.03069 0.448734,-0.281164 0.269875,0.159808 0.299508,0.606777 0.07514,0.762705 0.211314,0.04798 0.592667,-0.04657 0.592667,-0.352778 0,-0.187325 -0.172861,-0.319616 -0.296333,-0.34043 0.433563,-0.04057 0.813152,0.263525 0.813152,0.656166"
       id="path1731"
       style="stroke-width:0.352778" />
    <path
       d="M 4.9487258,87.901927 V 101.13109 L 17.472336,99.494553 V 86.265038 Z"
       fill="#ffffff"
       id="path68-5"
       style="stroke-width:0.352778" />
    <path
       stroke-width="0.485069"
       stroke-linecap="butt"
       stroke-miterlimit="10"
       stroke-linejoin="miter"
       fill="none"
       stroke="#000000"
       d="M 4.9487258,87.901927 V 101.13109 L 17.472336,99.494553 V 86.265391 Z"
       id="path70-8"
       sodipodi:nodetypes="ccccc" />
    <path
       d="M 17.472336,86.265485 8.9284113,85.001482 v 13.22917 l 8.5439247,1.264001 z"
       fill="#c3c4c6"
       id="path74-1"
       style="stroke-width:0.352778" />
    <path
       stroke-width="0.485069"
       stroke-linecap="butt"
       stroke-miterlimit="10"
       stroke-linejoin="miter"
       fill="none"
       stroke="#000000"
       d="M 17.472336,86.265485 C 6.203647,83.233372 8.9284113,88.369059 8.9284113,98.230652 l 8.5439247,1.264001 z"
       id="path76-4"
       sodipodi:nodetypes="cccc" />
    <path
       d="m 11.401913,83.529584 0.359481,0.783167 c -0.482953,0.08114 -1.026231,1.989666 -1.026231,1.989666 -1.2311937,-0.712611 -0.194028,-2.991555 -0.194028,-2.991555 z"
       id="path118-8"
       sodipodi:nodetypes="ccccc"
       style="stroke-width:0.352778" />
    <path
       d="m 8.7136763,83.205035 c 0,0 0.642056,-0.462139 0.980722,-0.546806 l 0.5609167,0.497417 -0.2892777,0.08819 c 0,0 -0.539397,1.763888 -0.321028,2.494138 l 0.352778,1.023056 c 0,0 -1.150055,-0.229306 -1.326444,-0.670278 0,0 -0.370417,-1.986139 0.04233,-2.885722"
       id="path120-8"
       sodipodi:nodetypes="cccccccc"
       style="stroke-width:0.352778" />
    <path
       d="m 8.0646002,83.952793 c 0,0 0.074083,2.264833 0.3069171,2.465917 l 0.853722,0.363361 0.02469,0.772583 c 0,0 -1.5239998,-0.483306 -1.6509998,-1.065389 -0.127,-0.582083 -0.2257777,-2.028472 -0.2257777,-2.028472 0,0 0.254,-0.377472 0.6914444,-0.508"
       id="path122-5"
       sodipodi:nodetypes="ccccscc"
       style="stroke-width:0.352778" />
    <path
       d="m 133.18224,88.238924 5.49628,0.41134 -5.49628,0.41063 -5.49557,-0.41063 z m 32.89864,1.54058 5.49593,0.41099 5.49628,-0.41099 -5.49628,-0.41134 z m 27.0122,-4.01567 5.26697,-0.3937 -6.49464,-0.48542 9.93775,-0.74295 -8.85014,-0.66216 12.26044,-0.91617 -20.87774,-1.56175 5.60987,-0.4191 -10.24255,-0.76623 -9.10025,0.68051 -4.09293,-0.5327 10.04182,-0.75035 -8.04757,-0.60184 -5.6081,0.4191 -6.51122,-0.48684 -6.08613,0.45544 6.18385,0.46284 -6.8132,0.50942 -6.81214,-0.50942 3.94864,-0.29562 -4.71734,-0.35278 -15.08302,1.12748 5.34459,0.39969 -16.94815,1.26683 9.98114,0.74648 -5.26733,0.3937 6.49429,0.48542 -9.93704,0.74295 8.84978,0.66216 -12.26079,0.91617 16.84972,1.26047 -7.71489,0.57715 8.14422,0.60854 2.10609,-0.15734 6.12528,0.45826 9.10025,-0.68086 4.0887,0.53234 -10.60521,0.79339 14.55843,1.08797 3.18312,-0.23777 -5.73088,-0.42898 8.18339,-0.61207 5.73581,0.42898 3.75462,-0.28046 5.3467,0.3997 15.08266,-1.12748 -5.34388,-0.3997 16.9478,-1.26682 z"
       fill="#dedfdf"
       id="path51"
       sodipodi:nodetypes="ccccccccccccccccccccccccccccccccccccccccccccccccccccccccccc"
       style="stroke-width:0.352778" />
    <path
       stroke-width="0.440972"
       stroke-linecap="butt"
       stroke-miterlimit="10"
       stroke-linejoin="miter"
       fill="none"
       stroke="#000000"
       d="M 197.63873,103.00661 H 86.9039 V 81.613434 h 110.73483 z"
       id="path91"
       sodipodi:nodetypes="ccccc" />
    <path
       stroke-width="0.485069"
       stroke-linecap="butt"
       stroke-miterlimit="10"
       stroke-linejoin="miter"
       fill="none"
       stroke="#000000"
       d="m 197.53977,86.214534 v 13.45565 c 5.13891,-0.03 5.80743,0 6.68373,-1.13877 v -13.22916 c -1.64359,0.87277 -3.34187,0.89923 -6.68373,0.91228 z"
       id="path60" />
    <path
       stroke-width="0.264583"
       stroke-linecap="butt"
       stroke-miterlimit="10"
       stroke-linejoin="miter"
       fill="none"
       stroke="#000000"
       d="m 197.32634,87.214654 c 5.72735,-0.0191 6.23958,-0.41487 6.75816,-0.81245 m -6.54544,12.16942 c 6.91515,0.78705 6.32602,-1.26259 6.63364,-1.32432"
       id="path62" />
    <path
       stroke-width="0.440972"
       stroke-linecap="butt"
       stroke-miterlimit="10"
       stroke-linejoin="miter"
       fill="none"
       stroke="#000000"
       d="m 86.16374,79.388064 -3.5e-4,25.843786 c 0.36971,-0.88758 0.74012,-1.25765 0.74012,-1.25765 l 3.6e-4,-23.328836 c 0,0 -0.37042,-0.36901 -0.74013,-1.2573 z"
       id="path98" />
    <path
       stroke-width="0.440972"
       stroke-linecap="butt"
       stroke-miterlimit="10"
       stroke-linejoin="miter"
       fill="none"
       stroke="#000000"
       d="m 86.90373,84.396214 c 0,0 0.37641,-3.64525 2.96369,-3.64525 h 7.76111 c 0,0 2.528,0.86254 7.23194,0.86254 M 86.90338,100.22394 c 0,0 0.37641,3.64525 2.96368,3.64525 h 7.76111 c 0,0 2.52801,-0.86254 7.23195,-0.86254"
       id="path100" />
    <path
       stroke-width="0.440972"
       stroke-linecap="butt"
       stroke-miterlimit="10"
       stroke-linejoin="miter"
       fill="none"
       stroke="#000000"
       d="m 198.37861,79.388064 3.5e-4,25.843786 c -0.36971,-0.88758 -0.74012,-1.25765 -0.74012,-1.25765 l -3.6e-4,-23.328836 c 0,0 0.37042,-0.36901 0.74013,-1.2573 z"
       id="path104" />
  </g>
</svg>
