<?xml version="1.0" encoding="UTF-8" standalone="no"?>
<!-- Created with Inkscape (http://www.inkscape.org/) -->

<svg
   width="79.375015mm"
   height="66.145866mm"
   viewBox="0 0 79.375014 66.145865"
   version="1.1"
   id="svg6987"
   sodipodi:docname="attack-and-spellcasting-border.svg"
   inkscape:version="1.1 (c68e22c387, 2021-05-23)"
   xmlns:inkscape="http://www.inkscape.org/namespaces/inkscape"
   xmlns:sodipodi="http://sodipodi.sourceforge.net/DTD/sodipodi-0.dtd"
   xmlns="http://www.w3.org/2000/svg"
   xmlns:svg="http://www.w3.org/2000/svg">
  <sodipodi:namedview
     id="namedview6989"
     pagecolor="#ffffff"
     bordercolor="#666666"
     borderopacity="1.0"
     inkscape:pageshadow="2"
     inkscape:pageopacity="0.0"
     inkscape:pagecheckerboard="0"
     inkscape:document-units="mm"
     showgrid="false"
     inkscape:zoom="2"
     inkscape:cx="81.5"
     inkscape:cy="152.75"
     inkscape:window-width="2560"
     inkscape:window-height="1377"
     inkscape:window-x="-8"
     inkscape:window-y="-8"
     inkscape:window-maximized="1"
     inkscape:current-layer="layer1" />
  <defs
     id="defs6984" />
  <g
     inkscape:label="Layer 1"
     inkscape:groupmode="layer"
     id="layer1"
     transform="translate(-27.166937,-41.387963)">
    <path
       d="m 104.92491,97.581807 -10e-4,-46.236788 c 0.2183,-1.264031 0.74474,-3.825597 1.55924,-4.768143 l 0.0588,-0.06822 -0.1702,-0.03743 c -0.012,-0.0028 -0.52226,-0.117758 -1.0397,-0.311137 0.1676,-0.340711 0.38408,-0.662448 0.66044,-0.946741 l 0.0338,-0.03422 -0.70055,-2.784269 -0.30327,-0.03352 c -0.7123,-0.07884 -2.74202,-0.395393 -2.74202,-0.804092 v -0.169284 h -70.8524 v 0.169245 c 0,0.409188 -1.979273,0.719103 -2.741279,0.804089 l -0.303972,0.03373 -0.700522,2.784017 0.03387,0.03422 c 0.276339,0.283797 0.491192,0.60455 0.659067,0.944514 -0.515371,0.195111 -1.026598,0.3109 -1.038344,0.313365 l -0.169933,0.0377 0.05871,0.06801 c 0.81313,0.941309 1.339553,3.496961 1.557861,4.762717 l 0.0014,46.237286 c -0.218308,1.264024 -0.744737,3.825594 -1.559245,4.767894 l -0.05871,0.0682 0.169932,0.0378 c 0.01176,0.002 0.522283,0.11726 1.039728,0.3109 -0.167852,0.3407 -0.38342,0.66244 -0.660451,0.94673 l -0.03387,0.0345 0.700522,2.78402 0.303972,0.0336 c 0.762006,0.085 2.741279,0.39514 2.741279,0.80409 v 0.16924 h 70.852575 v -0.16924 c 0,-0.40895 1.97928,-0.71911 2.74196,-0.80409 l 0.30328,-0.0336 0.70054,-2.78402 -0.0338,-0.0345 c -0.27566,-0.28356 -0.49118,-0.60456 -0.65906,-0.94451 0.51536,-0.19511 1.0266,-0.3109 1.03832,-0.31311 l 0.17,-0.038 -0.0588,-0.068 c -0.81312,-0.94107 -1.33956,-3.496975 -1.55786,-4.762974 m -1.08254,6.268174 c 0.004,0.004 0.1258,0.10618 0.28668,0.25916 0.0712,0.22911 0.1266,0.70531 -0.37582,1.2293 -0.83246,0.86813 -2.86838,1.50323 -5.899148,1.8565 H 35.832575 c -6.509854,-0.75531 -6.438696,-2.54505 -6.259768,-3.07963 0.16717,-0.16088 0.299137,-0.27222 0.307428,-0.28035 0.250777,-0.38111 -0.0981,-0.71074 -0.591367,-0.96669 0.954064,-1.86488 0.468397,-4.239959 0.444218,-4.347119 l -0.0014,-48.107835 c 0.02555,-0.11801 0.511919,-2.497525 -0.444907,-4.363145 0.491194,-0.258176 0.836618,-0.59124 0.579622,-0.978501 -0.0036,-0.0035 -0.126423,-0.106424 -0.287393,-0.259168 -0.07117,-0.228867 -0.126424,-0.70506 0.375821,-1.229296 0.833161,-0.868146 2.868398,-1.50324 5.899836,-1.856507 h 4.614604 8.304411 49.101815 c 6.509865,0.755311 6.438685,2.545059 6.259785,3.079637 -0.16721,0.16088 -0.29916,0.27222 -0.30744,0.2806 -0.25078,0.381108 0.0982,0.710478 0.59206,0.966434 -0.95478,1.865138 -0.4691,4.23996 -0.44494,4.347124 l 0.001,48.108087 c -0.0256,0.117765 -0.5119,2.497269 0.44492,4.363149 -0.49052,0.25817 -0.83596,0.59122 -0.57892,0.97825 m 2.0905,-57.261042 c -0.4829,0.608733 -0.85872,1.739978 -1.12814,2.817278 -0.0506,-0.806065 -0.016,-1.979433 0.42418,-3.021264 0.28464,0.09436 0.54368,0.163825 0.70396,0.203986 m -1.6145,-1.444609 c 0.024,-0.02019 0.32056,-0.268526 0.59966,-0.575969 l 0.1428,0.568818 c -0.19141,0.20201 -0.35232,0.420528 -0.4912,0.648648 -0.26601,-0.187722 -0.4062,-0.405249 -0.25146,-0.641497 m 0.1174,-2.496777 0.35023,1.393855 c -0.0706,0.119979 -0.16479,0.245124 -0.26872,0.365341 -0.0222,-0.242897 -0.1306,-0.543211 -0.438,-0.863209 -0.56857,-0.593216 -1.94541,-1.344847 -5.20484,-1.816849 h 2.51261 c 0.35372,0.518573 2.26323,0.818125 3.04871,0.920862 M 32.320758,41.726689 h 2.509159 c -4.699144,0.680179 -5.557174,1.956032 -5.627642,2.693116 -0.107741,-0.124154 -0.207254,-0.253993 -0.280486,-0.3784 l 0.350259,-1.393854 c 0.785496,-0.102737 2.695692,-0.402289 3.04871,-0.920862 m -3.673925,3.410488 0.143015,-0.568818 c 0.276339,0.304489 0.567876,0.548126 0.585837,0.56094 0.157505,0.239699 0.02141,0.459935 -0.241796,0.649627 -0.137472,-0.225649 -0.297753,-0.441953 -0.487045,-0.641749 m -0.168572,1.247039 c 0.440763,1.040345 0.475302,2.21298 0.424872,3.021496 -0.270123,-1.077042 -0.64525,-2.208042 -1.128155,-2.816775 0.160989,-0.04015 0.420036,-0.109881 0.703283,-0.204721 m -0.703283,55.948474 c 0.482905,-0.60874 0.858725,-1.73975 1.128155,-2.817034 0.05041,0.805814 0.01662,1.979434 -0.424177,3.021024 -0.283942,-0.0944 -0.543005,-0.16409 -0.703978,-0.20399 m 1.614512,1.44461 c -0.02417,0.0205 -0.320553,0.26852 -0.599655,0.57596 l -0.143014,-0.56857 c 0.191367,-0.20201 0.35302,-0.42028 0.491193,-0.64841 0.266664,0.18772 0.406217,0.40502 0.251467,0.64102 m -0.117433,2.49677 -0.35026,-1.39361 c 0.07047,-0.11973 0.165771,-0.24487 0.268743,-0.36534 0.02209,0.24315 0.130586,0.54296 0.437996,0.86297 0.568564,0.5937 1.945422,1.34483 5.204843,1.81684 h -2.512619 c -0.353019,-0.51856 -2.263213,-0.81813 -3.048708,-0.92086 m 72.114806,0.92086 h -2.509137 c 4.699117,-0.67993 5.557157,-1.95603 5.628317,-2.69286 0.1072,0.12416 0.20656,0.25374 0.27976,0.37813 l -0.35024,1.39387 c -0.78548,0.10273 -2.69498,0.4023 -3.0487,0.92086 m 3.67392,-3.41024 -0.14279,0.56857 c -0.27634,-0.30473 -0.56788,-0.54763 -0.58516,-0.56068 -0.15821,-0.23996 -0.0222,-0.45995 0.2411,-0.64988 0.13741,0.22565 0.29778,0.44195 0.48706,0.64199 m 0.16859,-1.24728 c -0.44076,-1.0401 -0.47532,-2.21273 -0.42486,-3.021264 0.27012,1.077054 0.64524,2.207804 1.12814,2.816544 -0.16021,0.0402 -0.41932,0.10988 -0.70328,0.20472"
       id="path776"
       sodipodi:nodetypes="ccccccccccsccscccccccsccccccccccsccscccccccscccccccccccccccccccccccccccccccccccccccccccccccccccccccccccccccccccccccccccccccccccccccc"
       style="stroke-width:0.412543" />
  </g>
</svg>
