<?xml version="1.0" encoding="UTF-8" standalone="no"?>
<!-- Created with Inkscape (http://www.inkscape.org/) -->

<svg
   width="79.375mm"
   height="84.666656mm"
   viewBox="0 0 79.375001 84.666655"
   version="1.1"
   id="svg3126"
   inkscape:version="1.1 (c68e22c387, 2021-05-23)"
   sodipodi:docname="feat-trait-border.svg"
   xmlns:inkscape="http://www.inkscape.org/namespaces/inkscape"
   xmlns:sodipodi="http://sodipodi.sourceforge.net/DTD/sodipodi-0.dtd"
   xmlns="http://www.w3.org/2000/svg"
   xmlns:svg="http://www.w3.org/2000/svg">
  <sodipodi:namedview
     id="namedview3128"
     pagecolor="#ffffff"
     bordercolor="#666666"
     borderopacity="1.0"
     inkscape:pageshadow="2"
     inkscape:pageopacity="0.0"
     inkscape:pagecheckerboard="0"
     inkscape:document-units="mm"
     showgrid="false"
     inkscape:zoom="0.74118967"
     inkscape:cx="203.05194"
     inkscape:cy="224.63886"
     inkscape:window-width="2560"
     inkscape:window-height="1377"
     inkscape:window-x="-8"
     inkscape:window-y="-8"
     inkscape:window-maximized="1"
     inkscape:current-layer="layer1" />
  <defs
     id="defs3123" />
  <g
     inkscape:label="Layer 1"
     inkscape:groupmode="layer"
     id="layer1"
     transform="translate(-51.282324,-89.134614)">
    <path
       d="M 129.64359,167.96214 V 90.027964 l -0.1885,-0.02996 c -0.47921,-0.07632 -1.72273,-0.355153 -1.72273,-0.726707 V 89.134614 H 54.264307 v 0.136681 c 0,0.371555 -1.243961,0.650385 -1.723598,0.726709 l -0.188505,0.02996 v 77.818046 c -0.273525,0.55744 -1.341864,2.85521 -1.004788,4.08207 l 0.01846,0.0673 0.127101,0.0212 c 0.01156,0.003 0.367135,0.0632 0.859223,0.17342 v 0.71818 l 0.188505,0.0297 c 0.479637,0.0759 1.723598,0.35407 1.723598,0.72671 v 0.13668 h 73.468057 v -0.13668 c 0,-0.37155 1.24352,-0.65037 1.72273,-0.72671 l 0.1885,-0.03 v -0.73014 c 0.46161,-0.10216 0.79224,-0.15922 0.80297,-0.16118 l 0.12711,-0.0212 0.0185,-0.0673 c 0.31732,-1.15402 -0.60975,-3.25629 -0.94854,-3.96594 M 52.88895,91.495156 c 0.07041,-0.0748 0.19151,-0.197915 0.362411,-0.350123 v 77.004737 c 0,0.74201 -0.123237,1.5833 -0.362411,2.50749 z m 0,79.928184 c 0.383021,-1.23013 0.577109,-2.32949 0.577109,-3.27357 V 90.961552 c 0.710651,-0.583904 1.975653,-1.396337 3.642572,-1.553575 h 67.778109 c 1.66606,0.157238 2.93191,0.970328 3.64299,1.55423 v 77.187563 c 0,0.94408 0.1941,2.04344 0.57712,3.27357 v 0.63683 c -1.16109,0.27905 -2.76961,0.78225 -3.04829,1.46785 H 55.880985 c -0.274384,-0.67467 -1.83567,-1.17262 -2.992035,-1.45429 z m 75.85548,-80.277651 c 0.17091,0.151988 0.292,0.274894 0.36242,0.349685 v 79.161886 c -0.23918,-0.92419 -0.36242,-1.76548 -0.36242,-2.50749 z m 0.36242,-0.920248 v 0.796906 c -0.54576,-0.487678 -1.55527,-1.231881 -2.95683,-1.61437 h 1.07607 c 0.2074,0.456188 1.40757,0.727145 1.88076,0.817464 M 54.770566,89.407977 h 1.075209 c -1.40155,0.382489 -2.411062,1.126692 -2.956825,1.61437 v -0.796906 c 0.473624,-0.09032 1.674217,-0.361276 1.881616,-0.817464 m -3.014364,82.423663 c -0.181205,-0.80763 0.231015,-2.08566 0.596002,-2.99015 v 3.10889 c -0.258497,-0.0556 -0.469331,-0.0955 -0.596002,-0.11874 m 1.132748,0.87891 v -0.39146 c 1.027117,0.26134 2.281384,0.67991 2.551904,1.20893 h -0.670288 c -0.207399,-0.4562 -1.407992,-0.72715 -1.881616,-0.81747 m 76.2179,0 c -0.47319,0.0903 -1.67336,0.36127 -1.88076,0.81747 h -0.72739 c 0.27524,-0.53799 1.57158,-0.96268 2.60815,-1.22313 z m 1.07649,-0.87891 c -0.11721,0.0215 -0.30874,0.0582 -0.53975,0.1069 v -2.95581 c 0.34911,0.89246 0.71151,2.08214 0.53975,2.84888"
       id="path243"
       style="stroke-width:0.306439" />
  </g>
</svg>
