<?xml version="1.0" encoding="UTF-8" standalone="no"?>
<!-- Created with Inkscape (http://www.inkscape.org/) -->

<svg
   width="26.458334mm"
   height="24.958151mm"
   viewBox="0 0 26.458333 24.958151"
   version="1.1"
   id="svg5601"
   inkscape:version="1.1 (c68e22c387, 2021-05-23)"
   sodipodi:docname="ins-sp-border.svg"
   xmlns:inkscape="http://www.inkscape.org/namespaces/inkscape"
   xmlns:sodipodi="http://sodipodi.sourceforge.net/DTD/sodipodi-0.dtd"
   xmlns="http://www.w3.org/2000/svg"
   xmlns:svg="http://www.w3.org/2000/svg">
  <sodipodi:namedview
     id="namedview5603"
     pagecolor="#ffffff"
     bordercolor="#666666"
     borderopacity="1.0"
     inkscape:pageshadow="2"
     inkscape:pageopacity="0.0"
     inkscape:pagecheckerboard="0"
     inkscape:document-units="mm"
     showgrid="false"
     inkscape:zoom="4.8177329"
     inkscape:cx="91.329264"
     inkscape:cy="63.619135"
     inkscape:window-width="2560"
     inkscape:window-height="1377"
     inkscape:window-x="-8"
     inkscape:window-y="-8"
     inkscape:window-maximized="1"
     inkscape:current-layer="layer1" />
  <defs
     id="defs5598" />
  <g
     inkscape:label="Layer 1"
     inkscape:groupmode="layer"
     id="layer1"
     transform="translate(-4.4052673,1.6625052)">
    <path
       d="M 28.324634,-1.6625052 H 6.9437275 L 4.4052673,0.87646159 V 20.757185 l 2.5384602,2.53846 H 28.324634 l 2.538967,-2.53846 V 0.87646159 Z m 1.842562,2.8276584 V 3.1277496 C 29.960553,2.5088354 29.667303,1.8488965 29.256044,1.2254239 v -0.03596 h -0.0233 C 28.647765,0.31477912 27.823729,-0.47886957 26.66491,-0.96610004 h 1.371033 z M 25.683866,22.599239 H 9.5718342 C 8.2479046,22.279147 7.1883557,21.54982 6.3921746,20.432026 V 1.212762 C 7.0845281,0.24285946 8.0990004,-0.59991747 9.5844961,-0.96610004 H 25.696527 c 1.323929,0.32009321 2.383478,1.04891293 3.17966,2.16670664 V 20.420377 c -0.691847,0.969903 -1.706826,1.81268 -3.192321,2.178862 M 5.1016725,4.2779579 C 5.2546284,3.5602807 5.5281257,2.6668561 6.0123172,1.8098978 V 19.830839 C 5.9277356,19.680415 5.8385957,19.537589 5.7616113,19.375517 5.4288562,18.674552 5.2262656,17.970043 5.1016725,17.380505 Z M 29.256044,1.8023007 c 0.08458,0.1504235 0.174228,0.2932499 0.250706,0.4548159 0.332755,0.70147 0.535852,1.4059789 0.660446,1.9955175 V 17.354676 c -0.153463,0.718182 -0.42696,1.611607 -0.911152,2.46806 z M 7.2329256,-0.96610004 h 1.371032 C 7.4446329,-0.47886957 6.621102,0.31477912 6.0356152,1.1894641 h -0.023298 v 0.03596 C 5.6010583,1.8488965 5.3078083,2.5088354 5.1016725,3.1277496 V 1.1651532 Z M 5.1016725,20.468492 V 18.50539 c 0.2061358,0.618407 0.4993858,1.278852 0.9106447,1.901819 v 0.03647 h 0.023298 c 0.5854869,0.87418 1.4090178,1.668334 2.5683425,2.155564 H 7.2329256 Z M 28.035943,22.599239 H 26.66491 c 1.158819,-0.48723 1.982855,-1.281384 2.567837,-2.155564 h 0.0233 v -0.03647 c 0.41126,-0.622967 0.704509,-1.283412 0.911152,-1.901819 v 1.963102 z"
       id="path141"
       style="stroke-width:0.506477" />
  </g>
</svg>
