<?xml version="1.0" encoding="UTF-8" standalone="no"?>
<!-- Created with Inkscape (http://www.inkscape.org/) -->

<svg
   width="79.374992mm"
   height="26.458651mm"
   viewBox="0 0 79.374992 26.45865"
   version="1.1"
   id="svg2244"
   inkscape:version="1.1 (c68e22c387, 2021-05-23)"
   sodipodi:docname="right-info-bar-3.svg"
   xmlns:inkscape="http://www.inkscape.org/namespaces/inkscape"
   xmlns:sodipodi="http://sodipodi.sourceforge.net/DTD/sodipodi-0.dtd"
   xmlns="http://www.w3.org/2000/svg"
   xmlns:svg="http://www.w3.org/2000/svg">
  <sodipodi:namedview
     id="namedview2246"
     pagecolor="#ffffff"
     bordercolor="#666666"
     borderopacity="1.0"
     inkscape:pageshadow="2"
     inkscape:pageopacity="0.0"
     inkscape:pagecheckerboard="0"
     inkscape:document-units="mm"
     showgrid="false"
     inkscape:zoom="0.74118967"
     inkscape:cx="584.87054"
     inkscape:cy="72.181254"
     inkscape:window-width="2560"
     inkscape:window-height="1377"
     inkscape:window-x="-8"
     inkscape:window-y="-8"
     inkscape:window-maximized="1"
     inkscape:current-layer="layer1" />
  <defs
     id="defs2241" />
  <g
     inkscape:label="Layer 1"
     inkscape:groupmode="layer"
     id="layer1"
     transform="translate(49.440937,-129.7381)">
    <path
       d="m 28.309894,129.74022 -0.06882,0.13694 c -0.01444,0.0293 -0.338309,0.64145 -1.195871,0.76868 -0.08132,-0.1188 -0.204043,-0.20122 -0.348895,-0.20122 -0.141002,0 -0.260348,0.0767 -0.342158,0.18898 -0.610208,-0.0864 -1.300781,-0.36625 -2.066908,-0.85973 l -0.05582,-0.0356 h -67.969723 l -0.05581,0.0356 c -0.766608,0.49348 -1.456701,0.7735 -2.066908,0.85973 -0.08132,-0.1123 -0.201638,-0.18898 -0.341676,-0.18898 -0.145334,0 -0.268049,0.0826 -0.349379,0.20122 -0.857562,-0.1273 -1.180952,-0.7394 -1.194908,-0.76656 l -0.06786,-0.14115 h -1.626095 v 26.45753 l 1.624171,-0.001 0.06882,-0.13694 c 0.01442,-0.0293 0.338309,-0.64148 1.195871,-0.76868 0.08132,0.1192 0.204045,0.20122 0.348897,0.20122 0.14052,0 0.260348,-0.0767 0.342158,-0.18898 0.610207,0.0862 1.3003,0.36626 2.066908,0.85971 l 0.05581,0.0356 H 24.23141 l 0.05582,-0.0356 c 0.766128,-0.49345 1.4567,-0.77348 2.066907,-0.85971 0.08084,0.1123 0.201156,0.18898 0.341677,0.18898 0.144852,0 0.268049,-0.082 0.349378,-0.20122 0.857561,0.1273 1.180951,0.73941 1.194426,0.76656 l 0.06834,0.14115 h 1.626095 V 129.7381 Z m -77.2696,7.07419 c 0.309433,2.45407 0.466318,4.67123 0.466318,6.61427 v -0.92362 c 0,1.94303 -0.156885,4.16019 -0.466318,6.61424 z m 78.412535,18.84889 h -0.871036 c -0.173246,-0.26032 -0.632825,-0.79424 -1.507712,-0.90977 -0.07747,-0.14523 -0.214631,-0.2486 -0.378251,-0.2486 -0.170358,0 -0.313766,0.10978 -0.388357,0.26511 -0.663624,0.0916 -1.400396,0.38328 -2.205503,0.89326 h -67.710818 c -0.805105,-0.50998 -1.541879,-0.80169 -2.205503,-0.89326 -0.0746,-0.15542 -0.217999,-0.26511 -0.388837,-0.26511 -0.163621,0 -0.300773,0.10327 -0.377771,0.2486 -0.874887,0.11549 -1.334465,0.64945 -1.507711,0.90977 h -0.871036 v -4.78888 c 0.467279,-3.15569 0.706936,-5.97066 0.706936,-8.36936 v 0.92362 c 0,-2.39871 -0.239657,-5.21369 -0.706936,-8.36936 v -4.78889 h 0.871036 c 0.173246,0.2603 0.632824,0.79424 1.507711,0.90976 0.07747,0.14583 0.21415,0.2486 0.378252,0.2486 0.170357,0 0.313765,-0.10978 0.388356,-0.2651 0.663624,-0.0916 1.400398,-0.38327 2.205503,-0.89326 H 24.10197 c 0.805107,0.50999 1.541879,0.8017 2.205503,0.89326 0.07459,0.15543 0.217999,0.2651 0.388839,0.2651 0.163138,0 0.300771,-0.10274 0.377769,-0.2486 0.874887,-0.11548 1.334466,-0.64946 1.507712,-0.90976 h 0.871036 v 4.78889 c -0.467761,3.15567 -0.706935,5.97065 -0.706935,8.36936 v -0.92362 c 0,2.3987 0.239174,5.21367 0.706935,8.36936 z m 0,-6.544 c -0.309434,-2.45405 -0.466317,-4.67121 -0.466317,-6.61424 v 0.92362 c 0,-1.94304 0.156883,-4.1602 0.466317,-6.61427 z"
       id="path151"
       style="stroke-width:0.50614" />
  </g>
</svg>
