<?xml version="1.0" encoding="UTF-8" standalone="no"?>
<!-- Created with Inkscape (http://www.inkscape.org/) -->

<svg
   width="79.375mm"
   height="26.458342mm"
   viewBox="0 0 79.374998 26.458342"
   version="1.1"
   id="svg5829"
   sodipodi:docname="saving-throw-border.svg"
   inkscape:version="1.1 (c68e22c387, 2021-05-23)"
   xmlns:inkscape="http://www.inkscape.org/namespaces/inkscape"
   xmlns:sodipodi="http://sodipodi.sourceforge.net/DTD/sodipodi-0.dtd"
   xmlns="http://www.w3.org/2000/svg"
   xmlns:svg="http://www.w3.org/2000/svg">
  <sodipodi:namedview
     id="namedview5831"
     pagecolor="#ffffff"
     bordercolor="#666666"
     borderopacity="1.0"
     inkscape:pageshadow="2"
     inkscape:pageopacity="0.0"
     inkscape:pagecheckerboard="0"
     inkscape:document-units="mm"
     showgrid="false"
     inkscape:zoom="1.2044332"
     inkscape:cx="291.42338"
     inkscape:cy="259.45814"
     inkscape:window-width="2560"
     inkscape:window-height="1377"
     inkscape:window-x="-8"
     inkscape:window-y="-8"
     inkscape:window-maximized="1"
     inkscape:current-layer="layer1" />
  <defs
     id="defs5826" />
  <g
     inkscape:label="Layer 1"
     inkscape:groupmode="layer"
     id="layer1"
     transform="translate(-12.245615,-50.954043)">
    <path
       d="m 90.004012,66.952407 -0.0015,-4.496944 c 0.218304,-1.328598 0.744729,-5.056761 1.559238,-6.04745 l 0.05867,-0.07172 -0.169938,-0.03935 c -0.0117,-0.0025 -0.522281,-0.123773 -1.039733,-0.327037 0.167864,-0.35811 0.384117,-0.696539 0.660453,-0.99509 l 0.03379,-0.03602 -0.700518,-2.926493 -0.303277,-0.03523 C 89.388973,51.894253 87.359258,51.56152 87.359258,51.131946 V 50.954043 H 16.506767 v 0.177889 c 0,0.429834 -1.979275,0.755835 -2.741281,0.845168 l -0.303972,0.03549 -0.700523,2.926237 0.03384,0.03602 c 0.276335,0.298293 0.491193,0.635427 0.659073,0.992761 -0.51538,0.205076 -1.026609,0.326776 -1.038348,0.329366 l -0.169941,0.03962 0.05868,0.07147 c 0.813135,0.989394 1.339551,4.71134 1.557863,6.041756 l 0.0014,4.497456 c -0.218318,1.328606 -0.744748,4.02103 -1.559258,5.01146 l -0.05868,0.07174 0.169941,0.03962 c 0.0117,0.0022 0.522276,0.123254 1.039723,0.32678 -0.167881,0.358094 -0.383421,0.696281 -0.660448,0.995101 l -0.03384,0.03605 0.700522,2.926243 0.303974,0.03505 c 0.762004,0.08931 2.741281,0.415324 2.741281,0.845159 v 0.177905 H 87.35943 v -0.177901 c 0,-0.429835 1.979278,-0.755853 2.74198,-0.845159 l 0.303279,-0.03505 0.70052,-2.926243 -0.03381,-0.03605 c -0.275651,-0.29805 -0.49119,-0.635456 -0.65907,-0.992773 0.515377,-0.205081 1.026598,-0.326765 1.038346,-0.329108 l 0.16994,-0.03988 -0.05867,-0.07148 c -0.813162,-0.989142 -1.339587,-3.675619 -1.5579,-5.006293 m -1.082556,6.588375 c 0.0035,0.0033 0.125745,0.111619 0.286701,0.272415 0.0712,0.240798 0.12642,0.74132 -0.375818,1.292074 -0.832476,0.912493 -2.868405,1.580025 -5.899153,1.951349 H 20.911618 c -6.509858,-0.793887 -6.438693,-2.675064 -6.259766,-3.23695 0.167178,-0.169097 0.299133,-0.286131 0.307422,-0.294687 0.250781,-0.400569 -0.09815,-0.747034 -0.591369,-1.016073 0.954066,-1.960146 0.468399,-4.456541 0.444222,-4.569179 l -0.0014,-7.499307 c 0.02557,-0.12403 0.51192,-2.625091 -0.444901,-4.586016 0.491196,-0.271364 0.83661,-0.621446 0.579622,-1.028492 -0.0036,-0.0033 -0.12642,-0.111863 -0.2874,-0.272403 -0.07121,-0.24055 -0.126405,-0.741075 0.375825,-1.292091 0.833163,-0.912489 2.868395,-1.580286 5.899839,-1.951342 h 62.020889 c 6.509861,0.7939 6.438702,2.675069 6.259776,3.236961 -0.167176,0.169084 -0.29914,0.286123 -0.307429,0.294668 -0.250773,0.400575 0.09813,0.747031 0.592053,1.016067 -0.954747,1.960403 -0.469083,4.456548 -0.444903,4.569184 l 0.0015,7.499564 c -0.02556,0.123773 -0.511918,2.624845 0.444911,4.586042 -0.490502,0.271349 -0.835935,0.621434 -0.57893,1.028216 m 2.090502,-17.120078 c -0.482905,0.63983 -0.858727,1.828866 -1.128156,2.961194 -0.05046,-0.84724 -0.01667,-2.080552 0.424178,-3.175593 0.284631,0.09917 0.5437,0.172192 0.703978,0.214399 m -1.614517,-1.518407 c 0.02423,-0.02122 0.320556,-0.28224 0.599662,-0.605392 l 0.143025,0.597884 c -0.191355,0.212326 -0.352336,0.442006 -0.491196,0.68152 -0.265969,-0.197053 -0.406219,-0.425692 -0.25147,-0.674012 m 0.117435,-2.624317 0.350265,1.464804 c -0.07052,0.126357 -0.165099,0.257638 -0.268742,0.384259 -0.02215,-0.25557 -0.130575,-0.570955 -0.437997,-0.907313 -0.568572,-0.623519 -1.945429,-1.413532 -5.20485,-1.909653 h 2.512617 c 0.353712,0.54506 2.263218,0.859927 3.048707,0.967903 M 17.400049,51.310087 h 2.509158 c -4.699146,0.714923 -5.557179,2.055952 -5.627648,2.830429 -0.10776,-0.130244 -0.207253,-0.2667 -0.280483,-0.397465 l 0.350251,-1.465068 c 0.785499,-0.107976 2.695695,-0.422844 3.048717,-0.967903 m -3.67393,3.584711 0.143025,-0.597883 c 0.276334,0.320046 0.567871,0.576132 0.585834,0.589337 0.1575,0.252204 0.02148,0.483695 -0.2418,0.683075 -0.137475,-0.237187 -0.297749,-0.464533 -0.487043,-0.674529 m -0.168579,1.310732 c 0.440763,1.093489 0.475307,2.326023 0.424872,3.175854 -0.270124,-1.132071 -0.645256,-2.320846 -1.128154,-2.960676 0.160974,-0.04221 0.420036,-0.115487 0.703282,-0.215178 m -0.703288,15.740451 c 0.482898,-0.63983 0.858721,-1.828587 1.128154,-2.960918 0.05046,0.84699 0.01666,2.080538 -0.424182,3.175333 -0.283935,-0.09918 -0.543009,-0.172462 -0.703972,-0.214415 m 1.614513,1.518417 c -0.02421,0.02124 -0.320558,0.282237 -0.599658,0.605398 L 13.726093,73.47217 c 0.191362,-0.21233 0.353019,-0.441752 0.491194,-0.681529 0.266667,0.197299 0.406215,0.425673 0.251466,0.67375 m -0.11745,2.624303 -0.350256,-1.464791 c 0.07052,-0.125848 0.165818,-0.257396 0.26874,-0.383992 0.02215,0.255546 0.130575,0.570691 0.438002,0.907049 0.568564,0.624028 1.945423,1.413522 5.204844,1.909644 H 17.40004 c -0.353024,-0.545051 -2.26322,-0.859915 -3.048719,-0.96791 m 72.114856,0.96791 h -2.509164 c 4.699152,-0.71464 5.557185,-2.055944 5.62834,-2.830442 0.107085,0.130523 0.206562,0.26673 0.279791,0.397486 l -0.350261,1.465046 c -0.785488,0.107995 -2.694997,0.422859 -3.048706,0.96791 m 3.673926,-3.584434 -0.14301,0.597619 c -0.276348,-0.320301 -0.567887,-0.575621 -0.585158,-0.589344 -0.158221,-0.252215 -0.02215,-0.483435 0.241106,-0.683075 0.137475,0.237182 0.297753,0.464549 0.487047,0.6748 m 0.168582,-1.311004 c -0.440766,-1.093237 -0.475305,-2.325779 -0.424875,-3.175594 0.270126,1.13207 0.645253,2.320572 1.128159,2.960402 -0.160283,0.04221 -0.419349,0.115501 -0.703284,0.215192"
       id="path179"
       style="stroke-width:0.422951" />
  </g>
</svg>
