<?xml version="1.0" encoding="UTF-8" standalone="no"?>
<!-- Created with Inkscape (http://www.inkscape.org/) -->

<svg
   width="71.437485mm"
   height="132.2917mm"
   viewBox="0 0 71.437484 132.2917"
   version="1.1"
   id="svg6987"
   sodipodi:docname="skill-border.svg"
   inkscape:version="1.1 (c68e22c387, 2021-05-23)"
   xmlns:inkscape="http://www.inkscape.org/namespaces/inkscape"
   xmlns:sodipodi="http://sodipodi.sourceforge.net/DTD/sodipodi-0.dtd"
   xmlns="http://www.w3.org/2000/svg"
   xmlns:svg="http://www.w3.org/2000/svg">
  <sodipodi:namedview
     id="namedview6989"
     pagecolor="#ffffff"
     bordercolor="#666666"
     borderopacity="1.0"
     inkscape:pageshadow="2"
     inkscape:pageopacity="0.0"
     inkscape:pagecheckerboard="0"
     inkscape:document-units="mm"
     showgrid="false"
     inkscape:zoom="2"
     inkscape:cx="81.75"
     inkscape:cy="152.75"
     inkscape:window-width="2560"
     inkscape:window-height="1377"
     inkscape:window-x="-8"
     inkscape:window-y="-8"
     inkscape:window-maximized="1"
     inkscape:current-layer="layer1" />
  <defs
     id="defs6984" />
  <g
     inkscape:label="Layer 1"
     inkscape:groupmode="layer"
     id="layer1"
     transform="translate(-27.166615,-41.387961)">
    <path
       d="m 97.149066,153.77568 -0.0012,-92.473599 c 0.196469,-2.528062 0.670265,-7.651196 1.403315,-9.536287 l 0.05292,-0.136445 -0.153174,-0.07486 c -0.01081,-0.0056 -0.470034,-0.235515 -0.935729,-0.622273 0.150833,-0.681423 0.345672,-1.324897 0.594396,-1.893484 l 0.03042,-0.06844 -0.630488,-5.568539 -0.272951,-0.06704 c -0.641063,-0.157673 -2.46781,-0.790785 -2.46781,-1.608184 V 41.387961 H 31.001619 v 0.33849 c 0,0.818377 -1.781345,1.438207 -2.46715,1.608178 l -0.273576,0.06746 -0.630469,5.568036 0.03048,0.06844 c 0.248704,0.567595 0.442073,1.209101 0.59316,1.889028 -0.463834,0.390222 -0.923938,0.6218 -0.934509,0.62673 l -0.15294,0.07541 0.05284,0.136026 c 0.731817,1.882618 1.205597,6.993924 1.402074,9.525436 l 0.0013,92.474595 c -0.196477,2.52805 -0.670263,7.6512 -1.40332,9.5358 l -0.05284,0.1364 0.152939,0.0755 c 0.01058,0.004 0.470054,0.23452 0.935755,0.62179 -0.151067,0.68141 -0.345079,1.32488 -0.594406,1.89347 l -0.03048,0.0691 0.630469,5.56804 0.273576,0.0671 c 0.685805,0.16997 2.46715,0.79028 2.46715,1.60819 v 0.33848 h 63.767294 v -0.33848 c 0,-0.81791 1.781351,-1.43822 2.467764,-1.60819 l 0.272951,-0.0671 0.630486,-5.56804 -0.03042,-0.0691 c -0.248093,-0.56712 -0.442063,-1.20912 -0.593155,-1.88903 0.463825,-0.39021 0.923941,-0.62179 0.934488,-0.62622 l 0.152994,-0.0759 -0.05292,-0.13598 c -0.731808,-1.88214 -1.205603,-6.99395 -1.402074,-9.52595 m -0.974286,12.53635 c 0.0036,0.007 0.113223,0.21236 0.258013,0.51833 0.06409,0.45821 0.113945,1.41062 -0.338238,2.4586 -0.749215,1.73627 -2.581541,3.00647 -5.309225,3.713 H 34.965979 c -5.858867,-1.51061 -5.794826,-5.0901 -5.633789,-6.15927 0.150453,-0.32175 0.269223,-0.54444 0.276685,-0.5607 0.225698,-0.76222 -0.08829,-1.42147 -0.532231,-1.93337 0.858657,-3.72977 0.421558,-8.47993 0.399796,-8.69425 l -0.0013,-96.215693 c 0.023,-0.23602 0.460727,-4.99505 -0.400416,-8.726291 0.442074,-0.516352 0.752956,-1.182482 0.52166,-1.957003 -0.0032,-0.007 -0.113781,-0.212848 -0.258654,-0.518336 -0.06405,-0.457735 -0.113782,-1.41012 0.338238,-2.458593 0.749846,-1.736292 2.581558,-3.006481 5.309851,-3.713015 h 4.153143 7.473968 44.191623 c 5.858872,1.510622 5.794809,5.090119 5.633801,6.159275 -0.15049,0.32176 -0.269246,0.544441 -0.276697,0.5612 -0.225701,0.762217 0.08839,1.420957 0.532854,1.932869 -0.859302,3.730277 -0.422191,8.479922 -0.400446,8.694251 l 0.0013,96.216196 c -0.02304,0.23553 -0.46071,4.99455 0.400427,8.7263 -0.441467,0.51635 -0.752363,1.18245 -0.521027,1.9565 M 98.056213,51.789909 c -0.434611,1.217467 -0.772848,3.479957 -1.015328,5.634557 -0.04553,-1.61213 -0.01441,-3.958866 0.381763,-6.042529 0.256176,0.188714 0.489313,0.327651 0.633565,0.407972 M 96.603164,48.90069 c 0.0216,-0.04037 0.288503,-0.537051 0.539693,-1.151938 l 0.128515,1.137636 c -0.172266,0.40402 -0.317087,0.841057 -0.442079,1.297298 -0.2394,-0.375444 -0.36558,-0.810499 -0.226313,-1.282996 m 0.105656,-4.993555 0.315215,2.787711 c -0.06355,0.239958 -0.14831,0.490249 -0.241848,0.730682 -0.01998,-0.485793 -0.117547,-1.086421 -0.394201,-1.726417 -0.511703,-1.186434 -1.750875,-2.689696 -4.684353,-3.6337 h 2.261357 c 0.318348,1.037147 2.036896,1.63625 2.74383,1.841724 M 31.805343,42.065417 h 2.258243 c -4.229229,1.360358 -5.001455,3.912065 -5.064876,5.386234 -0.09697,-0.248309 -0.186529,-0.507986 -0.252438,-0.7568 l 0.315234,-2.78771 c 0.706946,-0.205474 2.426121,-0.804578 2.743837,-1.841724 m -3.306531,6.820977 0.128714,-1.137636 c 0.248704,0.608979 0.511087,1.096252 0.527252,1.121881 0.141755,0.479397 0.01927,0.91987 -0.217615,1.299255 -0.123725,-0.451298 -0.267979,-0.883907 -0.438341,-1.2835 m -0.151715,2.49408 c 0.396686,2.08069 0.427773,4.42596 0.382385,6.042992 -0.24311,-2.154083 -0.580725,-4.416084 -1.015339,-5.633551 0.144889,-0.0803 0.378032,-0.219762 0.632954,-0.409441 M 27.714153,163.27745 c 0.434614,-1.21748 0.772852,-3.4795 1.015339,-5.63407 0.04537,1.61163 0.01495,3.95886 -0.381759,6.04204 -0.255548,-0.18871 -0.488705,-0.32817 -0.63358,-0.40797 m 1.45306,2.88921 c -0.02176,0.041 -0.288498,0.53705 -0.539689,1.15192 l -0.128713,-1.13714 c 0.17223,-0.40401 0.317718,-0.84056 0.442074,-1.29681 0.239998,0.37544 0.365595,0.81003 0.22632,1.28203 m -0.105689,4.99355 -0.315235,-2.78722 c 0.06342,-0.23947 0.149193,-0.48975 0.241869,-0.73068 0.01988,0.4863 0.117527,1.08592 0.394197,1.72594 0.511707,1.18741 1.750879,2.68967 4.684358,3.63368 h -2.261358 c -0.317717,-1.03712 -2.03689,-1.63626 -2.743836,-1.84172 m 64.903313,1.84172 h -2.258227 c 4.229207,-1.35985 5.001443,-3.91206 5.065486,-5.38573 0.09648,0.24832 0.185905,0.50748 0.251785,0.75628 l -0.315215,2.78773 c -0.706933,0.20546 -2.425482,0.8046 -2.743829,1.84172 m 3.306526,-6.82049 -0.128516,1.13714 c -0.248707,-0.60946 -0.511092,-1.09526 -0.526644,-1.12136 -0.142385,-0.47992 -0.01998,-0.9199 0.216989,-1.29976 0.123669,0.45131 0.268002,0.88391 0.438354,1.28398 m 0.151734,-2.49455 c -0.396684,-2.0802 -0.427789,-4.42546 -0.382376,-6.04253 0.243109,2.15411 0.580716,4.41561 1.015328,5.63309 -0.144187,0.0804 -0.37739,0.21976 -0.632952,0.40944"
       id="path776"
       sodipodi:nodetypes="ccccccccccsccscccccccsccccccccccsccscccccccscccccccccccccccccccccccccccccccccccccccccccccccccccccccccccccccccccccccccccccccccccccccc"
       style="stroke-width:0.553485" />
  </g>
</svg>
