<?xml version="1.0" encoding="UTF-8" standalone="no"?>
<!-- Created with Inkscape (http://www.inkscape.org/) -->

<svg
   width="63.500359mm"
   height="87.274757mm"
   viewBox="0 0 63.500359 87.274757"
   version="1.1"
   id="svg2685"
   inkscape:version="1.1 (c68e22c387, 2021-05-23)"
   sodipodi:docname="top-info-bar-background.svg"
   xmlns:inkscape="http://www.inkscape.org/namespaces/inkscape"
   xmlns:sodipodi="http://sodipodi.sourceforge.net/DTD/sodipodi-0.dtd"
   xmlns="http://www.w3.org/2000/svg"
   xmlns:svg="http://www.w3.org/2000/svg">
  <sodipodi:namedview
     id="namedview2687"
     pagecolor="#ffffff"
     bordercolor="#666666"
     borderopacity="1.0"
     inkscape:pageshadow="2"
     inkscape:pageopacity="0.0"
     inkscape:pagecheckerboard="0"
     inkscape:document-units="mm"
     showgrid="false"
     inkscape:zoom="0.74118967"
     inkscape:cx="119.40263"
     inkscape:cy="165.27483"
     inkscape:window-width="1920"
     inkscape:window-height="1017"
     inkscape:window-x="-8"
     inkscape:window-y="-8"
     inkscape:window-maximized="1"
     inkscape:current-layer="layer1" />
  <defs
     id="defs2682" />
  <g
     inkscape:label="Layer 1"
     inkscape:groupmode="layer"
     id="layer1"
     transform="translate(-73.377943,-105.04111)">
    <path
       d="m 139.14369,192.57427 c 0.092,-0.51633 0.16098,-1.36446 -0.11242,-2.25853 l 0.4924,-1.82929 v 3.5355 c -0.10267,0.16387 -0.22748,0.35131 -0.37998,0.55232 m 0.37998,-80.06752 v -3.53512 c -0.10236,-0.16352 -0.22748,-0.35019 -0.37961,-0.55084 0.092,0.51668 0.16023,1.36371 -0.11279,2.25632 z m -66.145663,-3.53512 v 3.53512 l 0.492417,-1.82964 c -0.272666,-0.89261 -0.204684,-1.73964 -0.112814,-2.25632 -0.152136,0.20065 -0.277077,0.38732 -0.379603,0.55084 m 61.942843,86.00995 h -22.87207 c -0.0494,0.0887 -0.14073,0.1514 -0.24989,0.1514 -0.15946,0 -0.28919,-0.13005 -0.28919,-0.28919 0,-0.16024 0.12973,-0.28993 0.28919,-0.28993 0.10916,0 0.20102,0.0629 0.25025,0.15211 h 22.87171 c 1.64043,0 2.82036,-0.94256 3.56455,-1.81238 0.0939,-0.36307 0.31121,-1.43538 -0.0371,-2.54844 l -0.008,-0.0258 0.007,-0.0258 0.67652,-2.51391 v -74.566 l -0.68348,-2.54035 0.008,-0.0254 c 0.34725,-1.11016 0.1323,-2.18062 0.0379,-2.54624 -0.74453,-0.8702 -1.92556,-1.81424 -3.56527,-1.81424 H 112.4489 c -0.0494,0.0891 -0.14072,0.15177 -0.24988,0.15177 -0.15947,0 -0.28919,-0.13009 -0.28919,-0.28957 0,-0.15986 0.12972,-0.28994 0.28919,-0.28994 0.10916,0 0.20102,0.0629 0.25025,0.15213 h 22.8717 c 2.10527,0 3.49177,1.45338 4.20282,2.46357 v -0.69455 c -0.67174,-0.72906 -2.24969,-2.18462 -4.50157,-2.73989 l -57.14545,7.4e-4 c -2.251523,0.55563 -3.82763,2.00973 -4.498639,2.73878 v 0.69492 c 0.711431,-1.01019 2.097553,-2.46357 4.203191,-2.46357 h 22.871328 c 0.0496,-0.0894 0.14148,-0.15213 0.25062,-0.15213 0.15912,0 0.28921,0.13008 0.28921,0.28994 0,0.15948 -0.13009,0.28957 -0.28921,0.28957 -0.10914,0 -0.20027,-0.0629 -0.24988,-0.15177 H 77.581198 c -1.639679,0 -2.821115,0.94404 -3.565253,1.81424 -0.09443,0.36562 -0.309414,1.43608 0.03748,2.54624 l 0.0085,0.0254 -0.0074,0.0258 -0.676521,2.51463 v 74.56564 l 0.68387,2.54001 -0.0085,0.0258 c -0.347264,1.11049 -0.13119,2.18135 -0.03748,2.5466 0.744138,0.87019 1.925574,1.81422 3.565253,1.81422 H 100.4525 c 0.0496,-0.0894 0.14148,-0.15212 0.25061,-0.15212 0.15912,0 0.28921,0.1297 0.28921,0.28994 0,0.15914 -0.13009,0.28919 -0.28921,0.28919 -0.10913,0 -0.20027,-0.0629 -0.24988,-0.1514 H 77.581198 c -2.105639,0 -3.49176,-1.45371 -4.203191,-2.46354 v 0.69452 c 0.671744,0.72945 2.250056,2.18501 4.50305,2.73955 l 57.142883,-7.3e-4 c 2.25188,-0.55491 3.82873,-2.00901 4.49973,-2.73845 v -0.69489 c -0.71105,1.00983 -2.09755,2.46354 -4.20282,2.46354 m -61.942843,-6.49513 v 3.53513 c 0.102524,0.16351 0.227467,0.35057 0.379603,0.55122 -0.09185,-0.51671 -0.159852,-1.36409 0.112814,-2.25706 z m 0,4.99399 v 0.94812 c 0,0 1.340184,0.79669 1.681568,1.52355 h 2.158555 c -1.832602,-0.61151 -3.161762,-1.76722 -3.840123,-2.47167 m 66.145663,-85.96769 v -0.94808 c 0,0 -1.3398,-0.79669 -1.68158,-1.52357 h -2.15743 c 1.83186,0.61149 3.16064,1.76756 3.83901,2.47165 m -3.83827,88.43862 h 2.15669 c 0.34178,-0.72613 1.68158,-1.52356 1.68158,-1.52356 v -0.94738 c -0.67837,0.70445 -2.0068,1.85943 -3.83827,2.47094 M 77.215926,105.04185 h -2.156351 c -0.341384,0.72614 -1.681568,1.52356 -1.681568,1.52356 v 0.94735 c 0.678361,-0.7041 2.006417,-1.85942 3.837919,-2.47091"
       fill="#dedfdf"
       id="path9"
       style="stroke-width:0.367475" />
  </g>
</svg>
