<?xml version="1.0" encoding="UTF-8" standalone="no"?>
<!-- Created with Inkscape (http://www.inkscape.org/) -->

<svg
   width="21.299829mm"
   height="159.80128mm"
   viewBox="0 0 21.299829 159.80128"
   version="1.1"
   id="svg2913"
   inkscape:version="1.1 (c68e22c387, 2021-05-23)"
   sodipodi:docname="attribute-bar-background.svg"
   xmlns:inkscape="http://www.inkscape.org/namespaces/inkscape"
   xmlns:sodipodi="http://sodipodi.sourceforge.net/DTD/sodipodi-0.dtd"
   xmlns="http://www.w3.org/2000/svg"
   xmlns:svg="http://www.w3.org/2000/svg">
  <sodipodi:namedview
     id="namedview2915"
     pagecolor="#ffffff"
     bordercolor="#666666"
     borderopacity="1.0"
     inkscape:pageshadow="2"
     inkscape:pageopacity="0.0"
     inkscape:pagecheckerboard="0"
     inkscape:document-units="mm"
     showgrid="false"
     inkscape:zoom="0.74118967"
     inkscape:cx="601.06072"
     inkscape:cy="181.46502"
     inkscape:window-width="1920"
     inkscape:window-height="1017"
     inkscape:window-x="-8"
     inkscape:window-y="-8"
     inkscape:window-maximized="1"
     inkscape:current-layer="layer1" />
  <defs
     id="defs2910" />
  <g
     inkscape:label="Layer 1"
     inkscape:groupmode="layer"
     id="layer1"
     transform="translate(53.843425,-100.72659)">
    <path
       d="m -51.071566,103.61062 c 0.369711,-0.11853 0.768703,-0.19403 1.205089,-0.19403 h 1.567039 c 0.208491,0.20497 0.42933,0.39229 0.656872,0.56868 -0.820208,-0.25118 -2.175228,-0.56197 -3.429,-0.37465 m -2.465211,1.85244 c -0.118181,0.15592 -0.219781,0.30338 -0.306564,0.43815 v 3.2706 l 0.414161,-1.54093 c -0.261761,-0.85796 -0.195791,-1.67217 -0.107597,-2.16782 m 20.403255,2.13959 c 0.333022,-1.06715 0.126647,-2.09303 0.03598,-2.44369 -0.312208,-0.36512 -0.702733,-0.74224 -1.177925,-1.05304 -1.715911,-0.83009 -4.230158,-0.0325 -4.955469,0.23036 -1.170164,0.76306 -2.534355,1.17581 -3.9624,1.17581 -1.42875,0 -2.793294,-0.41275 -3.963458,-1.17616 -0.727075,-0.26282 -3.246261,-1.06221 -4.961467,-0.22648 -0.472016,0.30938 -0.860072,0.68403 -1.170869,1.04739 -0.08996,0.3489 -0.297745,1.37795 0.03563,2.44581 l 0.0081,0.0247 -0.0071,0.0243 -0.590903,2.19816 v 141.55596 l 0.597606,2.22179 -0.0081,0.0243 c -0.333023,1.06751 -0.126648,2.09339 -0.03598,2.44405 0.312209,0.36512 0.702734,0.74189 1.177925,1.05269 1.715911,0.83044 4.230159,0.0324 4.95547,-0.23001 1.170164,-0.76306 2.534355,-1.17581 3.9624,-1.17581 1.42875,0 2.793294,0.41275 3.963458,1.17616 0.727075,0.26282 3.246614,1.06221 4.961466,0.22648 0.472017,-0.30938 0.860073,-0.68403 1.17087,-1.04739 0.08996,-0.3489 0.297744,-1.37795 -0.03563,-2.44617 l -0.0081,-0.0243 0.0071,-0.0243 0.591255,-2.19816 V 109.84914 l -0.597958,-2.22179 z m -3.160889,-5.42466 h 1.117247 l -0.254352,-0.33867 h -2.850445 c -0.0829,-0.003 -0.162278,-0.0127 -0.246591,-0.0127 v 0.0127 h -1.746603 c 0.123119,0.10619 0.239183,0.22014 0.349955,0.33867 h 2.947459 c 2.187927,0.48401 3.739797,1.87078 4.434063,2.60914 v 0.647 c -0.699911,-0.96414 -2.012949,-2.28212 -3.976863,-2.28212 h -4.381147 c -0.04762,-0.0854 -0.135467,-0.1457 -0.239889,-0.1457 -0.153106,0 -0.277989,0.12489 -0.277989,0.27799 0,0.15346 0.124883,0.27799 0.277989,0.27799 0.104422,0 0.192264,-0.0603 0.239889,-0.1457 h 2.420055 c -1.293989,1.17863 -2.951692,1.83092 -4.7117,1.83092 -1.760008,0 -3.417358,-0.65229 -4.7117,-1.83092 h 2.419703 c 0.04762,0.0854 0.135467,0.1457 0.239889,0.1457 0.153105,0 0.277989,-0.12453 0.277989,-0.27799 0,-0.1531 -0.124884,-0.27799 -0.277989,-0.27799 -0.104422,0 -0.192264,0.0603 -0.239889,0.1457 h -4.381147 c -1.964267,0 -3.277658,1.31868 -3.976864,2.28247 v -0.64699 c 0.693208,-0.73837 2.242961,-2.12443 4.430536,-2.60879 h 2.950281 c 0.110772,-0.11924 0.226836,-0.23284 0.349602,-0.33938 h -1.745544 v -0.0127 c -0.08396,0 -0.163689,0.01 -0.246592,0.0127 h -2.850797 l -0.254705,0.33938 h 1.116541 c -1.774119,0.5595 -3.067403,1.65946 -3.749322,2.35584 v -0.89288 c 0,0 1.286228,-0.76552 1.614311,-1.46296 h 0.687917 l 0.452966,-0.60396 h 2.572809 c 0.996244,-0.12594 2.252839,-0.35878 2.847269,-0.77047 0,0 0.422628,-0.25647 0.422628,0.16263 0,0.25612 -0.966258,0.47555 -1.715911,0.60784 h 0.960614 c 0.03598,-0.0349 0.08396,-0.0568 0.137936,-0.0568 0.04198,0 0.07832,0.0159 0.110772,0.0385 0.725311,-0.50977 1.606197,-0.81139 2.557992,-0.81139 0.951794,0 1.833033,0.30162 2.558697,0.81139 0.0321,-0.0226 0.06879,-0.0385 0.110772,-0.0385 0.05398,0 0.102306,0.0219 0.137936,0.0568 h 0.960614 c -0.749653,-0.13229 -1.715911,-0.35172 -1.715911,-0.60784 0,-0.4191 0.422628,-0.16263 0.422628,-0.16263 0.59443,0.41169 1.851025,0.64453 2.847269,0.77047 h 2.572808 l 0.452261,0.60325 h 0.688623 c 0.328083,0.69815 1.614663,1.46297 1.614663,1.46297 v 0.89323 c -0.682625,-0.69673 -1.976613,-1.79669 -3.750733,-2.3562 m -4.17195,-0.27481 c -0.01834,0.006 -0.03739,0.0116 -0.05821,0.0116 -0.109361,0 -0.198261,-0.0889 -0.198261,-0.19826 0,-0.002 0.0011,-0.003 0.0011,-0.005 -0.699911,-0.49601 -1.551516,-0.79022 -2.472266,-0.79022 -0.920398,0 -1.772003,0.29421 -2.471561,0.78986 0,0.002 0.0011,0.004 0.0011,0.005 0,0.10936 -0.0889,0.19826 -0.198261,0.19826 -0.02081,0 -0.03986,-0.006 -0.05856,-0.0116 -0.105481,0.0868 -0.206375,0.17885 -0.303389,0.27516 h 0.32138 c 0.72002,-0.64382 1.667228,-1.03858 2.709334,-1.03858 1.042105,0 1.989666,0.39476 2.709686,1.03858 h 0.321027 c -0.09666,-0.0963 -0.197555,-0.18838 -0.303036,-0.27516 m 7.508522,5.7277 0.414161,1.53952 v -3.26919 c -0.08714,-0.13406 -0.18803,-0.28152 -0.306211,-0.43674 0.08784,0.496 0.153811,1.30951 -0.10795,2.16641 m -3.562702,-4.21429 h -1.568098 c -0.208138,0.20532 -0.42933,0.39229 -0.656872,0.56903 0.820209,-0.25082 2.175228,-0.56162 3.429706,-0.375 -0.369711,-0.11818 -0.76835,-0.19403 -1.204736,-0.19403 m -3.53e-4,154.42142 c 0.436386,0 0.835378,-0.0752 1.205089,-0.19368 -1.253772,0.18733 -2.608439,-0.12347 -3.429,-0.375 0.227542,0.17639 0.44838,0.36371 0.656872,0.56868 z m 3.6703,-2.04612 c 0.11818,-0.15628 0.21978,-0.30374 0.306916,-0.4385 v -3.27025 l -0.414513,1.54094 c 0.261761,0.85795 0.195791,1.67181 0.107597,2.16781 m 0.306916,0.0286 v 0.64699 c -0.693561,0.73801 -2.243313,2.12408 -4.430888,2.60844 h -2.950281 c -0.110772,0.11959 -0.226836,0.23284 -0.349603,0.33973 h 1.745545 v 0.0123 c 0.08396,0 0.164041,-0.01 0.246591,-0.0123 h 2.850798 l 0.254705,-0.33973 H -36.293 c 1.773767,-0.5595 3.06705,-1.65911 3.749322,-2.35585 v 0.89324 c 0,0 -1.28658,0.76552 -1.614663,1.46261 h -0.687917 l -0.452967,0.60431 h -2.572808 c -0.996244,0.12594 -2.252839,0.35878 -2.847269,0.77047 0,0 -0.422628,0.25611 -0.422628,-0.16263 0,-0.25647 0.966258,-0.4759 1.715911,-0.60784 h -0.960614 c -0.03563,0.0349 -0.08396,0.0564 -0.137936,0.0564 -0.04198,0 -0.07832,-0.0159 -0.110772,-0.0381 -0.725311,0.50941 -1.606197,0.81138 -2.557992,0.81138 -0.951794,0 -1.833033,-0.30197 -2.558697,-0.81138 -0.0321,0.0222 -0.06879,0.0381 -0.110772,0.0381 -0.05398,0 -0.101953,-0.0215 -0.137936,-0.0564 h -0.960614 c 0.749653,0.13194 1.715911,0.35137 1.715911,0.60784 0,0.41874 -0.422628,0.16263 -0.422628,0.16263 -0.59443,-0.41169 -1.851025,-0.64453 -2.847269,-0.77047 h -2.572809 l -0.452261,-0.6036 h -0.688622 c -0.328083,-0.6978 -1.614311,-1.46262 -1.614311,-1.46262 v -0.89358 c 0.682272,0.69708 1.976261,1.79669 3.750381,2.3562 h -1.117248 l 0.254353,0.33902 h 2.850444 c 0.08326,0.003 0.162278,0.0123 0.246592,0.0123 v -0.0123 h 1.746603 c -0.12312,-0.10654 -0.239183,-0.22014 -0.349956,-0.33902 h -2.947458 c -2.187928,-0.48366 -3.739797,-1.87078 -4.433711,-2.60879 v -0.647 c 0.699558,0.96414 2.012597,2.28177 3.976511,2.28177 h 4.381147 c 0.04763,0.0857 0.135467,0.14605 0.239889,0.14605 0.153106,0 0.277989,-0.12488 0.277989,-0.27834 0,-0.15311 -0.124883,-0.27799 -0.277989,-0.27799 -0.104422,0 -0.192264,0.0603 -0.239889,0.1457 h -2.419703 c 1.293989,-1.17828 2.951339,-1.83057 4.711348,-1.83057 1.760008,0 3.417711,0.65229 4.712052,1.83057 h -2.420055 c -0.04763,-0.0854 -0.135467,-0.1457 -0.239889,-0.1457 -0.153106,0 -0.277989,0.12488 -0.277989,0.27799 0,0.15346 0.124883,0.27834 0.277989,0.27834 0.104422,0 0.192264,-0.0603 0.239889,-0.14605 h 4.381147 c 1.964267,0 3.277658,-1.31833 3.977216,-2.28212 m -7.618941,3.25579 H -40.484 c -0.720019,0.64381 -1.667227,1.03893 -2.709333,1.03893 -1.042105,0 -1.989666,-0.39512 -2.709686,-1.03893 h -0.321028 c 0.09666,0.0967 0.197556,0.18838 0.303036,0.27516 0.01834,-0.006 0.03739,-0.0116 0.05821,-0.0116 0.109361,0 0.198261,0.0889 0.198261,0.19861 0,0 -0.0011,0.003 -0.0011,0.005 0.699911,0.49636 1.551516,0.79058 2.472266,0.79058 0.920397,0 1.772003,-0.29422 2.471561,-0.79023 0,-10e-4 -0.0011,-0.003 -0.0011,-0.003 0,-0.11148 0.0889,-0.20038 0.198261,-0.20038 0.02081,0 0.03986,0.006 0.05856,0.0116 0.105481,-0.0868 0.206375,-0.1785 0.303389,-0.27516 m -13.266914,-5.45218 -0.413808,-1.53953 v 3.26884 c 0.08678,0.13406 0.187678,0.28152 0.305858,0.43709 -0.08784,-0.49636 -0.153811,-1.30951 0.10795,-2.1664 m 5.1308,4.21393 c 0.208139,-0.20532 0.429331,-0.39229 0.656872,-0.56904 -0.820208,0.25118 -2.175227,0.56198 -3.429705,0.37536 0.369711,0.11818 0.76835,0.19368 1.204736,0.19368 z"
       fill="#dedfdf"
       id="path5"
       style="stroke-width:0.352778" />
  </g>
</svg>
