<?xml version="1.0" encoding="UTF-8" standalone="no"?>
<!-- Created with Inkscape (http://www.inkscape.org/) -->

<svg
   width="65.211823mm"
   height="136.57933mm"
   viewBox="0 0 65.211823 136.57933"
   version="1.1"
   id="svg3126"
   inkscape:version="1.1 (c68e22c387, 2021-05-23)"
   sodipodi:docname="feat-trait-border.svg"
   xmlns:inkscape="http://www.inkscape.org/namespaces/inkscape"
   xmlns:sodipodi="http://sodipodi.sourceforge.net/DTD/sodipodi-0.dtd"
   xmlns="http://www.w3.org/2000/svg"
   xmlns:svg="http://www.w3.org/2000/svg">
  <sodipodi:namedview
     id="namedview3128"
     pagecolor="#ffffff"
     bordercolor="#666666"
     borderopacity="1.0"
     inkscape:pageshadow="2"
     inkscape:pageopacity="0.0"
     inkscape:pagecheckerboard="0"
     inkscape:document-units="mm"
     showgrid="false"
     inkscape:zoom="0.74118967"
     inkscape:cx="203.05194"
     inkscape:cy="224.63886"
     inkscape:window-width="1920"
     inkscape:window-height="1017"
     inkscape:window-x="-8"
     inkscape:window-y="-8"
     inkscape:window-maximized="1"
     inkscape:current-layer="layer1" />
  <defs
     id="defs3123" />
  <g
     inkscape:label="Layer 1"
     inkscape:groupmode="layer"
     id="layer1"
     transform="translate(-51.282324,-89.134614)">
    <path
       d="M 115.6613,216.29442 V 90.575712 l -0.15487,-0.04833 c -0.3937,-0.123119 -1.41534,-0.572911 -1.41534,-1.17228 V 89.134614 H 53.732221 v 0.220487 c 0,0.599369 -1.021997,1.049161 -1.41605,1.17228 l -0.15487,0.04833 V 216.1071 c -0.224719,0.89923 -1.10243,4.60586 -0.8255,6.58494 l 0.01517,0.10866 0.104422,0.0342 c 0.0095,0.003 0.301625,0.10195 0.705908,0.27975 v 1.15852 l 0.15487,0.048 c 0.394053,0.12242 1.41605,0.57115 1.41605,1.17228 v 0.22049 h 60.358869 v -0.22049 c 0,-0.59937 1.02164,-1.04916 1.41534,-1.17228 l 0.15487,-0.0483 v -1.17792 c 0.37924,-0.16475 0.65087,-0.25683 0.65969,-0.26 l 0.10443,-0.0342 0.0152,-0.10866 c 0.2607,-1.8616 -0.50095,-5.25286 -0.77929,-6.39762 M 52.602274,92.942498 c 0.05785,-0.12065 0.157338,-0.319264 0.297744,-0.564797 V 216.5971 c 0,1.19698 -0.101247,2.55411 -0.297744,4.04495 z m 0,128.935332 c 0.314677,-1.98437 0.474133,-3.75779 0.474133,-5.28073 V 92.08172 c 0.583847,-0.941917 1.62313,-2.252486 2.992614,-2.506133 h 55.684209 c 1.36878,0.253647 2.40876,1.565275 2.99296,2.507191 V 216.5971 c 0,1.52294 0.15946,3.29636 0.47414,5.28073 v 1.02729 c -0.95391,0.45015 -2.27542,1.26189 -2.50437,2.36785 H 55.060429 c -0.225425,-1.08832 -1.508125,-1.8916 -2.458155,-2.34598 z M 114.92258,92.378759 c 0.14041,0.24518 0.23989,0.443442 0.29775,0.564091 v 127.6992 c -0.1965,-1.49084 -0.29775,-2.84797 -0.29775,-4.04495 z m 0.29775,-1.484489 v 1.285522 c -0.44838,-0.786694 -1.27776,-1.987197 -2.42923,-2.604205 h 0.88406 c 0.17039,0.735894 1.15641,1.172986 1.54517,1.318683 M 54.148146,89.575587 h 0.883355 c -1.151466,0.617008 -1.980847,1.817511 -2.429227,2.604205 V 90.89427 c 0.389113,-0.145697 1.37548,-0.582789 1.545872,-1.318683 m -2.4765,132.960883 c -0.148872,-1.30281 0.189794,-3.36444 0.489655,-4.82353 v 5.01509 c -0.212372,-0.0896 -0.385586,-0.15417 -0.489655,-0.19156 m 0.930628,1.41781 v -0.63147 c 0.843844,0.42157 1.874308,1.09679 2.096558,1.95016 h -0.550686 c -0.170392,-0.7359 -1.156759,-1.17299 -1.545872,-1.31869 m 62.618056,0 c -0.38876,0.1457 -1.37478,0.58279 -1.54517,1.31869 h -0.5976 c 0.22613,-0.86784 1.29116,-1.55293 2.14277,-1.97309 z m 0.88441,-1.41781 c -0.0963,0.0346 -0.25365,0.0938 -0.44344,0.17251 v -4.76815 c 0.28681,1.43969 0.58455,3.3588 0.44344,4.59564"
       id="path243"
       style="stroke-width:0.352778" />
  </g>
</svg>
