<?xml version="1.0" encoding="UTF-8" standalone="no"?>
<!-- Created with Inkscape (http://www.inkscape.org/) -->

<svg
   width="19.22628mm"
   height="7.9202099mm"
   viewBox="0 0 19.22628 7.9202099"
   version="1.1"
   id="svg4959"
   inkscape:version="1.1 (c68e22c387, 2021-05-23)"
   sodipodi:docname="gold-border.svg"
   xmlns:inkscape="http://www.inkscape.org/namespaces/inkscape"
   xmlns:sodipodi="http://sodipodi.sourceforge.net/DTD/sodipodi-0.dtd"
   xmlns="http://www.w3.org/2000/svg"
   xmlns:svg="http://www.w3.org/2000/svg">
  <sodipodi:namedview
     id="namedview4961"
     pagecolor="#ffffff"
     bordercolor="#666666"
     borderopacity="1.0"
     inkscape:pageshadow="2"
     inkscape:pageopacity="0.0"
     inkscape:pagecheckerboard="0"
     inkscape:document-units="mm"
     showgrid="false"
     inkscape:zoom="5.9295174"
     inkscape:cx="136.52039"
     inkscape:cy="35.50036"
     inkscape:window-width="1920"
     inkscape:window-height="1017"
     inkscape:window-x="-8"
     inkscape:window-y="-8"
     inkscape:window-maximized="1"
     inkscape:current-layer="layer1" />
  <defs
     id="defs4956" />
  <g
     inkscape:label="Layer 1"
     inkscape:groupmode="layer"
     id="layer1"
     transform="translate(16.752563,-116.33918)">
    <path
       d="m -7.1129122,122.90546 h -7.1716188 l 0.05574,-0.21978 c 0.04127,-0.16298 -0.0039,-0.32985 -0.120297,-0.44556 -0.178505,-0.17921 -0.486833,-0.17815 -0.663928,-0.001 l -0.114652,0.11501 -1.624895,-1.37195 v -1.36525 l 1.624895,-1.37196 0.114652,0.11466 c 0.177095,0.17709 0.486834,0.17709 0.663223,-3.6e-4 0.117122,-0.11677 0.162277,-0.28328 0.121002,-0.44626 l -0.05574,-0.21978 h 7.1716188 l -0.055386,0.21943 c -0.040922,0.16333 0.00388,0.3302 0.1202972,0.44591 0.1781528,0.17921 0.4864806,0.1778 0.663575,0.001 l 0.1150055,-0.11466 1.6252472,1.37196 v 1.36525 l -1.6255999,1.37195 -0.1146528,-0.11501 c -0.1774472,-0.17744 -0.4864805,-0.17744 -0.6628694,3.6e-4 -0.1171223,0.11641 -0.161925,0.28292 -0.1210028,0.44661 z m -6.7489918,-0.35278 h 6.3260113 c 0.00317,-0.21025 0.086078,-0.41063 0.2391833,-0.56268 0.2702278,-0.27093 0.7224889,-0.31221 1.03505,-0.10477 l 1.2647083,-1.06716 v -1.03716 l -1.2650611,-1.06786 c -0.3118556,0.20849 -0.7641167,0.16757 -1.0354028,-0.10513 -0.1524,-0.15134 -0.2353027,-0.35207 -0.2384777,-0.56197 h -6.3249523 c -0.0032,0.20955 -0.08643,0.41063 -0.239536,0.56268 -0.26917,0.27128 -0.721784,0.31291 -1.034698,0.10442 l -1.264708,1.06786 v 1.03716 l 1.264708,1.06751 c 0.312209,-0.20814 0.764823,-0.16722 1.035403,0.10513 0.149931,0.14887 0.233539,0.35207 0.237772,0.56197"
       id="path385"
       sodipodi:nodetypes="cccccccccscccccccccccccccccccccccccccccccc"
       style="stroke-width:0.352778" />
    <path
       d="M 0.0635401,124.25939 H -10.542371 l -2.410178,-3.03354 3.53e-4,-1.85455 2.40912,-3.03212 H 0.06495121 l 2.40841379,3.03212 3.528e-4,1.85455 z m -10.4143521,-0.39687 h 10.22279377 l 2.20486103,-2.77495 -3.527e-4,-1.57798 -2.20309722,-2.77354 H -10.351518 l -2.203803,2.77354 -3.53e-4,1.57798 z"
       id="path391"
       sodipodi:nodetypes="cccccccccccccccccc"
       style="stroke-width:0.352778" />
    <path
       d="m -9.6960569,124.12777 -2.2242641,-2.71956 0.164042,-0.13371 2.2242638,2.71957 z"
       id="path400"
       style="stroke-width:0.352778" />
    <path
       d="m -11.765169,119.3253 -0.163336,-0.13441 2.2337887,-2.72062 0.1633361,0.13441 z"
       id="path402"
       style="stroke-width:0.352778" />
    <path
       d="m -0.7846435,124.12812 -0.16333611,-0.13441 2.23414161,-2.72238 0.1633361,0.1344 z"
       id="path413"
       sodipodi:nodetypes="ccccc"
       style="stroke-width:0.352778" />
    <path
       d="m 1.2862326,119.32221 -2.23519995,-2.71745 0.16333611,-0.13441 2.23519994,2.71745 z"
       id="path415"
       style="stroke-width:0.352778" />
    <path
       d="m -12.063513,121.97907 -0.172861,-0.12206 c 0.319264,-0.45403 0.488597,-0.98848 0.488597,-1.54623 0,-0.56303 -0.172155,-1.10243 -0.497064,-1.55998 l 0.172509,-0.12277 c 0.350661,0.49354 0.535869,1.07562 0.535869,1.68275 0,0.60149 -0.182033,1.17828 -0.52705,1.66829"
       id="path407"
       style="stroke-width:0.352778" />
    <path
       d="m 1.5832009,121.97907 c -0.3446639,-0.48966 -0.5266972,-1.06645 -0.5266972,-1.66829 0,-0.60748 0.1848555,-1.18921 0.5355166,-1.68275 l 0.1725084,0.12277 c -0.3245556,0.45755 -0.4967111,0.99695 -0.4967111,1.55998 0,0.5581 0.1689805,1.09256 0.4882444,1.54623 z"
       id="path420"
       sodipodi:nodetypes="csccscc"
       style="stroke-width:0.352778" />
  </g>
</svg>
