<?xml version="1.0" encoding="UTF-8" standalone="no"?>
<!-- Created with Inkscape (http://www.inkscape.org/) -->

<svg
   width="63.220604mm"
   height="9.5581617mm"
   viewBox="0 0 63.220604 9.5581617"
   version="1.1"
   id="svg5475"
   inkscape:version="1.1 (c68e22c387, 2021-05-23)"
   sodipodi:docname="passive-border.svg"
   xmlns:inkscape="http://www.inkscape.org/namespaces/inkscape"
   xmlns:sodipodi="http://sodipodi.sourceforge.net/DTD/sodipodi-0.dtd"
   xmlns="http://www.w3.org/2000/svg"
   xmlns:svg="http://www.w3.org/2000/svg">
  <sodipodi:namedview
     id="namedview5477"
     pagecolor="#ffffff"
     bordercolor="#666666"
     borderopacity="1.0"
     inkscape:pageshadow="2"
     inkscape:pageopacity="0.0"
     inkscape:pagecheckerboard="0"
     inkscape:document-units="mm"
     showgrid="false"
     inkscape:zoom="0.74118967"
     inkscape:cx="943.75303"
     inkscape:cy="232.73395"
     inkscape:window-width="1920"
     inkscape:window-height="1017"
     inkscape:window-x="-8"
     inkscape:window-y="-8"
     inkscape:window-maximized="1"
     inkscape:current-layer="layer1" />
  <defs
     id="defs5472" />
  <g
     inkscape:label="Layer 1"
     inkscape:groupmode="layer"
     id="layer1"
     transform="translate(144.41318,-86.962498)">
    <path
       d="m -141.89364,87.022474 c -1.57762,1.058333 -2.51954,2.822575 -2.51954,4.719108 0,1.896534 0.94192,3.660775 2.52025,4.719108 l 0.0889,0.05997 h 6.1408 l 0.0889,-0.05997 c 0.33161,-0.22225 0.63323,-0.477661 0.90523,-0.756708 h 51.909128 l 0.07056,-0.118533 c 0.202494,-0.340078 0.841375,-1.27635 1.357489,-1.518708 l 0.139347,-0.06562 -7.06e-4,-4.519083 -0.138994,-0.06562 c -0.516114,-0.242358 -1.154995,-1.178983 -1.357842,-1.519061 l -0.07055,-0.118181 H -134.6684 c -0.2727,-0.279047 -0.57397,-0.534458 -0.90558,-0.756708 l -0.0889,-0.05997 h -6.14151 z m -1.81398,4.719108 c 0,-1.6256 0.79057,-3.140427 2.11984,-4.073525 h 2.84903 c 1.31092,0.579261 3.08575,0.904523 3.9564,1.066448 0.65088,0.853722 1.02271,1.901824 1.02271,3.006019 v 0.0021 c 0,1.104194 -0.37218,2.151944 -1.02306,3.006019 -0.87065,0.161925 -2.64548,0.487186 -3.95605,1.066447 h -2.84868 c -1.32927,-0.933097 -2.12019,-2.447925 -2.12019,-4.073525 m 58.440457,-3.47733 c 0.847019,0.314678 3.069872,1.254478 3.588808,2.604911 l 7.05e-4,1.74378 c -0.518936,1.350434 -2.742847,2.291292 -3.589513,2.60597 h -46.152157 c -0.22013,-0.19685 -0.69673,-0.503414 -1.58361,-0.5842 0.25576,-0.432506 0.82126,-1.541992 0.82126,-2.893131 0,-1.351139 -0.5655,-2.460625 -0.82126,-2.89313 0.88688,-0.08079 1.36348,-0.38735 1.58361,-0.5842 z m -48.035987,0.601486 c 0.17427,0.276225 0.8569,1.452739 0.8569,2.875844 0,1.423106 -0.68263,2.59962 -0.8569,2.875845 -0.16757,-0.0046 -0.34784,-0.0014 -0.54151,0.01129 0.50941,-0.862188 0.79057,-1.854199 0.79057,-2.887133 v -0.0011 c 0,-1.032228 -0.28116,-2.024239 -0.79022,-2.886075 0.19332,0.0127 0.37359,0.01587 0.54116,0.01129 m -2.57669,6.949369 h -1.4732 c 0.8883,-0.361244 1.65136,-0.596194 2.30329,-0.738717 -0.24695,0.272698 -0.52247,0.522817 -0.83009,0.738717 m 1.85456,-0.900642 c 1.09078,-0.09878 1.75506,0.10407 2.12971,0.304448 h -2.34985 c 0.0765,-0.09913 0.14958,-0.200731 0.22014,-0.304448 m 50.992611,0.304448 h -1.516239 c 0.914047,-0.392995 2.232378,-1.089025 2.871258,-2.039761 v 0.523875 c -0.585258,0.358775 -1.1557,1.202266 -1.355019,1.515886 m 1.354314,-5.439128 v 0.523522 c -0.638881,-0.950736 -1.956506,-1.646061 -2.870553,-2.039055 h 1.515533 c 0.19932,0.313619 0.770114,1.157111 1.35502,1.515533 m -50.217215,-1.515533 c -0.37465,0.200378 -1.03893,0.403225 -2.12971,0.304447 -0.0702,-0.103717 -0.14323,-0.205317 -0.21979,-0.304447 z m -3.15383,0.142522 c -0.65228,-0.142522 -1.41499,-0.377472 -2.30364,-0.738717 h 1.47356 c 0.30797,0.2159 0.58314,0.46602 0.83008,0.738717"
       id="path183"
       style="stroke-width:0.352778" />
  </g>
</svg>
