<?xml version="1.0" encoding="UTF-8" standalone="no"?>
<!-- Created with Inkscape (http://www.inkscape.org/) -->

<svg
   width="66.145828mm"
   height="19.93218mm"
   viewBox="0 0 66.145828 19.93218"
   version="1.1"
   id="svg2244"
   inkscape:version="1.1 (c68e22c387, 2021-05-23)"
   sodipodi:docname="top-info-bar-3.svg"
   xmlns:inkscape="http://www.inkscape.org/namespaces/inkscape"
   xmlns:sodipodi="http://sodipodi.sourceforge.net/DTD/sodipodi-0.dtd"
   xmlns="http://www.w3.org/2000/svg"
   xmlns:svg="http://www.w3.org/2000/svg">
  <sodipodi:namedview
     id="namedview2246"
     pagecolor="#ffffff"
     bordercolor="#666666"
     borderopacity="1.0"
     inkscape:pageshadow="2"
     inkscape:pageopacity="0.0"
     inkscape:pagecheckerboard="0"
     inkscape:document-units="mm"
     showgrid="false"
     inkscape:zoom="0.74118967"
     inkscape:cx="584.87053"
     inkscape:cy="72.181254"
     inkscape:window-width="1920"
     inkscape:window-height="1017"
     inkscape:window-x="-8"
     inkscape:window-y="-8"
     inkscape:window-maximized="1"
     inkscape:current-layer="layer1" />
  <defs
     id="defs2241" />
  <g
     inkscape:label="Layer 1"
     inkscape:groupmode="layer"
     id="layer1"
     transform="translate(49.440943,-129.7381)">
    <path
       d="m 15.351418,129.7397 -0.05735,0.10316 c -0.01203,0.0221 -0.281924,0.48323 -0.996559,0.57908 -0.06777,-0.0895 -0.170036,-0.15159 -0.290746,-0.15159 -0.117502,0 -0.216957,0.0578 -0.285132,0.14237 -0.508506,-0.0651 -1.083984,-0.27591 -1.722423,-0.64767 l -0.04652,-0.0268 h -56.641433 l -0.04651,0.0268 c -0.63884,0.37176 -1.213917,0.58271 -1.722423,0.64767 -0.06777,-0.0846 -0.168032,-0.14237 -0.28473,-0.14237 -0.121112,0 -0.223374,0.0622 -0.291149,0.15159 -0.714635,-0.0959 -0.984127,-0.55702 -0.995757,-0.57748 l -0.05655,-0.10634 h -1.355079 v 19.93158 l 1.353476,-0.001 0.05735,-0.10316 c 0.01202,-0.0221 0.281924,-0.48325 0.996559,-0.57908 0.06777,0.0898 0.170037,0.15159 0.290747,0.15159 0.1171,0 0.216957,-0.0578 0.285132,-0.14237 0.508506,0.0649 1.083583,0.27592 1.722423,0.64766 l 0.04651,0.0268 h 56.641427 l 0.04652,-0.0268 c 0.63844,-0.37174 1.213917,-0.5827 1.722423,-0.64766 0.06737,0.0846 0.16763,0.14237 0.284731,0.14237 0.12071,0 0.223374,-0.0618 0.291148,-0.15159 0.714634,0.0959 0.984126,0.55703 0.995355,0.57748 l 0.05695,0.10634 h 1.355079 V 129.7381 Z m -64.39133,5.32928 c 0.257861,1.84876 0.388598,3.51904 0.388598,4.98281 v -0.6958 c 0,1.46377 -0.130737,3.13405 -0.388598,4.98279 z m 65.343776,14.19967 H 15.578 c -0.144371,-0.19611 -0.527354,-0.59834 -1.256426,-0.68537 -0.06456,-0.10941 -0.178859,-0.18728 -0.315209,-0.18728 -0.141965,0 -0.261472,0.0827 -0.323631,0.19972 -0.55302,0.069 -1.166997,0.28874 -1.837919,0.67293 h -56.425679 c -0.670921,-0.38419 -1.284899,-0.60395 -1.837919,-0.67293 -0.06217,-0.11709 -0.181666,-0.19972 -0.324031,-0.19972 -0.136351,0 -0.250644,0.0778 -0.314809,0.18728 -0.729073,0.087 -1.112054,0.48926 -1.256426,0.68537 h -0.725863 v -3.60767 c 0.389399,-2.37731 0.589113,-4.49795 0.589113,-6.30499 v 0.6958 c 0,-1.80705 -0.199714,-3.92769 -0.589113,-6.30499 v -3.60767 h 0.725863 c 0.144372,0.19609 0.527353,0.59833 1.256426,0.68536 0.06456,0.10986 0.178458,0.18728 0.31521,0.18728 0.141964,0 0.261471,-0.0827 0.32363,-0.19971 0.55302,-0.069 1.166998,-0.28874 1.837919,-0.67293 h 56.425679 c 0.670922,0.38419 1.284899,0.60395 1.837919,0.67293 0.06216,0.11709 0.181666,0.19971 0.324032,0.19971 0.135949,0 0.250643,-0.0774 0.314808,-0.18728 0.729072,-0.087 1.112055,-0.48927 1.256426,-0.68536 h 0.725864 v 3.60767 c -0.389801,2.3773 -0.589113,4.49794 -0.589113,6.30499 v -0.6958 c 0,1.80704 0.199312,3.92768 0.589113,6.30499 z m 0,-4.92987 c -0.257862,-1.84874 -0.388598,-3.51902 -0.388598,-4.98279 v 0.6958 c 0,-1.46377 0.130736,-3.13405 0.388598,-4.98281 z"
       id="path151"
       style="stroke-width:0.40103" />
  </g>
</svg>
