<?xml version="1.0" encoding="UTF-8" standalone="no"?>
<!-- Created with Inkscape (http://www.inkscape.org/) -->

<svg
   width="66.145798mm"
   height="19.932171mm"
   viewBox="0 0 66.145798 19.932171"
   version="1.1"
   id="svg2457"
   inkscape:version="1.1 (c68e22c387, 2021-05-23)"
   sodipodi:docname="top-info-bar-4.svg"
   xmlns:inkscape="http://www.inkscape.org/namespaces/inkscape"
   xmlns:sodipodi="http://sodipodi.sourceforge.net/DTD/sodipodi-0.dtd"
   xmlns="http://www.w3.org/2000/svg"
   xmlns:svg="http://www.w3.org/2000/svg">
  <sodipodi:namedview
     id="namedview2459"
     pagecolor="#ffffff"
     bordercolor="#666666"
     borderopacity="1.0"
     inkscape:pageshadow="2"
     inkscape:pageopacity="0.0"
     inkscape:pagecheckerboard="0"
     inkscape:document-units="mm"
     showgrid="false"
     inkscape:zoom="0.74118967"
     inkscape:cx="31.705784"
     inkscape:cy="-139.64037"
     inkscape:window-width="1920"
     inkscape:window-height="1017"
     inkscape:window-x="-8"
     inkscape:window-y="-8"
     inkscape:window-maximized="1"
     inkscape:current-layer="layer1" />
  <defs
     id="defs2454" />
  <g
     inkscape:label="Layer 1"
     inkscape:groupmode="layer"
     id="layer1"
     transform="translate(-96.917144,-185.78193)">
    <path
       d="m 97.058214,204.13325 c 0.457572,0.14196 1.644213,0.66651 1.644213,1.38034 v 0.20051 h 62.574733 v -0.20051 c 0,-0.71183 1.18744,-1.23797 1.64461,-1.38034 l 0.14117,-0.0438 v -18.30692 l -1.35348,0.001 -0.0577,0.10311 c -0.0116,0.0224 -0.28152,0.48323 -0.99615,0.57948 -0.0678,-0.0898 -0.17004,-0.15159 -0.29115,-0.15159 -0.1171,0 -0.21695,0.0574 -0.28512,0.14196 -0.5081,-0.065 -1.08358,-0.2755 -1.72241,-0.64726 l -0.0465,-0.0273 H 101.6697 l -0.0465,0.0273 c -0.63884,0.37176 -1.21432,0.58229 -1.722417,0.64726 -0.06778,-0.0846 -0.168031,-0.14196 -0.28473,-0.14196 -0.12111,0 -0.223773,0.0617 -0.291547,0.15159 -0.714631,-0.0963 -0.984121,-0.55703 -0.99535,-0.57788 l -0.05694,-0.10629 h -1.355072 v 18.30691 z m 0.648462,-2.05687 c -0.213748,-0.37335 -0.345285,-0.65327 -0.388596,-0.74751 v -10.21538 c 0.258261,1.84914 0.388596,3.51941 0.388596,4.98277 z m 1.377528,3.23669 c -0.164421,-0.85779 -1.349858,-1.36228 -1.766124,-1.51428 v -1.58445 c 0.508101,0.91032 1.503452,2.39172 2.90665,3.09873 z m 61.810776,0 h -1.13932 c 1.40279,-0.70701 2.39814,-2.18841 2.90625,-3.09873 v 1.58445 c -0.41587,0.152 -1.60211,0.65649 -1.76693,1.51428 m 1.76693,-3.9842 c -0.0433,0.0946 -0.17485,0.37456 -0.3886,0.74831 v -5.98092 c 0,-1.46336 0.13033,-3.13363 0.3886,-4.98277 z M 98.044341,186.18366 c 0.143969,0.1965 0.52695,0.59874 1.256418,0.68536 0.06457,0.10993 0.178457,0.18727 0.315209,0.18727 0.141963,0 0.261068,-0.0826 0.323628,-0.19971 0.552614,-0.069 1.166994,-0.28874 1.837904,-0.67292 h 56.42538 c 0.67092,0.38418 1.28489,0.60394 1.83791,0.67292 0.0622,0.1171 0.18166,0.19971 0.32362,0.19971 0.13636,0 0.25065,-0.0774 0.31482,-0.18727 0.72947,-0.0866 1.11244,-0.48886 1.25642,-0.68536 h 0.72626 v 3.60804 c -0.3898,2.3769 -0.58911,4.49752 -0.58911,6.30456 v 6.31778 c -0.73789,1.18985 -2.11462,2.89903 -3.93529,2.89903 h -56.29463 c -1.81947,0 -3.1974,-1.71037 -3.93569,-2.90023 v -6.31658 c 0,-1.80704 -0.199312,-3.92766 -0.58911,-6.30456 v -3.60804 z"
       id="path153"
       style="stroke-width:0.401028" />
  </g>
</svg>
